<?xml version="1.0" encoding="UTF-8" standalone="no"?>
<!-- Created with Inkscape (http://www.inkscape.org/) -->

<svg
   xmlns:dc="http://purl.org/dc/elements/1.1/"
   xmlns:cc="http://creativecommons.org/ns#"
   xmlns:rdf="http://www.w3.org/1999/02/22-rdf-syntax-ns#"
   xmlns:svg="http://www.w3.org/2000/svg"
   xmlns="http://www.w3.org/2000/svg"
   xmlns:sodipodi="http://sodipodi.sourceforge.net/DTD/sodipodi-0.dtd"
   xmlns:inkscape="http://www.inkscape.org/namespaces/inkscape"
   version="1.1"
   id="svg2"
   width="2749.1968"
   height="1137.6362"
   viewBox="0 0 2749.1967 1137.6362"
   sodipodi:docname="adminal.svg"
   inkscape:export-filename="C:\xampp\htdocs\miWeb\recursos\img\admin3.png"
   inkscape:export-xdpi="96"
   inkscape:export-ydpi="96"
   inkscape:version="0.92.5 (2060ec1f9f, 2020-04-08)">
  <metadata
     id="metadata8">
    <rdf:RDF>
      <cc:Work
         rdf:about="">
        <dc:format>image/svg+xml</dc:format>
        <dc:type
           rdf:resource="http://purl.org/dc/dcmitype/StillImage" />
        <dc:title></dc:title>
      </cc:Work>
    </rdf:RDF>
  </metadata>
  <defs
     id="defs6" />
  <sodipodi:namedview
     pagecolor="#ffffff"
     bordercolor="#666666"
     borderopacity="1"
     objecttolerance="10"
     gridtolerance="10"
     guidetolerance="10"
     inkscape:pageopacity="0"
     inkscape:pageshadow="2"
     inkscape:window-width="1440"
     inkscape:window-height="837"
     id="namedview4"
     showgrid="false"
     inkscape:pagecheckerboard="true"
     fit-margin-top="1"
     fit-margin-left="1"
     fit-margin-bottom="1"
     fit-margin-right="1"
     inkscape:zoom="0.39333333"
     inkscape:cx="1063.2811"
     inkscape:cy="594.20787"
     inkscape:window-x="-2"
     inkscape:window-y="760"
     inkscape:window-maximized="1"
     inkscape:current-layer="layer1" />
  <g
     inkscape:groupmode="layer"
     id="layer1"
     inkscape:label="Layer 1"
     transform="translate(-18.866231,-7.4309524)"
     style="display:inline">
    <path
       inkscape:connector-curvature="0"
       id="path3719"
       d="m 63.152816,1142.4351 c -0.6875,-0.7809 -1.25,-3.844 -1.25,-6.807 0,-4.1172 0.47148,-5.8139 2,-7.1972 1.3849,-1.2533 2,-3.08 2,-5.9394 0,-3.5277 0.4371,-4.3876 3,-5.9015 3.00784,-1.7768 3.87082,-4.0029 2,-5.1591 -0.55,-0.3399 -1,-3.4467 -1,-6.904 0,-5.016 0.40407,-6.6517 2,-8.096 1.1,-0.9955 2,-3.0205 2,-4.5 0,-1.4795 -0.9,-3.5045 -2,-4.5 -1.1,-0.9955 -2,-2.5618 -2,-3.4807 0,-2.1177 4.09293,-6.0193 6.31445,-6.0193 1.49957,0 1.68555,-1.5276 1.68555,-13.845 0,-12.575 0.18346,-14.0111 2,-15.655 1.10722,-1.002 2,-3.08 2,-4.655 0,-1.5647 0.9,-3.745 2,-4.845 1.80213,-1.8021 2,-3.3333 2,-15.4769 0,-13.0359 0.0768,-13.5273 2.34587,-15.0141 2.69259,-1.7642 4.83906,-5.8635 4.09101,-7.8129 -0.2802,-0.73018 0.0694,-2.42728 0.77683,-3.77128 1.62816,-3.0933 7.035854,-10.3145 8.063034,-10.767 1.10892,-0.4887 4.72326,-7.7964 4.72326,-9.5499 0,-0.8094 1.28687,-2.388 2.85972,-3.508 2.15605,-1.5353 3.00905,-3.1258 3.46662,-6.4642 0.33381,-2.4353 1.25368,-5.9371 2.04418,-7.7818 0.79049,-1.8446 2.01436,-5.3789 2.71971,-7.8539 0.70534,-2.475 2.13843,-5.7504 3.18464,-7.2787 1.04621,-1.5283 2.33351,-4.3408 2.86067,-6.25 0.81775,-2.9617 1.392,-3.4713 3.91146,-3.4713 2.46416,0 2.953,-0.4041 2.953,-2.441 0,-1.3425 0.51563,-2.7596 1.14584,-3.1491 0.82663,-0.5109 0.91687,0.1 0.32394,2.191 -1.21103,4.2716 -1.27338,11.7029 -0.11097,13.2253 0.68357,0.8953 0.68318,1.5452 -0.001,2 -0.55759,0.3706 -1.09368,4.8635 -1.19131,9.9843 -0.11418,5.9885 -0.71071,10.3416 -1.6719,12.2004 -1.0369,2.0051 -1.49438,5.9865 -1.49438,13.0052 0,5.5635 -0.45213,10.9602 -1.00473,11.9927 -1.17955,2.204 -1.38232,9.52338 -0.45047,16.26068 0.51882,3.751 0.2665,5.3525 -1.18166,7.5 -1.6615,2.4638 -1.8766,5.5872 -2.2023,31.9805 -0.35988,29.1625 -0.35468,29.25 1.7391,29.25 1.20005,0 2.10006,0.6428 2.10006,1.5 0,0.825 0.8449,1.5 1.87756,1.5 2.67146,0 4.78667,2.7358 3.28006,4.2424 -0.75496,0.7549 -1.15762,5.563 -1.15762,13.8227 0,11.6198 -0.18571,12.9013 -2.25,15.5264 -2.09784,2.6678 -2.22604,3.6553 -1.89575,14.6021 0.28824,9.5528 0.0686,12.0264 -1.17857,13.2736 -2.20193,2.2019 -59.489224,2.2364 -61.425684,0.037 z m 120.647544,-1.7542 c -0.0564,-1.7875 -0.20163,-8.65 -0.32283,-15.25 -0.2012,-10.9566 -1.18303,-18.3694 -2.99524,-22.614 -0.39545,-0.9263 0.23546,-3.3879 1.48052,-5.7766 1.79265,-3.4393 2.07431,-5.2438 1.6211,-10.3859 -0.30169,-3.4229 -0.8389,-7.3726 -1.19382,-8.777 -0.53492,-2.1167 -0.17816,-2.7663 2.08584,-3.7979 2.14027,-0.9751 2.46732,-1.5044 1.5117,-2.4465 -0.95171,-0.9382 -1.52797,-0.7842 -2.62461,0.7014 -1.27285,1.7243 -1.46537,1.7466 -2.04456,0.2373 -0.35166,-0.9165 -0.0854,-2.3338 0.5917,-3.1496 0.89755,-1.0815 1.04201,-4.0053 0.53321,-10.7917 l -0.69787,-9.3084 3.17378,-3.1029 c 1.74558,-1.7067 5.40909,-4.1572 8.14113,-5.4456 4.41942,-2.0842 4.9007,-2.6184 4.36316,-4.8426 -0.3323,-1.375 -0.86766,-4.6375 -1.18969,-7.25 -0.75429,-6.1192 -2.8087,-6.257 -8.28675,-0.556 l -4.02995,4.1939 -2.88832,-2.7671 c -1.58858,-1.522 -3.69999,-4.6468 -4.69203,-6.944 -0.99204,-2.2972 -5.77053,-10.5181 -10.61886,-18.2687 -4.84833,-7.75048 -8.81515,-14.78288 -8.81515,-15.62748 0,-0.8447 -0.72404,-2.1366 -1.60897,-2.871 -1.77261,-1.4712 -6.95024,-12.2287 -8.00067,-16.623 -0.36638,-1.5326 -0.99873,-3.2366 -1.40523,-3.7866 -1.0842,-1.4669 -2.98513,-13.4352 -2.98513,-18.7944 0,-5.5911 3.22276,-14.6285 6.68308,-18.7408 1.39024,-1.6522 4.59231,-4.214 7.1157,-5.6928 3.71598,-2.1777 5.70472,-2.6577 10.46357,-2.5258 9.69147,0.2686 11.78789,1.9612 8.23788,6.6511 -0.78989,1.0436 -1.1516,2.3578 -0.8038,2.9205 0.3478,0.5628 0.67088,7.038 0.71796,14.3893 0.0521,8.1335 0.49733,13.6454 1.1373,14.0795 0.57843,0.3924 1.70343,2.4594 2.5,4.5934 0.79657,2.134 2.36143,4.4854 3.47745,5.2253 2.01042,1.3329 2.02888,1.1994 2,-14.4703 -0.022,-11.9607 0.30512,-16.2198 1.34224,-17.474 4.30385,-5.2047 -0.39661,-20.4564 -7.06621,-22.9278 -0.93215,-0.3455 -1.97838,-2.1395 -2.32494,-3.9869 -0.63634,-3.392 -3.74282,-6.3201 -5.53197,-5.2143 -0.53372,0.3298 -2.36122,-0.7911 -4.06113,-2.491 -2.42227,-2.4223 -2.84376,-3.3883 -1.94884,-4.4666 0.62804,-0.7568 1.34042,-4.0706 1.58306,-7.3641 0.36048,-4.8931 0.0788,-6.4488 -1.5401,-8.507 -2.4889,-3.1641 -2.48835,-3.1719 0.50506,-7.0964 1.72851,-2.2662 2.85458,-5.6286 3.69464,-11.0321 1.01973,-6.5591 1.55979,-7.9059 3.46002,-8.6284 1.44813,-0.5506 2.68547,-2.3039 3.4672,-4.9131 0.66854,-2.2314 1.81769,-4.5568 2.55368,-5.1676 0.73598,-0.6108 1.33815,-2.1107 1.33815,-3.3331 0,-1.2224 0.9,-3.0371 2,-4.0326 1.1,-0.9955 2,-2.3601 2,-3.03251 0,-0.67242 0.675,-1.78277 1.5,-2.46746 0.825,-0.68469 1.5,-1.92569 1.5,-2.75777 0,-1.62177 4.4793,-6.24223 6.05152,-6.24223 0.52166,0 0.94848,-1.05526 0.94848,-2.34501 0,-1.28976 0.95837,-3.20226 2.12971,-4.25 2.79287,-2.49818 6.87029,-8.95834 6.87029,-10.88512 0,-0.83593 0.66344,-1.51987 1.47432,-1.51987 0.81088,0 2.1811,-1.36676 3.04493,-3.03723 l 1.57062,-3.03724 2.50378,1.96948 c 1.37708,1.08321 3.66678,3.68746 5.08822,5.78723 1.42145,2.09977 3.5743,4.73905 4.78411,5.86508 6.13486,5.70995 11.42763,22.58543 14.49734,46.22335 0.5193,3.9989 1.14044,7.5989 1.3803,8 0.23986,0.4011 1.45821,9.0543 2.70745,19.2293 2.76093,22.4877 3.18627,23.3938 10.68858,22.7717 4.87294,-0.4041 5.48348,-0.2239 6.6253,1.9553 0.69175,1.3203 2.35512,2.9455 3.69638,3.6118 3.64214,1.809 3.64151,5.0817 -0.001,7.7751 -3.9557,2.9246 -3.85921,5.2046 0.44242,10.4542 3.663,4.4702 8.73143,6.5982 10.79659,4.5331 0.60514,-0.6057 2.13566,-1.1012 3.40066,-1.1012 1.56893,0 2.3,-0.5864 2.3,-1.845 0,-1.0148 0.9,-2.6595 2,-3.655 1.1,-0.9955 2,-2.9074 2,-4.2486 0,-1.5976 -0.68973,-2.619 -2,-2.9616 -2.10632,-0.5509 -2.28523,-0.9793 -2.41751,-5.7898 -0.0819,-2.9793 -0.56534,-3.2391 -3.73138,-2.0059 -1.35539,0.528 -1.74314,-0.2153 -2.17844,-4.1759 -0.88548,-8.0567 -1.83244,-11.3182 -3.28617,-11.3182 -0.94672,0 -1.3865,-1.2461 -1.3865,-3.9286 0,-3.7669 -1.52793,-6.4094 -4.23214,-7.3195 -0.94761,-0.3189 -0.98623,-0.7835 -0.15291,-1.8393 1.77244,-2.2456 2.30987,-9.2949 0.85981,-11.278 -0.81303,-1.1119 -1.52262,-1.3662 -1.93778,-0.6944 -0.36026,0.5829 -1.07846,1.0598 -1.596,1.0598 -1.55333,0 -1.06296,-2.1869 0.80902,-3.6079 0.9625,-0.7307 1.21964,-1.3428 0.57143,-1.3603 -2.30782,-0.062 -4.32197,-3.2305 -4.35687,-6.8532 -0.0195,-2.0232 -0.67854,-4.8036 -1.46456,-6.1786 -0.78602,-1.375 -1.45508,-4.075 -1.4868,-6 -0.0317,-1.925 -0.93766,-4.625 -2.0132,-6 -1.42017,-1.8156 -1.96162,-4.0877 -1.97776,-8.2996 -0.0216,-5.62036 -1.61832,-10.32033 -4.70443,-13.84718 -0.79256,-0.90575 -1.70261,-4.18144 -2.02234,-7.27932 -0.31973,-3.09788 -0.96701,-5.87087 -1.4384,-6.1622 -0.47139,-0.29134 -0.85707,-1.61777 -0.85707,-2.94763 0,-1.48879 -0.98067,-3.0605 -2.55203,-4.09009 -3.58333,-2.34789 -3.09318,-6.74218 0.80203,-7.19037 1.5125,-0.17403 2.75,-0.73653 2.75,-1.25 0,-0.51347 2.8125,-0.97844 6.25,-1.03326 4.64485,-0.0741 5.60794,-0.3053 3.75,-0.90032 -1.375,-0.44035 -4.1875,-0.8455 -6.25,-0.90032 l -3.75,-0.0997 v -6.5 -6.5 h 8 c 4.66667,0 8,-0.41667 8,-1 0,-0.55 -1.8,-1 -4,-1 -3.77778,0 -4,-0.16667 -4,-3 0,-2.83333 0.22222,-3 4,-3 3.90476,0 4,-0.0833 4,-3.5 0,-3.41667 0.0952,-3.5 4,-3.5 2.88889,0 4,-0.41667 4,-1.5 0,-1.08333 -1.11111,-1.5 -4,-1.5 -3.77778,0 -4,-0.16667 -4,-3 v -3 h 6 c 3.33333,0 6,-0.44444 6,-1 0,-0.59361 -3.70833,-1 -9.125,-1 h -9.125 l 0.59225,-2.96123 c 0.32573,-1.62867 0.14964,-3.23477 -0.39132,-3.56909 -1.71579,-1.06042 0.0578,-2.46968 3.10809,-2.46968 2.92403,0 2.94098,-0.0342 2.94098,-5.93045 0,-5.38875 -0.20552,-5.95964 -2.25,-6.25 -1.91284,-0.27167 -2.20596,-0.84402 -1.95612,-3.81955 0.16164,-1.925 0.77985,-4.7402 1.37381,-6.25599 0.59395,-1.5158 0.81045,-4.1033 0.48111,-5.75 -0.32934,-1.64671 -0.2163,-2.99401 0.2512,-2.99401 0.4675,0 1.10735,-1.2375 1.42189,-2.75 0.34753,-1.67113 1.76968,-3.41831 3.625,-4.45349 2.02003,-1.12708 3.05453,-2.48056 3.0573,-4 0.006,-3.02298 4.36556,-11.52924 7.68601,-14.99504 1.44914,-1.51257 2.7629,-3.99919 2.91946,-5.5258 0.15656,-1.52662 0.58723,-4.35067 0.95705,-6.27567 0.57671,-3.0019 0.7877,-3.21537 1.48256,-1.5 0.6289,1.55253 0.82588,1.14321 0.88044,-1.82944 0.0765,-4.16869 4.7329,-16.92636 6.41188,-17.56738 2.77585,-1.05981 6.65841,-6.74085 6.65841,-9.74271 0,-1.75659 0.56066,-3.38069 1.24592,-3.60911 0.71191,-0.2373 1.67627,-3.59159 2.25,-7.82608 0.79882,-5.89585 1.37516,-7.48092 2.81934,-7.75392 2.62626,-0.49645 8.62175,-7.20132 9.33311,-10.4374 0.48481,-2.20542 0.88608,-2.53529 1.97984,-1.62756 1.58472,1.3152 4.37179,-0.40629 4.37179,-2.70033 0,-2.45633 4.67454,-11.87347 6.85562,-13.81106 2.84686,-2.52904 2.93074,-8.10379 0.14438,-9.59501 -1.40317,-0.75095 -2,-2.09382 -2,-4.5 0,-2.40618 -0.59683,-3.74905 -2,-4.5 -4.56623,-2.44377 -0.85285,-9 5.09751,-9 4.89893,0 8.90249,-1.22084 8.90249,-2.71471 0,-0.80559 1.0125,-2.30937 2.25,-3.34173 l 2.25,-1.87702 -2.25,-0.0333 c -1.99507,-0.0295 -2.25,-0.5431 -2.25,-4.53324 v -4.5 h -6 -6 v 4 4 h -4.86514 c -3.29907,0 -5.65822,-0.62384 -7.32892,-1.93801 -4.56281,-3.5891 -7.39829,-3.62349 -10.88972,-0.13206 -2.10065,2.10065 -3.51038,2.82559 -4.27517,2.19847 -0.62758,-0.51461 -3.63964,-1.24476 -6.69347,-1.62256 -6.30437,-0.77994 -8.65877,0.67803 -7.41634,4.59258 0.61276,1.93064 0.41235,2.11834 -1.66739,1.56164 -1.30012,-0.34801 -3.82635,-0.6389 -5.61385,-0.64641 -3.16822,-0.0133 -3.25,-0.12348 -3.25,-4.37879 0,-6.18992 2.88635,-9.63486 8.07258,-9.63486 2.16008,0 3.92742,0.45 3.92742,1 0,0.55 0.95625,1 2.125,1 1.83761,0 2.04213,-0.41435 1.51224,-3.06382 -0.97676,-4.88377 2.36179,-10.32407 7.68726,-12.5267 l 4.40108,-1.82031 0.99277,-7.54458 c 0.58578,-4.45171 0.62901,-8.25937 0.10545,-9.28819 -0.48803,-0.95898 -2.91622,-2.25448 -5.39599,-2.8789 -3.70783,-0.93364 -4.75887,-1.73408 -5.91722,-4.5064 -0.79651,-1.9063 -2.12897,-3.3711 -3.06655,-3.3711 -1.06295,0 -1.45143,-0.53835 -1.08241,-1.5 0.31658,-0.825 0.13972,-1.5 -0.39301,-1.5 -1.48956,0 -1.21974,-12.74197 0.28138,-13.2881 0.99549,-0.36217 0.99042,-0.83725 -0.0249,-2.33333 -0.7012,-1.03321 -2.18211,-3.78509 -3.29092,-6.11528 -2.23606,-4.69916 -4.41091,-6.27415 -8.61844,-6.24133 -3.61363,0.0282 -10.27038,3.08258 -12.72073,5.83681 -1.04774,1.17768 -2.51024,2.14123 -3.25,2.14123 -0.82547,0 -1.34501,1.1499 -1.34501,2.97695 0,2.02451 -0.75476,3.47148 -2.3591,4.52268 -2.52052,1.65151 -5.6409,1.10851 -5.6409,-0.98162 0,-1.31401 -4.26936,-2.51801 -8.92883,-2.51801 -3.44346,0 -9.07117,-5.64411 -9.07117,-9.09761 0,-1.37631 -0.43513,-2.93752 -0.96695,-3.46934 -1.86382,-1.86382 -1.44369,-11.70398 0.6804,-15.93626 2.39556,-4.77318 4.05517,-23.90373 2.17452,-25.06603 -1.19343,-0.73758 -0.73113,-7.85363 0.97,-14.93076 0.52882,-2.2 1.51204,-6.7 2.18495,-10 0.6729,-3.3 2.24027,-8.025 3.48305,-10.5 1.24277,-2.475 2.59195,-6.075 2.99817,-8 0.40622,-1.925 2.02947,-4.82293 3.60722,-6.43984 1.57775,-1.61691 2.86864,-3.69563 2.86864,-4.61937 0,-2.07525 7.72783,-11.94079 9.3534,-11.94079 1.32669,0 9.65315,-6.32285 13.96941,-10.60793 5.09726,-5.06043 8.2517,-6.39207 15.14176,-6.39207 4.47734,0 8.62509,-0.81067 13.72583,-2.68268 4.02028,-1.47548 9.3346,-2.79182 11.8096,-2.92521 11.70062,-0.63058 16.80976,-1.78324 24.69135,-5.57052 7.07695,-3.40063 8.34592,-4.4045 9.32755,-7.37886 0.62491,-1.8935 1.51531,-3.44273 1.97865,-3.44273 1.68881,0 12.78472,-11.99637 13.41364,-14.50219 0.77002,-3.068 6.36339,-8.42703 8.83881,-8.4685 1.36458,-0.0229 1.75,-0.89413 1.75,-3.95607 0,-3.33921 0.43657,-4.14455 2.9177,-5.3823 2.13036,-1.06276 3.21595,-1.15729 4.02295,-0.35029 0.60788,0.60788 2.67078,0.97037 4.58422,0.80551 2.52472,-0.21751 3.65584,0.16119 4.1238,1.38068 0.51526,1.34274 0.90411,1.06376 1.93516,-1.38837 0.79538,-1.89166 2.27341,-3.31552 3.85324,-3.71203 1.85684,-0.46604 2.56293,-1.30215 2.56293,-3.03485 0,-1.72492 0.55751,-2.39159 2,-2.39159 1.4949,0 2,-0.66667 2,-2.63976 0,-1.45186 0.66798,-3.13936 1.48439,-3.75 2.358,-1.76365 0.77132,-5.6091 -2.59193,-6.28175 -1.56618,-0.31323 -3.3628,-1.19029 -3.99248,-1.949 -0.62968,-0.75872 -2.91022,-1.37949 -5.06788,-1.37949 -4.16906,0 -8.8321,-3.40778 -8.8321,-6.45455 0,-1.23543 -1.30392,-1.54545 -6.5,-1.54545 -5.83333,0 -6.5,-0.20513 -6.5,-2 0,-1.33333 -0.66667,-2 -2,-2 -1.88744,0 -2,-0.66667 -2,-11.84501 0,-10.57502 0.21443,-12.03908 2,-13.65499 1.1,-0.99549 2,-2.86523 2,-4.15499 0,-2.06918 0.4705,-2.34501 4,-2.34501 h 4 v -5.5 -5.5 h -4 c -3.55231,0 -4,-0.26783 -4,-2.39301 0,-2.54277 1.64687,-3.60699 5.58179,-3.60699 1.35901,0 2.41821,-0.58913 2.41821,-1.34501 0,-0.73976 0.91587,-2.17387 2.03527,-3.18691 1.11939,-1.01304 1.82114,-2.39988 1.55944,-3.08187 -0.26171,-0.68199 0.17242,-1.77798 0.96473,-2.43554 0.79231,-0.65756 1.44056,-2.42071 1.44056,-3.91813 0,-2.73324 2.64092,-6.03254 4.82874,-6.03254 0.64419,0 1.17126,-0.68465 1.17126,-1.52144 0,-0.83679 1.2375,-2.06736 2.75,-2.7346 1.5125,-0.66724 3.33802,-2.0076 4.0567,-2.97856 1.41808,-1.91586 9.1933,-2.5632 9.1933,-0.7654 0,1.44842 3.74686,1.23067 4.30191,-0.25 0.32415,-0.86469 0.93848,-0.6376 1.99302,0.73672 1.45153,1.89172 1.61621,1.90368 3.44349,0.25 1.05548,-0.95519 3.05138,-1.73672 4.43533,-1.73672 3.56937,0 6.0354,-3.10709 5.64658,-7.11445 -0.2901,-2.99001 -0.734,-3.4017 -4.70447,-4.36316 l -4.38414,-1.06163 4.57178,-3.74623 c 2.51449,-2.06043 4.86503,-4.67016 5.22344,-5.7994 0.6239,-1.96576 0.71034,-1.97573 2.03055,-0.23415 0.76289,1.00639 1.39311,4.22025 1.41071,7.19402 l 0.0318,5.375 3.125,-0.625 c 1.71875,-0.34375 4.41875,-0.625 6,-0.625 1.58125,0 2.875,-0.45 2.875,-1 0,-0.55 -1.8,-1 -4,-1 -3.6,0 -4,-0.25 -4,-2.5 0,-1.55556 -0.56667,-2.5 -1.5,-2.5 -2.04972,0 -1.88353,-2.2427 0.37937,-5.11952 1.03366,-1.31408 2.05122,-3.28726 2.26126,-4.38486 0.34152,-1.78472 1.30315,-2.02612 9.09919,-2.28424 8.55422,-0.28322 8.76448,-0.35047 11.23875,-3.59439 2.43017,-3.18612 2.52143,-3.83622 2.52143,-17.96138 v -14.65561 l -4.25,-0.0216 c -3.80373,-0.0194 -4.40751,-0.36064 -5.75,-3.25 -0.84938,-1.82806 -2.85493,-3.8253 -4.62377,-4.60459 -1.78167,-0.78494 -3.71506,-2.71833 -4.5,-4.5 -0.93828,-2.129708 -2.17179,-3.209588 -3.87623,-3.393458 -7.17794,-0.77434 -9.00146,-1.38472 -9.03914,-3.02562 -0.0222,-0.96644 -0.62364,-0.36203 -1.3888,1.39565 -1.46876,3.37393 -3.22461,4.399658 -7.5314,4.399658 -1.53768,0 -3.37964,0.70351 -4.09325,1.56337 -1.14725,1.38234 -1.5834,1.19802 -3.76684,-1.59189 -2.28004,-2.913348 -2.79649,-3.106198 -6.7363,-2.515388 -5.13758,0.77042 -6.11174,-0.33782 -3.36566,-3.8289 2.06099,-2.62016 1.87155,-4.62723 -0.43674,-4.62723 -1.75575,0 -3.80854,6.28043 -3.80854,11.652098 0,4.42184 -0.0746,4.53125 -2.66666,3.90834 -3.70893,-0.89132 -4.42307,-0.89977 -6.40824,-0.0758 -2.34543,0.97351 -3.40067,-1.9161 -1.79521,-4.91592 1.007,-1.881588 0.94069,-2.853858 -0.36712,-5.382878 -0.87786,-1.69759 -1.61041,-4.79637 -1.6279,-6.88618 -0.0175,-2.08981 -0.6925,-4.67317 -1.5,-5.74079 -0.80751,-1.06762 -1.4682,-2.89411 -1.4682,-4.05887 0,-1.16476 -0.63779,-2.98997 -1.41732,-4.05604 -1.06679,-1.45892 -1.13795,-2.2749 -0.28774,-3.29934 0.86937,-1.04753 0.67756,-1.69142 -0.83269,-2.79529 -1.56448,-1.14351 -1.98205,-2.69968 -2.05992,-7.67669 -0.0969,-6.18992 -2.92308,-15.72263 -5.93722,-20.02592 -0.80581,-1.15045 -1.46511,-3.14618 -1.46511,-4.43496 0,-1.28878 -0.46583,-3.21366 -1.03518,-4.2775 -0.92939,-1.73658 -0.68667,-1.93426 2.375,-1.93426 2.97003,0 3.48572,0.37771 3.99546,2.9264 0.3219,1.60952 1.46383,4.87202 2.53761,7.25 1.07378,2.37798 2.47655,6.0111 3.11727,8.0736 0.64072,2.0625 1.40513,3.75 1.69868,3.75 0.90421,0 -0.71736,-6.98863 -3.63873,-15.68219 l -2.78559,-8.28952 2.61774,0.62017 c 4.21946,0.99962 6.09924,3.19406 5.46264,6.37704 -0.60768,3.03842 2.21156,8.9745 4.2623,8.9745 0.64679,0 1.45834,1.125 1.80344,2.5 0.34511,1.375 1.06889,2.5 1.60841,2.5 0.53952,0 0.98095,0.71124 0.98095,1.58053 0,2.28496 7.02093,12.52457 8.12133,11.84449 0.51032,-0.3154 0.64616,-2.69708 0.30185,-5.29262 -0.48529,-3.65829 -0.26602,-5.01794 0.9754,-6.04823 2.50231,-2.07673 2.24609,-3.80257 -2.03911,-13.7353 -0.74771,-1.73312 -1.36115,-3.75812 -1.36321,-4.5 -0.002,-0.74187 -0.9263,-2.86212 -2.05389,-4.71165 -1.12758,-1.84953 -1.88061,-3.53231 -1.67341,-3.73951 0.57057,-0.57057 5.7143,1.99292 5.72324,2.85229 0.0115,1.10984 3.84927,4.75 5.0078,4.75 1.27325,0 1.28086,-3.53388 0.0171,-7.94037 -1.16681,-4.06842 -0.70466,-4.89004 1.50671,-2.67867 0.89048,0.89047 2.24085,1.61904 3.00082,1.61904 1.22057,0 5.47537,7.86071 5.47537,10.11569 0,1.0739 3.20723,4.88431 4.11113,4.88431 0.36666,0 0.64576,-0.5625 0.62022,-1.25 -0.0255,-0.6875 0.0394,-3.275 0.14439,-5.75 l 0.1908,-4.5 1.96673,2.36079 c 1.0817,1.29843 1.96673,2.98593 1.96673,3.75 0,1.69608 1.68062,1.84735 2.22952,0.20066 0.44799,-1.34397 -0.58827,-8.28673 -1.68832,-11.31145 -0.60739,-1.6701 -0.40475,-1.60513 1.2285,0.39382 2.34566,2.87089 4.31712,2.02783 3.97643,-1.70044 -0.4059,-4.44173 1.59746,-3.84582 4.15888,1.23709 2.61948,5.19813 3.09236,14.30384 0.8193,15.77639 -1.53232,0.99268 0.98923,2.93252 3.27569,2.52002 1.73152,-0.31238 1.86761,-3.80402 0.64564,-16.56491 -0.72749,-7.59709 -0.64539,-8.308 0.92392,-8 1.847,0.3625 7.76827,15.08652 8.93509,22.21829 0.4691,2.86715 0.92767,3.58743 1.75638,2.75871 1.12331,-1.1233 -0.0217,-7.97464 -2.37003,-14.18183 -0.69847,-1.84618 -0.53767,-3.55852 0.5869,-6.25 1.74501,-4.17639 2.14485,-4.35852 4.63035,-2.10918 1.93132,1.74783 4.33044,0.98763 3.52307,-1.11635 -0.27777,-0.72385 0.10662,-1.5508 0.8542,-1.83768 0.81203,-0.3116 1.14224,-1.35138 0.82023,-2.58275 -0.75578,-2.8901096 0.39817,-2.5664896 3.3477,0.93882 3.38962,4.02833 5.80222,4.02833 4.99655,0 -0.33846,-1.6923 -0.175,-2.9999996 0.375,-2.9999996 0.53625,0 0.975,0.8099996 0.975,1.7999996 0,2.46116 1.94111,4.2 4.68857,4.2 2.85437,0 6.31143,2.86046 6.31143,5.22224 0,0.97777 0.45,1.77776 1,1.77776 1.4494,0 1.23028,-3.75109 -0.25,-4.27976 -2.17483,-0.77672 0.18028,-2.12024 3.71667,-2.12024 1.87,0 3.3175,-0.44824 3.21666,-0.9961 -0.111,-0.6031 4.6497,-1.12416 12.06667,-1.32069 l 12.25,-0.32459 v 3.32069 c 0,4.19003 1.52177,5.72069 5.68746,5.72069 2.75773,0 3.7018,0.65638 5.85895,4.07352 2.10824,3.33967 2.8311,3.85806 4.01254,2.87756 0.79258,-0.65778 1.44105,-2.04087 1.44105,-3.07352 0,-1.03266 0.45,-1.87756 1,-1.87756 0.55,0 1,-0.9 1,-2 0,-1.1 0.41786,-2 0.92857,-2 1.75719,0 4.07143,3.14687 4.07143,5.53625 0,2.7742 2.58415,4.46375 6.82727,4.46375 3.31622,0 3.73861,0.69077 4.66085,7.62215 0.7021,5.27683 2.32948,9.37785 3.72135,9.37785 0.47933,0 2.14932,-0.94472 3.71108,-2.09938 2.37163,-1.75342 3.20301,-1.90486 5.04515,-0.91898 2.77407,1.48464 3.83242,0.526 2.23797,-2.02711 -0.77256,-1.23708 -0.83892,-1.95453 -0.18076,-1.95453 0.57192,0 1.28451,0.63756 1.58353,1.41679 0.69149,1.80199 7.86135,6.58321 9.87212,6.58321 0.83679,0 1.52144,-0.65159 1.52144,-1.44798 0,-1.19888 0.5591,-1.25347 3.25,-0.31733 3.87526,1.34818 5.75,3.04709 5.75,5.21071 0,1.67761 8.67854,10.5546 10.31866,10.5546 0.52847,0 1.50197,0.74002 2.16333,1.64448 1.44302,1.97345 7.96864,2.56295 11.34448,1.02482 1.87991,-0.85655 2.63701,-0.77459 3.53308,0.38247 1.78592,2.3061 6.77419,4.21449 7.94797,3.04071 1.14085,-1.14085 5.64649,2.56934 5.6752,4.67327 0.0481,3.52104 2.63502,9.23425 4.1813,9.23425 1.05135,0 1.92359,1.12242 2.33781,3.00832 0.87173,3.96899 4.09362,5.84167 5.02136,2.91861 0.41528,-1.30843 1.20693,-1.86074 2.14894,-1.49925 0.82029,0.31478 1.89898,0.57232 2.39709,0.57232 0.4981,0 2.47745,3.12121 4.39856,6.93602 2.32418,4.61521 4.41965,7.385778 6.26257,8.280208 2.52221,1.2241 2.74061,1.7592 2.44457,5.98943 -0.51035,7.29263 3.01948,12.22792 8.01724,11.20946 2.48039,-0.50547 2.73856,-0.24839 3.28194,3.26813 1.12201,7.26124 1.93176,8.61263 6.7482,11.26193 2.59726,1.42864 8.13813,5.73792 12.31303,9.57617 4.1749,3.83826 10.82487,8.69461 14.7777,10.7919 3.95283,2.09728 8.31197,5.0045 9.68697,6.46047 2.06992,2.19182 2.10886,2.32263 0.22637,0.76039 -3.42225,-2.84007 -4.62746,-0.82109 -2.49316,4.17657 1.19066,2.78804 3.11015,4.91731 6.01404,6.67133 2.48454,1.50071 4.96618,4.0462 5.9442,6.09714 1.41591,2.9692 2.19205,3.52085 4.95362,3.52085 3.00589,0 3.36881,0.34881 4.42197,4.25 0.63102,2.3375 2.42801,7.625 3.9933,11.75 1.56529,4.125 3.77964,12.675 4.92078,19 1.14113,6.325 2.47299,13.3 2.95967,15.5 0.48668,2.2 0.64921,12.55 0.36116,23 -0.42347,15.36318 -0.21537,20.30391 1.08717,25.81205 1.02268,4.32467 1.63992,11.62756 1.6904,20 0.0437,7.25337 0.50432,17.01295 1.02353,21.68795 0.51922,4.675 1.35728,13.225 1.86238,19 0.50509,5.775 1.5839,12.75 2.39734,15.5 1.8135,6.13093 4.72689,15.50355 7.9808,25.67492 1.35039,4.22121 2.78051,9.62121 3.17802,12 l 0.72276,4.32508 -2.12217,-1.90499 c -1.1672,-1.04774 -2.12218,-3.11024 -2.12218,-4.58333 0,-1.47309 -0.30534,-2.98369 -0.67853,-3.35688 -0.37319,-0.37319 -0.71069,-2.36069 -0.75,-4.41666 -0.0583,-3.04765 -0.4409,-3.73814 -2.07147,-3.73814 -2.38989,0 -3.28561,3.84847 -1.41915,6.09742 0.93497,1.12657 0.95359,1.76814 0.0768,2.64496 -1.62585,1.62585 -1.44285,5.71094 0.28554,6.37418 2.26472,0.86906 1.20049,10.59384 -1.56931,14.34019 -2.55374,3.45413 -2.82606,11.03289 -0.69549,19.35619 0.95562,3.73323 0.96449,5.19141 0.0395,6.5 -3.6099,5.10718 -4.34982,7.36989 -3.34889,10.24114 0.7788,2.23406 0.54054,4.42139 -1.05297,9.66667 -1.82008,5.99104 -3.64675,12.35133 -6.973,24.27925 -2.04438,7.33114 -2.92763,11.75554 -3.89281,19.5 -0.54837,4.4 -1.70077,12.05 -2.56089,17 -1.11395,6.41076 -1.56753,15.72847 -1.5766,32.38764 -0.008,15.02782 -0.4238,24.55827 -1.16274,26.66262 l -1.15,3.27498 -4,-1.39757 c -2.2,-0.76865 -4.73936,-1.40433 -5.64301,-1.41261 -3.90023,-0.0357 -3.78654,7.28995 0.29002,18.68682 3.18399,8.90151 3.32078,10.23591 2.33716,22.79812 -0.30146,3.85 -1.43636,20.05 -2.522,36 -2.05954,30.25822 -2.79747,36.49184 -6.57003,55.5 -2.15873,10.8768 -7.08226,26.61251 -10.73573,34.31163 -0.91102,1.91985 -1.65641,4.21012 -1.65641,5.0895 0,0.87938 -0.45,1.59887 -1,1.59887 -0.55,0 -1,0.8449 -1,1.87756 0,1.03265 -0.66566,2.43 -1.47925,3.10522 -1.87214,1.55374 -4.52075,6.80957 -4.52075,8.97086 0,0.9055 -0.45418,2.10054 -1.00929,2.65565 -0.67906,0.67906 -0.65679,5.24342 0.0681,13.95 1.816,21.81271 1.47013,20.50951 6.97502,26.28106 2.73141,2.86372 4.9662,6.09616 4.9662,7.18321 0,1.09017 0.67263,1.97644 1.5,1.97644 0.825,0 1.5,0.87344 1.5,1.94098 0,1.06754 0.45,2.2191 1,2.55902 1.24876,0.77178 1.31688,4.21697 0.0923,4.66667 -0.49925,0.18333 -1.06175,1.89682 -1.25,3.80775 -0.30662,3.11267 -0.0299,3.5694 2.65774,4.38657 1.65,0.5018 5.04122,1.7219 7.53605,2.7114 2.49482,0.9895 7.55732,2.3558 11.25,3.0362 3.69267,0.6804 6.71395,1.6093 6.71395,2.0643 0,0.4549 0.9,0.8271 2,0.8271 1.1,0 2,0.45 2,1 0,0.55 0.9,1 2,1 1.1,0 2.00169,0.3375 2.00375,0.75 0.002,0.4125 2.0661,1.5982 4.58676,2.6349 2.52066,1.0368 5.4095,2.7721 6.41966,3.8564 1.01016,1.0843 2.26854,1.7045 2.7964,1.3783 0.79161,-0.4893 12.10541,4.7446 15.69343,7.26 0.55,0.3855 3.475,1.4542 6.5,2.3749 17.21395,5.2389 22.42539,6.7455 23.33253,6.7455 0.55549,0 1.72042,0.5791 2.58873,1.287 1.42702,1.1632 4.11639,2.1157 20.49803,7.2596 2.70561,0.8495 5.40561,1.8547 6,2.2337 0.59439,0.379 1.30571,0.7469 1.58071,0.8176 2.39029,0.6143 7,2.9991 7,3.6213 0,0.4295 1.45851,0.7808 3.24114,0.7808 1.78263,0 6.42507,1.5732 10.31654,3.496 3.89146,1.9228 8.28295,3.596 9.75885,3.7181 l 2.68347,0.2221 v 124.78188 124.7819 h -306.5 c -203.66667,0 -306.5,-0.3355 -306.5,-1 0,-0.55 -0.59656,-1 -1.32569,-1 -0.72912,0 -2.38256,-1.125 -3.67431,-2.5 -1.29175,-1.375 -3.37935,-2.5 -4.63913,-2.5 -1.25978,0 -2.75288,-0.864 -3.31801,-1.9199 -0.56513,-1.056 -2.63387,-2.4501 -4.5972,-3.098 -3.71961,-1.2276 -5.44566,-3.9641 -5.44566,-8.6337 0,-2.8983 -6.3416,-12.3746 -6.78902,-10.1449 -0.34981,1.7432 5.23572,23.8941 6.72838,26.6832 2.13028,3.9806 1.61591,4.1133 -15.93942,4.1133 h -17 z m 24.10246,-37.691 c 0,-0.5175 -0.45,-1.2191 -1,-1.559 -0.55,-0.3399 -1,0.083 -1,0.941 0,0.8574 0.45,1.559 1,1.559 0.55,0 1,-0.4234 1,-0.941 z M 193.42674,988.00632 c -0.7251,-2.2846 -2.52392,-2.8372 -2.52392,-0.7754 0,1.4233 2.12007,3.9133 2.77464,3.2587 0.22438,-0.2244 0.11156,-1.3419 -0.25072,-2.4833 z m -19.52392,-89.9936 c 0,-2.6127 -1.02374,-5.0818 -2.10699,-5.0818 -0.49115,0 -0.89301,1.575 -0.89301,3.5 0,2.4444 0.45238,3.5 1.5,3.5 0.825,0 1.5,-0.8632 1.5,-1.9182 z m 518,-65.08177 c 0,-0.55 -0.47656,-1 -1.05902,-1 -0.58246,0 -0.7809,0.45 -0.44098,1 0.33992,0.55 0.81648,1 1.05902,1 0.24254,0 0.44098,-0.45 0.44098,-1 z m -3.31445,-8.17431 c 2.57317,-2.41737 3.08177,-6.59401 0.90471,-7.42943 -2.03823,-0.78214 -7.59026,2.36367 -7.59026,4.30068 0,1.56219 2.70918,5.30306 3.84054,5.30306 0.29181,0 1.57206,-0.97844 2.84501,-2.17431 z M 252.15282,800.22522 c -1.2375,-0.23836 -3.2625,-0.23836 -4.5,0 -1.2375,0.23835 -0.225,0.43337 2.25,0.43337 2.475,0 3.4875,-0.19502 2.25,-0.43337 z m 11.55,-13.49427 c 1.73486,-1.73486 1.47513,-4.24104 -0.63769,-6.15311 -1.7202,-1.55676 -1.95386,-1.5347 -3.65498,0.34501 -0.99952,1.10446 -2.64756,2.0081 -3.66232,2.0081 -1.01475,0 -1.84501,0.45 -1.84501,1 0,0.55 0.8449,1 1.87756,1 1.03265,0 2.43775,0.675 3.12244,1.5 1.50289,1.81088 3.18405,1.91595 4.8,0.3 z m 6.2,-42.8 c 0,-0.55 -0.39375,-1 -0.875,-1 -0.48125,0 -2.28125,-0.28125 -4,-0.625 -2.47436,-0.49487 -3.125,-0.28667 -3.125,1 0,1.22917 0.97436,1.625 4,1.625 2.2,0 4,-0.45 4,-1 z m -6.8962,-30.2962 c -1.28349,-1.28349 -2.58505,-0.2915 -1.63484,1.24598 0.36808,0.59556 1.12735,0.79971 1.68727,0.45366 0.683,-0.42212 0.66575,-0.98146 -0.0524,-1.69964 z m 16.31441,-30.31079 c 2.17306,-0.83388 1.98317,-2.05478 -0.41721,-2.6825 -2.15552,-0.56368 -3.50236,0.66926 -2.501,2.28949 0.72497,1.17302 0.84382,1.18903 2.91821,0.39301 z m 108.00234,-93.14301 c 0.84133,-1.5125 1.7929,-3.4401 2.1146,-4.28356 0.3217,-0.84346 2.68585,-2.64346 5.25366,-4 2.5678,-1.35654 6.35209,-4.01033 8.40951,-5.8973 4.52874,-4.15354 14.37061,-8.37919 17.63049,-7.56974 1.79045,0.44459 3.20399,-0.29762 6.11454,-3.21057 2.13659,-2.13833 4.53059,-3.64174 5.49559,-3.45118 0.94043,0.18571 2.46389,-0.32356 3.38546,-1.13172 0.92158,-0.80815 2.6397,-1.76256 3.81805,-2.1209 1.17835,-0.35835 2.71846,-2.04213 3.42246,-3.74174 0.70401,-1.69962 3.2274,-5.01006 5.60755,-7.35653 2.91933,-2.87804 4.32754,-5.11993 4.32754,-6.88954 0,-2.11844 0.86592,-3.04391 4.5,-4.80948 l 4.5,-2.18627 v -5.80074 c 0,-4.2887 -0.36274,-5.80073 -1.39159,-5.80073 -2.16662,0 -2.67958,-3.95968 -2.4328,-18.77941 0.44068,-26.46383 0.26716,-29.12038 -2.06414,-31.60194 -1.62114,-1.72562 -2.11147,-3.52691 -2.11147,-7.75674 v -5.50918 l -3.75,-0.92636 c -3.18147,-0.78593 -3.79592,-1.3812 -4.05291,-3.92637 -0.1666,-1.65 -1.1791,-4.9076 -2.25,-7.2391 -1.0709,-2.33151 -1.94709,-5.31391 -1.94709,-6.62756 0,-1.31365 -0.72188,-2.98756 -1.60418,-3.7198 -0.88229,-0.73224 -2.00054,-2.37387 -2.48499,-3.64807 -1.33298,-3.506 -3.97799,-4.05611 -5.83854,-1.21429 -0.86476,1.32085 -2.89629,3.92011 -4.51452,5.77614 -1.88236,2.15896 -3.20294,5.04931 -3.66596,8.02363 -0.74852,4.80834 -3.06111,12.28395 -5.51968,17.84273 -0.77688,1.75652 -1.69565,8.14227 -2.04171,14.19056 -0.62433,10.91184 -0.65124,11.00601 -3.47981,12.17764 -2.17497,0.9009 -2.85061,1.84487 -2.85061,3.98272 0,3.0886 -4.00711,8.50549 -6.99289,9.45314 -1.23527,0.39206 -1.69066,1.16335 -1.29525,2.19375 0.53853,1.40339 0.7663,1.37507 1.94897,-0.24232 1.20106,-1.64255 1.33578,-1.42496 1.30628,2.1097 -0.027,3.23168 -0.74263,4.65187 -3.97556,7.8894 -3.53112,3.53614 -3.78864,4.11846 -2.46711,5.57874 0.81156,0.89676 1.47556,3.50754 1.47556,5.80173 0,3.96807 -0.14614,4.17126 -3,4.17126 h -3 v -6.5 c 0,-5.83333 -0.20513,-6.5 -2,-6.5 -1.60687,0 -2,0.66667 -2,3.39159 0,2.78371 -0.44808,3.50406 -2.5,4.01905 -1.375,0.34511 -2.5,1.06032 -2.5,1.58936 0,0.52904 1.125,1.24425 2.5,1.58936 1.375,0.3451 2.5,1.25367 2.5,2.01905 0,0.95686 1.2496,1.39159 4,1.39159 3.6,0 4,0.25 4,2.5 0,1.46695 -0.57405,2.5 -1.38922,2.5 -3.47139,0 -5.93465,3.63359 -6.66555,9.83244 -0.41479,3.51782 -1.89004,8.37535 -3.44929,11.35736 -3.2287,6.17477 -3.91237,10.11264 -3.96018,22.8102 -0.0486,12.91047 1.54493,16.25426 4.88479,10.25 z m -10.42055,-52.25 c 0,-0.55 -0.45,-1 -1,-1 -0.55,0 -1,0.45 -1,1 0,0.55 0.45,1 1,1 0.55,0 1,-0.45 1,-1 z m 343.5,-56 c 0,-0.73333 -0.5625,-1.52083 -1.25,-1.75 -0.74359,-0.24786 -1.25,0.46111 -1.25,1.75 0,1.28889 0.50641,1.99786 1.25,1.75 0.6875,-0.22917 1.25,-1.01667 1.25,-1.75 z m -467.5,-34 c 1.1,-1.1 2,-2.49754 2,-3.10564 0,-0.60811 1.16065,-2.48501 2.57923,-4.17089 2.00437,-2.38206 2.44951,-3.75675 1.99719,-6.16783 -0.38165,-2.03435 -0.0295,-3.89145 1.02276,-5.39378 1.98094,-2.82819 1.31201,-3.58407 -3.06207,-3.46008 -4.28695,0.12152 -5.53711,0.89435 -5.53711,3.42298 0,1.1037 -0.40307,2.76464 -0.89571,3.69098 -0.49264,0.92634 -1.22051,5.17176 -1.61749,9.43426 -0.77737,8.34689 -0.13501,9.39821 3.5132,5.75 z m 141,-253.0141 c 0,-2.13507 0.94782,-3.86539 3.25,-5.93313 4.27749,-3.84189 2.90203,-5.49803 -3.73911,-4.50213 l -4.73038,0.70936 0.59874,3.62 c 0.32931,1.991 0.60369,4.8575 0.60974,6.37 0.008,2.07966 0.49853,2.75 2.01101,2.75 1.55763,0 2,-0.66667 2,-3.0141 z m 3,-102.985898 c 0,-0.55 -0.45,-1 -1,-1 -0.55,0 -1,0.45 -1,1 0,0.55 0.45,1 1,1 0.55,0 1,-0.45 1,-1 z m 28.56034,-18.51781 c -1.0314,-1.91521 -2.25442,-3.48219 -2.71781,-3.48219 -1.32727,0 -0.98776,2.81848 0.74257,6.16456 1.18054,2.28292 1.87419,2.77615 2.71781,1.93253 0.84362,-0.84362 0.6541,-2.02145 -0.74257,-4.6149 z m -33.37701,0.30114 c -0.71756,-0.71756 -1.18333,-0.7766 -1.18333,-0.15 0,1.33478 1.18261,2.51739 1.85,1.85 0.28417,-0.28416 -0.0158,-1.04916 -0.66667,-1.7 z m 48.90133,-29.09867 c -1.29508,-1.29508 -1.5032,1.11707 -0.34369,3.98355 0.6524,1.61284 0.78205,1.54907 1.08466,-0.53355 0.18904,-1.30093 -0.1444,-2.85343 -0.74097,-3.45 z m 46.41534,-26.68466 c 0.33992,-0.55 -0.11008,-1 -1,-1 -0.88992,0 -1.33992,0.45 -1,1 0.33992,0.55 0.78992,1 1,1 0.21008,0 0.66008,-0.45 1,-1 z M 19.902806,1112.6603 c 0,-3.9801 0.4176,-5.6757 1.5,-6.091 2.1251,-0.8155 2.1251,8.5979 0,10.3616 -1.3025,1.081 -1.5,0.5187 -1.5,-4.2706 z m 1.25,-16.4432 c -1.5433,-0.5591 -1.7847,-16.2862 -0.25,-16.2862 0.55,0 1,-0.6908 1,-1.5352 0,-2.4823 3.0824,-6.4648 5.0037,-6.4648 2.4467,0 3.2299,5.2668 1.6657,11.2015 -0.6815,2.5859 -1.561,5.0234 -1.9543,5.4167 -0.3933,0.3933 -0.7151,1.6954 -0.7151,2.8935 0,2.5131 -2.9122,5.4403 -4.75,4.7745 z m 0,-27.782 c -1.4968,-1.7001 -1.6525,-4.5042 -0.25,-4.5042 0.55,0 1,-1.8 1,-4 0,-2.2 -0.4821,-4 -1.0714,-4 -0.5893,0 -0.3643,-0.7071 0.5,-1.5714 0.8643,-0.8643 1.5714,-2.3696 1.5714,-3.345 0,-3.4171 3.2424,-5.1492 8.3329,-4.4514 3.9213,0.5374 4.6671,0.9855 4.6671,2.8037 0,2.634 -1.7761,4.5641 -4.2,4.5641 -1.4872,0 -1.8,0.8472 -1.8,4.875 0,2.6813 -0.2813,6.2813 -0.625,8 -0.5423,2.7117 -1.0383,3.12 -3.75,3.087 -1.7188,-0.021 -3.6875,-0.677 -4.375,-1.4578 z M 129.90282,915.37192 c 0,-0.8575 0.45734,-1.2764 1.01631,-0.9309 0.55897,0.3454 0.75742,1.047 0.44098,1.559 -0.85723,1.387 -1.45729,1.1284 -1.45729,-0.6281 z M 296.50981,584.34916 c -1.23407,-3.21594 -0.53885,-6.81876 1.9439,-10.07382 2.21892,-2.90916 3.12989,-3.34439 7,-3.34439 3.2881,0 4.44911,0.39143 4.44911,1.5 0,0.825 0.45,1.5 1,1.5 0.55,0 1,2.25 1,5 0,5.477 0.22251,5.33085 -7.64817,5.02347 -2.2815,-0.0891 -4.44556,0.31917 -4.80902,0.90726 -0.95166,1.53982 -2.23418,1.31592 -2.93582,-0.51252 z m -40.60699,-19.1968 c 0,-2.51934 0.65085,-4.50045 1.82874,-5.56642 3.29403,-2.98106 4.29974,-2.07115 3.97352,3.59501 -0.28192,4.89669 -0.48733,5.27129 -3.05226,5.56642 -2.58522,0.29746 -2.75,0.082 -2.75,-3.59501 z m -93.32115,-28.93202 c -0.30079,-0.48669 -0.18283,-1.47394 0.26213,-2.1939 0.61466,-0.99454 0.98628,-1.0222 1.54689,-0.11512 0.40582,0.65664 0.28787,1.64389 -0.26213,2.19389 -0.55946,0.55946 -1.24093,0.61018 -1.54689,0.11513 z m 2.96063,-17.98324 c -0.80661,-0.80662 -0.81332,-11.05557 -0.009,-14.05615 1.2492,-4.66139 2.36971,-1.97043 2.36971,5.69098 0,7.32083 -0.74935,9.97634 -2.36052,8.36517 z m 0.8027,-21.91302 c -0.33269,-1.04122 -1.01828,-2.9268 -1.52353,-4.19018 -1.35799,-3.39561 -1.12087,-7.65708 0.67593,-12.14772 1.5655,-3.91257 1.52886,-8.98231 -0.13148,-18.19337 -0.46057,-2.5551 -0.1797,-4.36475 0.94351,-6.07898 0.87961,-1.34246 1.60221,-3.5303 1.60578,-4.86186 0.0165,-6.16163 0.91978,-19.07506 1.77819,-25.42102 0.85638,-6.33102 0.72578,-7.50174 -1.36653,-12.25 -1.27237,-2.8875 -2.95705,-5.25 -3.74373,-5.25 -0.79659,0 -1.70245,-1.36065 -2.04451,-3.07097 -0.49635,-2.48172 -1.04799,-3.00938 -2.875,-2.75 -1.72927,0.24551 -2.29798,1.02631 -2.41892,3.32097 -0.087,1.65 -0.19946,3.52788 -0.25,4.17308 -0.0505,0.64519 -1.47651,2.55769 -3.16881,4.25 -3.60661,3.6066 -6.92308,4.091 -6.92308,1.01118 0,-4.07864 -1.93782,-6.1967 -5.09221,-5.56582 -1.91135,0.38227 -2.95853,0.16178 -3.05585,-0.64344 -0.0814,-0.67375 -0.23981,-1.9 -0.35194,-2.725 -0.11213,-0.825 -0.27051,-2.03218 -0.35194,-2.68261 -0.0814,-0.65044 -1.04806,-1.46826 -2.14806,-1.81739 -2.55864,-0.81208 -2.59848,-2.5 -0.059,-2.5 1.06754,0 2.16285,-0.35899 2.43402,-0.79775 0.74978,-1.21316 -1.01325,-3.54386 -2.14951,-2.84161 -1.23056,0.76053 -2.19369,-2.59509 -2.21184,-7.70627 -0.008,-2.18601 -0.85233,-5.02345 -1.95703,-6.57485 -1.82428,-2.56197 -1.84948,-3.00041 -0.41122,-7.15437 1.02017,-2.94642 1.32263,-6.02201 0.90514,-9.2038 -0.62634,-4.77338 -0.62411,-4.77792 2.01855,-4.11465 3.31702,0.83252 4.39514,-0.70293 4.4156,-6.28861 0.0128,-3.49636 0.5071,-4.53209 3.01531,-6.31809 4.05591,-2.88806 3.8873,-5.60242 -0.46087,-7.4192 l -3.46086,-1.44604 0.5983,-5.31738 c 0.32907,-2.92456 1.03371,-5.87042 1.56587,-6.54637 1.56614,-1.98928 4.75228,0.34853 4.78936,3.51417 0.0175,1.49315 0.6925,3.58833 1.5,4.65595 0.80751,1.06762 1.4682,3.04041 1.4682,4.38398 0,1.34357 0.52123,4.18256 1.15829,6.30887 0.91856,3.06589 1.64575,3.86602 3.51357,3.86602 1.2954,0 3.2629,-0.5625 4.37222,-1.25 1.66189,-1.02996 2.19178,-0.98595 3.01011,0.25 0.54623,0.825 0.73023,2.625 0.40888,4 -0.32134,1.375 -0.81981,3.85 -1.1077,5.5 -0.28789,1.65 -1.1841,4.46748 -1.99158,6.26107 -0.80747,1.7936 -1.1931,3.7061 -0.85695,4.25 0.33616,0.54391 -0.0904,0.98893 -0.94782,0.98893 -2.06272,0 -1.99693,2.95931 0.0999,4.49253 1.54288,1.12819 1.53306,1.88158 -0.14055,10.77277 -0.9897,5.25787 -1.54162,10.23169 -1.22647,11.05293 1.43675,3.74412 10.70812,2.68906 10.70812,-1.21856 0,-1.00647 0.9,-2.97412 2,-4.37254 1.49805,-1.90446 2,-4.05678 2,-8.57584 0,-3.31829 -0.45734,-6.31591 -1.01631,-6.66137 -0.55897,-0.34546 -0.67666,-1.15952 -0.26154,-1.80902 0.41513,-0.64949 0.75997,-2.7559 0.76631,-4.6809 0.009,-2.86327 0.42057,-3.5581 2.25993,-3.81934 1.66171,-0.23601 2.50974,0.36807 3.25,2.3151 1.29312,3.40128 1.27848,3.50424 -0.49843,3.50424 -2.19751,0 -1.8306,1.68028 0.5,2.28975 1.83331,0.47942 2.01967,1.46843 2.23607,11.86663 0.40203,19.31875 0.15131,21.64696 -2.7393,25.43674 -1.4292,1.87379 -2.09909,3.40688 -1.48864,3.40688 0.61045,0 0.84888,0.42234 0.52985,0.93854 -0.31902,0.5162 0.14193,1.34258 1.02435,1.8364 1.39951,0.78321 1.56182,3.18546 1.27103,18.81146 -0.18335,9.85248 -0.77289,18.5886 -1.3101,19.4136 -0.97426,1.49618 -1.41176,6.18019 -1.63037,17.45503 -0.0673,3.46835 -0.75192,6.92638 -1.63962,8.28119 -0.93941,1.43371 -1.58818,4.98788 -1.69104,9.26396 -0.17106,7.11181 -1.04668,9.75223 -2.12005,6.39295 z m -10.78719,-14.22187 c -2.38147,-2.63149 -2.12612,-3.98616 2.08888,-11.0818 0.55172,-0.92878 4.25613,3.35023 4.25613,4.9163 0,2.99062 -2.15488,7.99424 -3.44284,7.99424 -0.68595,0 -1.99193,-0.82293 -2.90217,-1.82874 z m -1.12303,-15.52423 c -1.61141,-1.17829 -1.7766,-2.30797 -1.27954,-8.75 0.31391,-4.06837 0.23457,-8.27739 -0.17631,-9.35338 -0.58587,-1.53426 -0.002,-2.46188 2.70566,-4.29943 1.89899,-1.28869 3.71237,-2.08341 4.02973,-1.76606 0.31736,0.31736 0.51965,5.5167 0.44954,11.55408 -0.0961,8.27822 -0.49513,11.34471 -1.62283,12.47241 -1.82045,1.82045 -1.81176,1.82015 -4.10625,0.14238 z m -9.94901,-20.51282 c -0.43077,-0.697 -0.51316,-1.53733 -0.18309,-1.86741 0.89497,-0.89496 1.87077,0.4213 1.38739,1.87145 -0.33872,1.01617 -0.57427,1.01538 -1.2043,-0.004 z m 3.03042,-3.85417 c -0.39598,-0.39598 -1.67951,-0.73348 -2.85229,-0.75 -1.5084,-0.0213 -2.82394,-1.37111 -4.49594,-4.61322 -2.28624,-4.43316 -2.30726,-4.68135 -0.64222,-7.58251 1.18936,-2.07234 3.0416,-3.38915 5.993,-4.2606 4.66353,-1.37697 6.38408,-0.89582 6.38408,1.78531 0,0.95754 0.48295,2.22393 1.07322,2.8142 0.76428,0.76428 0.30101,1.26702 -1.60942,1.74651 -2.61342,0.65593 -2.66505,0.81397 -2.00126,6.12678 0.62899,5.03427 0.0173,6.60002 -1.84917,4.73353 z m 11.38663,-13.16341 c 0,-4.04236 -0.34444,-4.97344 -2,-5.40638 -1.1,-0.28766 -2,-1.24014 -2,-2.11663 0,-1.98334 1.37258,-2.05454 2.95067,-0.15306 1.83371,2.20948 4.04933,0.72438 4.04933,-2.71422 0,-5.46017 1.32198,-1.9091 1.68384,4.52309 0.45691,8.1219 -0.20398,10.75057 -2.70289,10.75057 -1.70416,0 -1.98095,-0.68232 -1.98095,-4.88337 z m -27.35934,-71.77425 c -0.39424,-1.18669 -1.37466,-2.41007 -2.17873,-2.71861 -1.68375,-0.64612 -1.96823,-4.19283 -0.41337,-5.15378 0.72941,-0.4508 0.73048,-1.0313 0.004,-1.90723 -0.75329,-0.90766 -0.55747,-1.67784 0.70144,-2.75886 3.30276,-2.83607 4.34871,-3.04486 5.7812,-1.15404 1.87542,2.47548 1.81772,5.30321 -0.15265,7.48044 -0.88986,0.98329 -1.93443,3.26872 -2.32128,5.07874 -0.62893,2.94276 -0.77919,3.06267 -1.42014,1.13334 z m 17.17184,-23.02549 c 0.72187,-0.28887 1.58437,-0.25335 1.91667,0.0789 0.33229,0.33229 -0.25834,0.56864 -1.3125,0.52522 -1.16495,-0.048 -1.4019,-0.28494 -0.60417,-0.60416 z m -25.26994,-5.81689 c 0.45457,-1.1 1.1207,-5.15 1.48028,-9 0.53236,-5.69999 0.72129,-6.25714 1.01731,-3 0.60933,6.70466 0.0528,10.84089 -1.67638,12.45854 -1.50151,1.40468 -1.57437,1.36399 -0.82121,-0.45854 z m 8.45744,-14 c 0,-0.825 0.66088,-1.5 1.46862,-1.5 0.89459,0 1.24363,0.58629 0.89301,1.5 -0.31659,0.825 -0.97746,1.5 -1.46862,1.5 -0.49115,0 -0.89301,-0.675 -0.89301,-1.5 z m 31.72046,-5.83179 c -1.25891,-3.2008 -0.78258,-5.4187 1.27954,-5.95796 1.59081,-0.41601 2,-0.0307 2,1.88337 0,1.32351 -0.417,2.40638 -0.92668,2.40638 -0.50967,0 -1.08546,0.7875 -1.27954,1.75 -0.32801,1.62672 -0.40362,1.62096 -1.07332,-0.0818 z m -32.03533,-25.04635 c -0.50767,-1.32298 1.00056,-3.62186 2.3762,-3.62186 0.36373,0 0.44627,1.125 0.18342,2.5 -0.52476,2.74511 -1.73343,3.27486 -2.55962,1.12186 z m 9.80376,-1.63983 c -0.91495,-1.48042 -0.0468,-2.23715 2.08857,-1.82043 1.56224,0.30488 1.57881,0.46702 0.16729,1.63696 -1.12456,0.93209 -1.76118,0.98387 -2.25586,0.18347 z m -10.48889,-6.98203 c 0,-1.4308 0.64035,-1.97753 2.25,-1.92105 1.2375,0.0434 1.71278,0.29749 1.05618,0.56461 -0.65661,0.26711 -0.94596,1.13158 -0.64301,1.92105 0.33777,0.88022 -0.0707,1.43539 -1.05618,1.43539 -0.94032,0 -1.60699,-0.82971 -1.60699,-2 z m 20.50294,-16.99525 c -0.71695,-1.16004 1.14378,-4.00475 2.6195,-4.00475 1.38193,0 1.02413,2.63347 -0.53341,3.92611 -1.00807,0.83662 -1.60376,0.85908 -2.08609,0.0786 z m 9.21098,0.34138 c -0.29719,-0.48086 -0.53146,-3.11795 -0.52061,-5.86021 0.021,-5.31382 3.08548,-15.09222 7.87516,-25.12889 1.61234,-3.37863 2.93153,-6.766 2.93153,-7.52749 0,-0.76149 0.60826,-2.27216 1.35169,-3.35703 0.74344,-1.08488 1.64042,-4.89751 1.99331,-8.47251 0.48376,-4.90078 1.1643,-6.93195 2.76607,-8.25565 1.55761,-1.28721 1.84312,-2.09462 1.07006,-3.0261 -0.74995,-0.90363 -0.59715,-2.65934 0.52917,-6.0806 1.2738,-3.86923 2.28836,-5.13559 5.18663,-6.4739 1.98169,-0.91506 3.82807,-1.9406 4.10307,-2.27897 0.275,-0.33837 1.50323,-0.92825 2.72941,-1.31085 1.22618,-0.3826 3.0107,-2.01825 3.96561,-3.63478 0.95491,-1.61653 2.00316,-2.93915 2.32946,-2.93915 0.32629,0 1.38665,-0.58014 2.35635,-1.2892 1.29462,-0.94665 1.58231,-2.00948 1.08272,-4 -0.63123,-2.51504 -1.05768,-2.7108 -5.90529,-2.7108 -2.87371,0 -5.50607,-0.28114 -5.84968,-0.62476 -1.19503,-1.19502 9.82237,-12.4779 14.62558,-14.97801 2.82172,-1.46873 4.63532,-3.03439 4.35651,-3.76095 -0.60748,-1.58305 3.73428,-8.87799 4.70576,-7.90652 0.95582,0.95582 0.0571,-3.39532 -1.53461,-7.42966 -1.09568,-2.77715 -1.03043,-3.45631 0.49394,-5.14072 0.96603,-1.06745 2.74368,-1.95207 3.95033,-1.96581 7.72973,-0.0881 19.53712,-1.63656 21.40873,-2.80768 1.21815,-0.76224 2.90565,-1.38589 3.75,-1.38589 6.02174,0 -5.87051,-5.15878 -15.21482,-6.60008 -5.32539,-0.82141 -5.90062,-3.39992 -0.75847,-3.39992 2.40852,0 3.87895,-0.62036 4.74054,-2 0.68696,-1.1 2.26578,-2 3.50848,-2 1.59278,0 2.25945,-0.59011 2.25945,-2 0,-1.11111 0.66667,-2 1.5,-2 1.88803,0 1.88939,-1.02477 0.006,-4.635688 -2.01256,-3.85891 -1.88895,-5.64416 0.49384,-7.13224 1.1,-0.68696 2,-2.1452 2,-3.24054 0,-1.45763 0.67021,-1.99153 2.5,-1.99153 1.375,0 2.5,0.41538 2.5,0.92308 0,1.92881 6.23929,7.07692 8.57692,7.07692 1.98718,0 2.42308,-0.5037 2.42308,-2.8 0,-1.54 -0.53083,-3.33083 -1.17961,-3.97961 -1.70098,-1.70098 -2.0883,-10.26043 -0.4356,-9.62623 1.59849,0.6134 6.82505,-1.32697 7.82955,-2.90672 0.57089,-0.89784 0.75877,-0.88258 0.77035,0.0626 0.008,0.6875 0.69031,1.25 1.51531,1.25 0.825,0 1.5,0.675 1.5,1.5 0,0.825 0.37271,1.5 0.82825,1.5 1.07249,0 3.17175,9.10412 3.17175,13.75529 0,4.4948 2.01172,10.244708 3.58431,10.244708 1.29474,0 2.20345,3.48219 1.63099,6.25 -0.19907,0.9625 -1.17385,1.75 -2.16618,1.75 -0.99233,0 -2.40382,0.72246 -3.13665,1.60547 -0.73284,0.88301 -3.71501,2.65917 -6.62705,3.94701 -3.29167,1.45573 -5.62723,3.21276 -6.17384,4.64453 -0.48357,1.26664 -3.294,5.05066 -6.2454,8.40893 -2.9514,3.35827 -6.14038,7.53407 -7.08663,9.27955 -0.94625,1.74549 -3.0809,3.94781 -4.74368,4.89406 -1.83489,1.0442 -3.02571,2.53633 -3.02955,3.79614 -0.003,1.14162 -1.13132,3.13256 -2.50632,4.42431 -1.375,1.29175 -2.5,3.30523 -2.5,4.47441 0,1.16918 -2.25,4.918 -5,8.33072 -2.75,3.41272 -5,6.45237 -5,6.75478 0,1.16969 -8.4625,13.00886 -10.18345,14.24679 -0.9991,0.71869 -1.81655,1.88642 -1.81655,2.59497 0,0.70854 -1.72371,3.95517 -3.83047,7.21473 -2.10675,3.25957 -5.79835,9.74183 -8.20354,14.40504 -2.4052,4.66321 -4.67084,8.70356 -5.03476,8.97856 -0.36392,0.275 -0.96685,1.47848 -1.33984,2.67439 -0.37299,1.19592 -1.697,3.67572 -2.94224,5.51068 -1.24523,1.83496 -3.1382,6.4268 -4.2066,10.20409 -1.31628,4.65365 -3.1083,8.19692 -5.55842,10.9904 -1.98873,2.26742 -3.93698,5.5846 -4.32946,7.37151 -0.45602,2.07626 -1.31655,3.2529 -2.38413,3.25994 -0.91879,0.006 -3.30083,0.28064 -5.29341,0.61021 -1.99258,0.32956 -3.86602,0.20577 -4.16321,-0.27509 z m 51.28608,-97.91481 c 0,-0.65254 -0.675,-1.74663 -1.5,-2.43132 -1.29503,-1.07478 -1.49565,-0.64741 -1.4682,3.12756 0.0296,4.06183 0.13611,4.23454 1.5,2.43131 0.80751,-1.06762 1.4682,-2.47502 1.4682,-3.12755 z m 8.41821,-3.03831 c 0.86999,-0.33384 1.58179,-1.23384 1.58179,-2 0,-0.76615 0.585,-1.39301 1.3,-1.39301 2.24231,0 3.36316,-1.93495 2.90988,-5.02338 -0.37019,-2.52226 -0.88227,-2.97662 -3.35476,-2.97662 -1.67119,0 -3.16382,-0.64089 -3.49349,-1.5 -0.83476,-2.17534 -3.25742,-1.83998 -5.41807,0.75 -2.09698,2.51367 -2.48858,5.29513 -0.88501,6.28618 0.60722,0.37529 0.78652,1.89271 0.42054,3.55902 -0.59352,2.70227 -0.429,2.9048 2.35967,2.9048 1.64871,0 3.70947,-0.27314 4.57945,-0.60699 z m -88.41821,94.65712 c 0,-4.95648 0.50088,-6.69202 3,-10.39502 1.65,-2.44484 3,-5.3623 3,-6.48325 0,-1.61743 0.62001,-2.02047 3.00395,-1.95268 6.15513,0.175 6.22515,4.02282 0.19848,10.90773 -1.82081,2.0801 -3.2391,5.09805 -3.69999,7.87309 -0.738,4.44354 -1.81182,5.95479 -4.25244,5.98469 -0.86166,0.0106 -1.25,-1.83316 -1.25,-5.93456 z m 206.8125,-30.73324 c 0.72187,-0.28887 1.58438,-0.25335 1.91667,0.0789 0.33229,0.33229 -0.25834,0.56864 -1.3125,0.52522 -1.16495,-0.048 -1.4019,-0.28494 -0.60417,-0.60416 z m 0.50827,-6.90612 c 0.77317,-4.76448 2.10676,-6.18274 7.04572,-7.49301 2.27343,-0.60313 5.14424,-2.03313 6.37957,-3.17779 1.23533,-1.14465 2.39168,-1.89192 2.56966,-1.66058 0.73861,0.96001 2.68428,8.81556 2.68428,10.83766 0,3.01449 -5.3304,5.08295 -13.09872,5.08295 h -6.16296 z m 85.38808,-78.03525 c -0.38987,-0.38987 -0.70885,-1.83592 -0.70885,-3.21345 0,-1.37752 -0.72958,-3.31076 -1.62128,-4.29608 -1.98238,-2.1905 -1.14564,-4.86599 1.5218,-4.86599 5.02609,0 8.39196,12.10027 3.55833,12.79218 -1.12263,0.1607 -2.36013,-0.0268 -2.75,-0.41666 z m 17.95782,-15.04219 c -1.37657,-1.37656 -0.59386,-3.33333 1.33333,-3.33333 1.33333,0 2,0.66667 2,2 0,1.92719 -1.95677,2.7099 -3.33333,1.33333 z M 289.90282,108.14524 c 0,-0.66786 -0.8815,-1.21429 -1.9589,-1.21429 -3.22335,0 -8.98989,-3.35766 -9.0165,-5.25 -0.0135,-0.9625 -0.36475,-1.749998 -0.78049,-1.749998 -0.41574,0 -1.38126,-1.4625 -2.1456,-3.25 -0.76434,-1.7875 -2.03387,-3.99875 -2.82117,-4.91389 -1.24441,-1.44647 -1.23062,-2.03447 0.10557,-4.5 0.84536,-1.55986 1.55503,-2.27361 1.57705,-1.58611 0.022,0.6875 0.85004,1.25 1.84004,1.25 0.99,0 2.39951,0.5625 3.13224,1.25 1.09989,1.032 1.21834,0.64327 0.67919,-2.22902 -0.35917,-1.91347 -1.73018,-4.38847 -3.04668,-5.5 -2.08178,-1.75767 -5.56475,-7.3728 -5.56475,-8.97132 0,-1.67567 2.06552,-0.049 4.3813,3.45034 1.6115,2.43514 3.42395,4 4.63289,4 1.34197,0 1.98581,0.6716 1.98581,2.07143 0,2.21393 2.16385,4.92857 3.92857,4.92857 1.65325,0 1.27496,-1.92579 -0.92857,-4.72713 -2.36593,-3.00779 -2.578,-6.11807 -0.52246,-7.66263 1.2989,-0.976 1.27439,-1.86156 -0.20266,-7.32425 -1.62917,-6.0253 -1.13006,-9.56549 0.84981,-6.02766 0.53608,0.95792 1.39891,1.74167 1.91739,1.74167 0.51849,0 2.15863,1.0125 3.64475,2.25 7.5143,6.25718 11.31317,12.17772 11.31317,17.63158 0,1.55432 0.82129,3.15023 2,3.88635 1.1,0.68696 2,2.3151 2,3.6181 0,2.41143 2.5486,5.39871 3.65877,4.28854 0.33574,-0.33574 0.10666,-1.86237 -0.50907,-3.39251 -0.61572,-1.53013 -1.10884,-3.68206 -1.09583,-4.78206 0.0274,-2.31832 -1.77938,-11.62987 -3.10464,-16 l -0.90977,-3 1.95803,2.5 c 1.07692,1.375 1.96804,3.0074 1.98027,3.62756 0.0122,0.62015 0.69724,1.68775 1.52224,2.37244 0.825,0.68469 1.5,2.07308 1.5,3.08532 0,1.80926 7.94066,10.30735 8.81462,9.43339 0.24596,-0.24596 -0.28671,-1.99379 -1.18371,-3.88408 -0.897,-1.89029 -1.63091,-4.35482 -1.63091,-5.47674 0,-1.12192 -0.45,-2.31797 -1,-2.65789 -0.55,-0.33992 -1,-2.52648 -1,-4.85902 0,-2.33254 -0.39964,-4.66848 -0.8881,-5.19098 -0.48845,-0.5225 -1.09136,-4.70275 -1.3398,-9.28944 -0.31161,-5.75297 -0.15032,-7.76894 0.52004,-6.5 2.56904,4.86297 7.81276,12.16572 9.08653,12.65451 3.49244,1.34017 3.56064,-4.52792 0.13128,-11.29544 -2.52242,-4.97776 -2.01121,-7.37803 0.94233,-4.42449 0.88744,0.88744 2.48669,3.32506 3.55388,5.41694 1.0672,2.09189 2.2899,3.95744 2.7171,4.14567 0.42721,0.18824 1.60634,2.13331 2.6203,4.32238 l 1.84356,3.98012 1.35817,-3.23012 c 0.74699,-1.77657 1.80786,-3.23013 2.35749,-3.23013 0.54964,0 2.70063,3.0375 4.77998,6.75 4.55587,8.1341 5.80664,6.23737 2.0602,-3.12418 -3.64363,-9.10464 -4.74296,-12.91672 -4.74296,-16.44682 0,-5.09359 1.67832,-3.66528 2.43351,2.071 0.59741,4.53788 2.90719,11.11595 6.84711,19.5 0.67562,1.43771 1.94611,2.25 3.5192,2.25 2.24894,0 2.41338,-0.2988 1.90123,-3.45477 -0.98416,-6.06468 -4.74774,-15.08509 -7.76871,-18.61976 -2.29714,-2.68775 -2.92708,-4.3946 -2.92503,-7.92547 l 0.003,-4.5 2.43231,3 c 1.33777,1.65 3.24803,4.79632 4.24503,6.99182 0.997,2.1955 2.60023,4.783 3.56273,5.75 0.99844,1.00311 1.75,3.2613 1.75,5.25818 0,1.925 0.45,3.5 1,3.5 0.55,0 1,1.35 1,3 0,1.65 0.45,3 1,3 0.55,0 1,1.09286 1,2.42857 0,1.33572 0.675,3.10357 1.5,3.92857 0.825,0.825 1.5,2.70039 1.5,4.16752 0,1.46714 0.63,4.98678 1.4,7.82143 2.84412,10.47017 4.75449,19.832758 4.16668,20.420568 -0.33271,0.3327 -3.40621,0.93522 -6.82999,1.33891 -6.58751,0.77669 -8.73707,0.0126 -8.73707,-3.10557 0,-3.596758 -2.55803,-4.359788 -8.02519,-2.393828 -4.09528,1.472638 -5.43328,1.588598 -7.00494,0.607088 -2.80016,-1.748728 -4.77496,-1.498218 -6.20194,0.78674 -1.48809,2.38281 -3.06839,2.54781 -4.76957,0.49802 -1.8352,-2.211268 -15.99836,-1.750968 -15.99836,0.51994 0,1.91885 -1.92048,3.98204 -3.70661,3.98204 -0.71864,0 -2.28479,-1.125 -3.48034,-2.5 -1.33512,-1.53552 -3.23641,-2.5 -4.92829,-2.5 -3.89597,0 -7.88476,-1.699078 -7.88476,-3.358618 0,-1.20521 -2.75119,-2.58223 -5.25,-2.62773 -0.4125,-0.008 -0.75,1.33635 -0.75,2.98635 0,1.65 0.5109,2.999998 1.13533,2.999998 0.62443,0 2.23466,1.1862 3.57829,2.636 2.22538,2.40122 2.30239,2.77656 0.86467,4.21428 -1.03803,1.03803 -1.57829,1.16263 -1.57829,0.36401 z m 72.45902,-19.464288 c -0.93722,-4.35205 -3.25417,-8.75 -4.6097,-8.75 -1.66899,0 -0.24283,5.54873 2.31557,9.00915 2.80622,3.79562 3.15875,3.7558 2.29413,-0.25915 z m 46.61993,-65.33333 c 0.048,-1.16494 0.28494,-1.4019 0.60416,-0.60417 0.28887,0.72188 0.25335,1.58438 -0.0789,1.91667 -0.33229,0.33229 -0.56864,-0.25833 -0.52522,-1.3125 z m 56.0222,-11.66667 -1.0945,-3.2499996 1.97444,2.4999996 c 2.15835,2.73287 2.51211,4 1.11674,4 -0.4962,0 -1.3947,-1.4625 -1.99668,-3.25 z"
       style="fill:#050505" />
    <g
       id="g181"
       transform="matrix(2.1992553,0,0,2.1992553,-800.8901,-190.33467)">
      <g
         aria-label="ADOLFO LOZANO"
         transform="translate(3930.7249,115.2947)"
         style="font-style:normal;font-variant:normal;font-weight:normal;font-stretch:normal;font-size:192px;line-height:1.25;font-family:'Showcard Gothic';-inkscape-font-specification:'Showcard Gothic';letter-spacing:0px;word-spacing:0px;fill:#000000;fill-opacity:1;stroke:none"
         id="flowRoot166">
        <path
           d="m -2916.0664,192.94727 h -51.2813 l -3.4687,-12.46875 q -2.1563,0.84375 -10.7813,5.71875 -5.5312,3.5625 -12.2812,9.46875 l -5.3438,-11.34375 q -1.5937,-3.375 -4.5937,-9.46875 l -5.0625,18.09375 h -27.1875 q 6,-23.15625 18.5625,-76.40625 7.6875,-35.625004 12.8437,-67.593754 h 56.3438 q 2.625,14.71875 14.3437,68.531254 6.4688,28.125 17.9063,75.46875 z m -59.1563,-30.75 q -1.5937,-4.96875 -5.625,-16.125 -2.4375,-6.1875 -7.4062,-17.0625 -2.1563,5.4375 -6.75,17.8125 -2.5313,7.125 -6,19.40625 2.8125,0 12.75,-1.125 6,-0.84375 13.0312,-2.90625 z"
           id="path183"
           inkscape:connector-curvature="0" />
        <path
           d="m -2784.5352,122.07227 q 0,33.84375 -21,53.25 -21.6562,20.15625 -61.0312,20.15625 -25.3125,0 -39.0938,-2.53125 l -2.5312,-69.65625 q -1.2188,-26.812504 -4.4063,-73.968754 20.3438,-2.90625 42.4688,-2.90625 39.4687,0 61.7812,18.375 23.8125,19.6875 23.8125,57.281254 z m -38.4375,11.53125 q 0,-13.78125 -8.9062,-20.34375 -7.4063,-5.4375 -18.9375,-4.96875 l -1.3125,58.78125 q 12,-0.75 19.5937,-7.78125 9.5625,-8.71875 9.5625,-25.6875 z"
           id="path185"
           inkscape:connector-curvature="0" />
        <path
           d="m -2651.5039,117.85352 q 0,33.09375 -17.0625,55.96875 -17.9063,23.90625 -45.8438,23.90625 -28.7812,0 -46.5937,-24.09375 -16.7813,-22.6875 -16.7813,-55.78125 0,-35.343754 18.2813,-55.500004 17.25,-18.9375 45.0937,-18.9375 27.375,0 44.625,19.03125 18.2813,20.25 18.2813,55.406254 z m -45.0938,16.5 q 0,-26.0625 -17.625,-26.0625 -17.1562,0 -17.1562,26.25 0,10.5 4.5,19.59375 5.0625,10.21875 12.4687,10.21875 7.2188,0 12.75,-10.40625 5.0625,-9.46875 5.0625,-19.59375 z"
           id="path187"
           inkscape:connector-curvature="0" />
        <path
           d="m -2547.1602,164.54102 q -0.9375,3.75 -3.4687,14.15625 -1.3125,6.09375 -2.25,14.25 h -84.8438 q -0.4687,-22.03125 -2.3437,-72.5625 -1.2188,-25.875004 -4.4063,-71.437504 h 65.0625 l -5.3437,119.437504 q 9.0937,0 27.2812,-1.96875 3.75,-0.375 10.3125,-1.875 z"
           id="path189"
           inkscape:connector-curvature="0" />
        <path
           d="m -2444.9727,48.947266 -3.8437,58.968754 q -3.4688,-0.5625 -14.7188,-1.59375 -6.75,-0.28125 -15.9375,-0.375 l -1.5937,30.1875 q 9.6562,0.1875 29.8125,-1.40625 -0.9375,4.21875 -2.9063,13.875 -1.0312,5.71875 -2.25,13.78125 -2.625,-0.5625 -12.0937,-1.6875 -7.0313,-0.5625 -13.875,-0.375 l -0.75,32.625 h -52.5938 l -2.9062,-73.5 q -0.75,-25.312504 -4.2188,-70.500004 z"
           id="path191"
           inkscape:connector-curvature="0" />
        <path
           d="m -2312.1289,117.85352 q 0,33.09375 -17.0625,55.96875 -17.9063,23.90625 -45.8438,23.90625 -28.7812,0 -46.5937,-24.09375 -16.7813,-22.6875 -16.7813,-55.78125 0,-35.343754 18.2813,-55.500004 17.25,-18.9375 45.0937,-18.9375 27.375,0 44.625,19.03125 18.2813,20.25 18.2813,55.406254 z m -45.0938,16.5 q 0,-26.0625 -17.625,-26.0625 -17.1562,0 -17.1562,26.25 0,10.5 4.5,19.59375 5.0625,10.21875 12.4687,10.21875 7.2188,0 12.75,-10.40625 5.0625,-9.46875 5.0625,-19.59375 z"
           id="path193"
           inkscape:connector-curvature="0" />
        <path
           d="m -2933.4102,404.54102 q -0.9375,3.75 -3.4687,14.15625 -1.3125,6.09375 -2.25,14.25 h -84.8438 q -0.4687,-22.03125 -2.3437,-72.5625 -1.2188,-25.875 -4.4063,-71.4375 h 65.0625 l -5.3437,119.4375 q 9.0937,0 27.2812,-1.96875 3.75,-0.375 10.3125,-1.875 z"
           id="path195"
           inkscape:connector-curvature="0" />
        <path
           d="m -2803.3789,357.85352 q 0,33.09375 -17.0625,55.96875 -17.9063,23.90625 -45.8438,23.90625 -28.7812,0 -46.5937,-24.09375 -16.7813,-22.6875 -16.7813,-55.78125 0,-35.34375 18.2813,-55.5 17.25,-18.9375 45.0937,-18.9375 27.375,0 44.625,19.03125 18.2813,20.25 18.2813,55.40625 z m -45.0938,16.5 q 0,-26.0625 -17.625,-26.0625 -17.1562,0 -17.1562,26.25 0,10.5 4.5,19.59375 5.0625,10.21875 12.4687,10.21875 7.2188,0 12.75,-10.40625 5.0625,-9.46875 5.0625,-19.59375 z"
           id="path197"
           inkscape:connector-curvature="0" />
        <path
           d="m -2681.1289,288.94727 -51.6563,115.40625 q 8.4375,0.5625 26.7188,-1.3125 4.2187,-0.46875 11.625,-2.53125 -1.4063,4.21875 -4.7813,14.625 -1.875,5.90625 -4.9687,17.8125 h -84.6563 l 25.3125,-88.125 q -3.375,0.1875 -12.8437,0.75 -6.9375,0.46875 -19.0313,2.34375 l -2.0625,-58.96875 z"
           id="path199"
           inkscape:connector-curvature="0" />
        <path
           d="m -2560.5664,432.94727 h -51.2813 l -3.4687,-12.46875 q -2.1563,0.84375 -10.7813,5.71875 -5.5312,3.5625 -12.2812,9.46875 l -5.3438,-11.34375 q -1.5937,-3.375 -4.5937,-9.46875 l -5.0625,18.09375 h -27.1875 q 6,-23.15625 18.5625,-76.40625 7.6875,-35.625 12.8437,-67.59375 h 56.3438 q 2.625,14.71875 14.3437,68.53125 6.4688,28.125 17.9063,75.46875 z m -59.1563,-30.75 q -1.5937,-4.96875 -5.625,-16.125 -2.4375,-6.1875 -7.4062,-17.0625 -2.1563,5.4375 -6.75,17.8125 -2.5313,7.125 -6,19.40625 2.8125,0 12.75,-1.125 6,-0.84375 13.0312,-2.90625 z"
           id="path201"
           inkscape:connector-curvature="0" />
        <path
           d="m -2441.8789,288.94727 q -1.3125,18.9375 -3.6563,66.09375 -1.4062,34.6875 -2.3437,79.78125 -12.2813,-9.65625 -37.4063,-28.78125 -10.875,-7.59375 -32.4375,-22.78125 l -0.9375,49.6875 h -30.1875 q -0.75,-19.03125 -3.4687,-71.8125 -2.3438,-42.75 -4.7813,-72.1875 h 47.0625 l 34.875,33 q 0,-11.34375 -0.375,-17.8125 -0.2812,-5.71875 -1.125,-15.1875 z"
           id="path203"
           inkscape:connector-curvature="0" />
        <path
           d="m -2308.3789,357.85352 q 0,33.09375 -17.0625,55.96875 -17.9063,23.90625 -45.8438,23.90625 -28.7812,0 -46.5937,-24.09375 -16.7813,-22.6875 -16.7813,-55.78125 0,-35.34375 18.2813,-55.5 17.25,-18.9375 45.0937,-18.9375 27.375,0 44.625,19.03125 18.2813,20.25 18.2813,55.40625 z m -45.0938,16.5 q 0,-26.0625 -17.625,-26.0625 -17.1562,0 -17.1562,26.25 0,10.5 4.5,19.59375 5.0625,10.21875 12.4687,10.21875 7.2188,0 12.75,-10.40625 5.0625,-9.46875 5.0625,-19.59375 z"
           id="path205"
           inkscape:connector-curvature="0" />
      </g>
    </g>
  </g>
  <g
     inkscape:groupmode="layer"
     id="layer2"
     inkscape:label="Layer 2"
     style="display:inline"
     transform="translate(-18.866231,-7.4309524)" />
  <g
     inkscape:groupmode="layer"
     id="layer4"
     inkscape:label="Layer 0"
     style="display:inline"
     transform="translate(-18.866231,-7.4309524)" />
  <g
     inkscape:groupmode="layer"
     id="layer3"
     inkscape:label="Layer 3"
     transform="translate(-18.866231,-7.4309524)"
     style="display:inline" />
</svg>
