<?xml version="1.0" encoding="UTF-8" standalone="no"?>
<!-- Created with Inkscape (http://www.inkscape.org/) -->

<svg
   xmlns:dc="http://purl.org/dc/elements/1.1/"
   xmlns:cc="http://creativecommons.org/ns#"
   xmlns:rdf="http://www.w3.org/1999/02/22-rdf-syntax-ns#"
   xmlns:svg="http://www.w3.org/2000/svg"
   xmlns="http://www.w3.org/2000/svg"
   xmlns:sodipodi="http://sodipodi.sourceforge.net/DTD/sodipodi-0.dtd"
   xmlns:inkscape="http://www.inkscape.org/namespaces/inkscape"
   version="1.1"
   id="svg2"
   width="1053"
   height="597"
   viewBox="0 0 1053 597"
   sodipodi:docname="mapa_mundi_fondo.svg"
   inkscape:version="0.92.4 (5da689c313, 2019-01-14)">
  <metadata
     id="metadata8">
    <rdf:RDF>
      <cc:Work
         rdf:about="">
        <dc:format>image/svg+xml</dc:format>
        <dc:type
           rdf:resource="http://purl.org/dc/dcmitype/StillImage" />
        <dc:title></dc:title>
      </cc:Work>
    </rdf:RDF>
  </metadata>
  <defs
     id="defs6" />
  <sodipodi:namedview
     pagecolor="#ffffff"
     bordercolor="#666666"
     borderopacity="1"
     objecttolerance="10"
     gridtolerance="10"
     guidetolerance="10"
     inkscape:pageopacity="0"
     inkscape:pageshadow="2"
     inkscape:window-width="1366"
     inkscape:window-height="705"
     id="namedview4"
     showgrid="false"
     inkscape:pagecheckerboard="true"
     inkscape:zoom="0.50900944"
     inkscape:cx="253.09111"
     inkscape:cy="-99.766991"
     inkscape:window-x="-8"
     inkscape:window-y="-8"
     inkscape:window-maximized="1"
     inkscape:current-layer="g1033" />
  <g
     id="g1033"
     style="fill:#e3f2fd;fill-opacity:1">
    <path
       style="opacity:1;fill:#e3f2fd;fill-opacity:1;fill-rule:evenodd;stroke:none;stroke-width:0.417;stroke-miterlimit:4;stroke-dasharray:none;stroke-opacity:0.97790055"
       d="m 311.50307,592.03301 c -1.2404,-1.3268 -2.25,-3.6815 -2.25,-5.2474 0,-2.6372 -0.1253,-2.7281 -1.75,-1.2692 -1.6018,1.4383 -1.9892,1.3796 -4.5747,-0.6921 -2.0972,-1.6806 -2.9558,-3.3972 -3.3339,-6.6664 -0.2802,-2.4216 -1.1466,-6.0995 -1.9254,-8.1731 -1.8311,-4.8754 -1.8,-7.7298 0.084,-7.7298 2.1811,0 1.8375,-2.749 -0.5,-4 -3.65,-1.9534 -1.9336,-6.8498 2.1652,-6.1765 1.3526,0.2222 1.794,-0.9287 2.3511,-6.1309 0.8127,-7.5896 0.1659,-12.0026 -1.0147,-6.9218 -0.4179,1.799 -1.2,3.5428 -1.7379,3.8753 -0.5675,0.3507 -0.7434,-0.1826 -0.4191,-1.2708 1.1037,-3.7037 2.7423,-18.4256 2.1564,-19.3737 -0.3292,-0.5326 0.5916,-4.6883 2.0462,-9.235 1.6545,-5.1717 2.8151,-11.4488 3.1001,-16.7666 0.2505,-4.675 1.0669,-10.975 1.8142,-14 0.7474,-3.025 1.6534,-11.0476 2.0135,-17.828 l 0.6546,-12.3281 -4.8364,-4.6719 c -2.66,-2.5696 -6.7391,-6.2951 -9.0648,-8.2789 -2.8393,-2.4219 -4.2284,-4.4118 -4.2284,-6.057 0,-1.3476 -2.925,-8.3717 -6.5,-15.6092 -3.575,-7.2375 -6.5,-13.7709 -6.5,-14.5187 0,-0.7477 1.125,-2.4164 2.5,-3.7082 3.018,-2.8352 3.1942,-3.9943 0.5,-3.2897 -3.1327,0.8192 -2.5437,-4.4182 1.0278,-9.1384 1.6347,-2.1605 2.9722,-4.3395 2.9722,-4.8423 0,-0.5028 0.9,-2.0583 2,-3.4567 2.5363,-3.2244 2.654,-10.4586 0.2484,-15.2699 -2.0526,-4.1056 -5.1259,-5.1876 -5.9359,-2.0899 -0.3002,1.1478 -0.6058,2.0801 -0.6791,2.0719 -2.4371,-0.2752 -8.1368,-3.2361 -9.9078,-5.1471 -1.3002,-1.4028 -2.8166,-2.7278 -3.37,-2.9443 -0.5533,-0.2164 -2.3222,-2.8465 -3.9308,-5.8446 -2.757,-5.1383 -3.2404,-5.5292 -8.4248,-6.8124 -4.1265,-1.0214 -6.3849,-2.3198 -9.0435,-5.1994 -3.3483,-3.6267 -3.8005,-3.8091 -8.2111,-3.3119 -4.0747,0.4592 -5.7633,-0.024 -13.2915,-3.8062 -10.0167,-5.032 -13.4539,-8.5096 -13.4539,-13.6118 0,-3.5769 -5.2627,-12.2005 -9.2235,-15.114 -0.9771,-0.7187 -1.7765,-1.9996 -1.7765,-2.8465 0,-0.8469 -1.7645,-3.5445 -3.9211,-5.9945 -2.1567,-2.4501 -4.5192,-6.34408 -5.25,-8.65348 -1.0068,-3.181 -1.9059,-4.2804 -3.709,-4.5354 -2.1362,-0.3021 -2.3103,-0.058 -1.698,2.3816 0.3752,1.4949 2.5084,5.40728 4.7405,8.69408 2.232,3.2868 4.4805,7.5056 4.9967,9.375 0.5162,1.8694 1.8644,4.2616 2.996,5.3158 1.1367,1.059 1.7357,2.4377 1.3385,3.0804 -1.0435,1.6885 -7.4936,-4.8597 -7.4936,-7.6077 0,-1.477 -1.2042,-2.9155 -3.647,-4.3568 -2.6608,-1.5699 -3.3484,-2.4504 -2.5428,-3.256 0.8056,-0.8056 -0.2626,-3.6983 -3.95,-10.69698 -5.6606,-10.7436 -7.9505,-13.64763 -11.455,-14.52721 -1.5138,-0.37994 -2.4052,-1.32792 -2.4052,-2.55786 0,-2.27804 -4.0596,-11.0077 -5.1189,-11.0077 -1.3139,0 -3.8014,-9.41386 -3.9636,-15 -0.088,-3.025 0.1699,-8.2 0.5727,-11.5 1.1237,-9.20714 -0.5434,-14.04742 -6.7916,-19.71817 -3.7328,-3.38787 -4.6828,-4.72715 -3.3691,-4.75 3.1008,-0.054 1.0174,-5.7287 -3.8179,-10.39956 -2.4701,-2.38601 -4.5669,-5.4821 -4.9619,-7.32646 -0.3763,-1.7568 -2.2245,-5.1318 -4.1072,-7.5 -1.8827,-2.36819 -3.4275,-4.68634 -3.4328,-5.15144 -0.01,-0.4651 -0.9403,-2.1526 -2.0778,-3.75 -1.4837,-2.08372 -2.9028,-2.90437 -5.0223,-2.90437 -2.0706,0 -4.2899,-1.23109 -7.4191,-4.11548 -4.2534,-3.9207 -4.6805,-4.08312 -9.0235,-3.43185 -3.8407,0.57595 -5.2489,0.27913 -8.9409,-1.88452 -5.858301,-3.43319 -7.526101,-3.33749 -7.526101,0.43185 0,2.61905 -0.3556,3 -2.8,3 -1.54,0 -3.34,0.54 -4,1.2 -0.9179,0.91791 -1.475696,0.92429 -2.372896,0.0271 -0.8971,-0.89717 -0.8459,-1.8257 0.2179,-3.95 0.765,-1.52742 1.572996,-3.16792 1.795696,-3.64555 0.2227,-0.47762 -0.3163,-0.46479 -1.197796,0.0285 -2.5766,1.442 -6.6429,7.53526 -6.6429,9.95435 0,3.50634 -11.0839,12.59225 -23.9421,19.62625 -13.4121,7.33702 -13.0579,7.17263 -13.0579,6.05963 0,-0.47651 3.8586,-3.10151 8.5746,-5.83333 10.6486,-6.16831 16.1588,-10.99821 17.3602,-15.21695 0.8826,-3.09908 0.7988,-3.25 -1.8046,-3.25 -1.5016,0 -3.2596,-0.52937 -3.9066,-1.17637 -0.9018,-0.90183 -1.6152,-0.77925 -3.0566,0.52523 -1.592,1.44078 -2.0573,1.48825 -3.0354,0.30966 -0.6354,-0.76557 -1.0374,-2.46443 -0.8934,-3.77523 0.2423,-2.20597 -0.042,-2.36103 -3.8249,-2.08409 -4.3882,0.32128 -7.9934,-1.9789 -4.9388,-3.15103 2.2382,-0.85888 1.8754,-3.64817 -0.4745,-3.64817 -2.2892,0 -2.6371,-2.22007 -0.6579,-4.19921 0.7381,-0.73813 1.8789,-2.34528 2.5351,-3.57143 0.6563,-1.22615 2.0997,-2.22936 3.2076,-2.22936 3.7982,0 8.0655,-2.93029 7.7272,-5.30612 -0.2925,-2.05387 -0.7512,-2.17016 -7.3459,-1.86249 -6.5229,0.30433 -7.23,0.13201 -9.7343,-2.37237 -3.1727,-3.17268 -2.9341,-3.80502 2.4783,-6.56618 3.3486,-1.70838 4.4653,-1.86932 6.2698,-0.90362 2.4911,1.33322 7.7223,1.01914 8.1482,-0.48922 0.1554,-0.55 -1.8349,-2.00225 -4.4228,-3.22723 -4.7686,-2.25721 -11.2053,-7.60196 -11.2053,-9.3044 0,-0.51165 1.2375,-1.20142 2.75,-1.53284 4.8352,-1.05949 5.2917,-1.34571 7.0365,-4.41185 0.9424,-1.65607 2.4835,-3.01388 3.4245,-3.01736 0.9411,-0.003 2.5161,-0.86259 3.5,-1.90913 2.6908,-2.86198 9.8618,-4.51679 13.3364,-3.07756 1.5428,0.63906 3.7706,0.85552 4.9505,0.48102 1.3599,-0.43159 2.7788,-0.10771 3.8752,0.88453 0.9514,0.861 3.0567,1.52574 4.678396,1.47719 1.6217,-0.0486 6.0985,0.64776 9.9485,1.54735 3.850001,0.89958 8.055501,1.38103 9.345701,1.06988 1.2901,-0.31114 2.8651,-0.15499 3.5,0.34702 0.6348,0.502 2.9543,1.47621 5.1543,2.16491 2.2,0.6887 5.6503,2.15929 7.6673,3.26798 l 3.6673,2.01579 2.7175,-2.13765 c 1.4947,-1.17571 3.5793,-2.13765 4.6324,-2.13765 1.0532,0 3.2753,-0.70354 4.9381,-1.56342 1.9803,-1.02402 4.0882,-1.32955 6.1097,-0.88555 2.5097,0.55122 3.4088,0.25047 4.8119,-1.60962 l 1.7255,-2.28751 1.608,3.10964 c 2.2055,4.26494 3.5175,4.83109 5.2995,2.28686 1.4415,-2.05791 1.5832,-2.07653 2.8298,-0.37169 1.2591,1.72185 1.3968,1.71834 3.3908,-0.0862 2.0447,-1.8504 2.1445,-1.83521 6.1423,0.93532 2.9358,2.0345 5.6456,2.94127 9.7619,3.26656 6.636,0.52441 8.5288,1.69466 7.9171,4.89481 -0.429,2.24384 -0.23,2.31082 6.8629,2.31082 6.3819,0 7.4983,0.2766 8.8383,2.18967 1.9786,2.82487 2.9318,1.86668 1.6077,-1.61608 -1.5112,-3.97468 -1.3599,-4.32412 2.472,-5.70975 3.5796,-1.29442 4.6815,-2.86384 2.0107,-2.86384 -0.8191,0 -3.8566,0.89977 -6.75,1.9995 -7.069,2.6868 -10.8935,2.58306 -13.4568,-0.36503 -1.1313,-1.30105 -3.7155,-2.6767 -5.7427,-3.05701 -2.7284,-0.51185 -3.6025,-1.13128 -3.3648,-2.38447 0.2447,-1.28987 1.7477,-1.82163 6.3124,-2.23323 6.8959,-0.62181 5.5703,-1.77492 -2.5088,-2.18238 -4.9908,-0.2517 -5.5321,-0.50522 -5.8472,-2.7382 -0.1909,-1.35345 -1.0336,-2.96273 -1.8725,-3.57619 -2.6015,-1.90223 -0.5656,-5.141925 4.9624,-7.896625 6.2555,-3.11724 8.1186,-3.28006 7.2794,-0.63615 -0.5658,1.78286 -0.3739,1.84013 2.5135,0.75026 2.7139,-1.02439 3.3043,-0.93607 4.4787,0.66993 1.4606,1.99759 3.4857,1.44882 3.4857,-0.9446 0,-2.4075 3.8681,0.22062 4.5966,3.12306 1.0002,3.984985 2.2618,2.834485 1.6766,-1.52886 -0.4807,-3.58349 -0.3146,-4 1.5951,-4 1.2282,-2e-5 2.1317,-0.63581 2.1317,-1.50002 0,-0.95279 0.9586,-1.5 2.6278,-1.5 2.5166,0 2.6,0.17365 1.972,4.10145 -0.5954,3.72296 0.01,7.025735 2.489,13.609825 0.5026,1.33403 2.1373,2.54924 4.1206,3.06317 3.7814,0.97987 4.8914,3.70441 1.8349,4.50371 -1.3783,0.36043 -1.8518,1.05991 -1.4414,2.1293 1.2187,3.17599 -0.2339,4.55877 -3.7343,3.55487 -4.3728,-1.25412 -4.9472,-0.29019 -1.5628,2.62274 2.3355,2.01019 3.8799,2.41493 9.2148,2.41493 5.3956,0 6.5791,-0.31774 7.4845,-2.00945 0.9157,-1.71102 0.6981,-2.15288 -1.4649,-2.97525 -3.2916,-1.25149 -3.2021,-2.14983 0.4861,-4.87662 l 3.0263,-2.23743 2.9737,2.11747 c 3.5122,2.50092 3.6976,3.52351 0.9091,5.01584 -1.4869,0.79578 -1.7784,1.4497 -1.0418,2.33721 0.5625,0.67777 0.764,2.22139 0.4479,3.43027 -0.9166,3.50523 1.4725,2.57882 3.043,-1.17996 0.7763,-1.85786 1.9073,-3.68442 2.5135,-4.05902 0.6061,-0.3746 1.102,-1.77039 1.102,-3.10175 0,-1.81733 -0.997,-2.92928 -4,-4.46131 -4.7919,-2.44465 -5.2557,-5.35301 -1.5,-9.4055 2.9628,-3.19693 2.9782,-3.35889 0.8294,-8.729175 l -1.6705,-4.17515 2.7263,-2.34509 c 4.0852,-3.51397 13.6148,-2.80298 13.6148,1.01579 0,2.00181 -4.3831,5.63913 -6.7954,5.63913 -3.5464,0 -3.9476,4.32035 -0.8203,8.832975 1.4386,2.07598 2.6157,5.14309 2.6157,6.81578 0,1.77127 0.8352,3.79709 2,4.85124 1.1,0.99549 2,2.70998 2,3.80998 0,1.91188 0.085,1.92311 1.9283,0.25487 1.2365,-1.119 2.6753,-1.50805 4.0102,-1.08436 1.7056,0.54132 2.0349,1.36236 1.8217,4.54217 -0.1431,2.13478 0.1898,3.95045 0.7398,4.03483 1.9841,0.30439 4.7894,-5.01395 5.2671,-9.98545 l 0.4878,-5.07693 -5.2626,-2.18706 c -4.2746,-1.77645 -4.9087,-2.32828 -3.3775,-2.93928 1.7516,-0.69893 1.725,-0.80024 -0.3757,-1.42999 -3.1122,-0.93293 -3.7971,-4.68921 -1.8058,-9.903385 1.9335,-5.0626 2.9698,-6.06859 7.0033,-6.7982 4.6754,-0.84572 5.9501,0.17075 3.0626,2.44208 -2.9849,2.34797 -3.2076,5.72429 -0.5907,8.956065 l 1.9085,2.35692 0.6906,-3.681245 c 0.3799,-2.02468 0.4167,-4.12441 0.082,-4.66605 -0.3347,-0.54165 0.6142,-1.94665 2.1087,-3.12223 2.3764,-1.86932 3.5379,-2.05988 9.2595,-1.51922 10.2245,0.96616 12.0422,1.47397 12.0422,3.36418 0,2.32681 7.9463,8.803865 12.1141,9.874295 2.1398,0.54955 4.122,2.03098 5.3859,4.02528 1.1,1.73563 2.8171,3.17302 3.8157,3.19421 2.5309,0.0537 5.6843,1.87673 5.6843,3.28614 0,0.64749 -1.2351,2.16208 -2.7446,3.36575 -2.7127,2.163 -2.7226,2.21295 -0.8451,4.28757 1.0448,1.15448 2.9549,2.09906 4.2447,2.09906 1.2897,0 2.345,0.44143 2.345,0.98095 0,0.53952 1.2375,1.28012 2.75,1.64579 2.9698,0.71798 10.2557,4.55566 10.2013,5.37326 -0.018,0.275 -1.8684,2.525 -4.1113,5 l -4.0779,4.5 -1.6311,-2.47829 c -2.6603,-4.04234 -5.0044,-6.02171 -7.131,-6.02171 -3.145,0 -2.4185,3.03019 2.0119,8.3916 4.0984,4.95965 5.6878,8.66727 4.5232,10.55156 -1.0654,1.72392 -3.187,1.22065 -6.4584,-1.53205 -3.9946,-3.36125 -3.9454,-1.3748 0.09,3.64714 1.7419,2.16754 2.9105,4.19754 2.5969,4.51112 -0.3135,0.31359 -2.3958,-0.36124 -4.6272,-1.49961 -2.2313,-1.13837 -4.7987,-2.06976 -5.7053,-2.06976 -0.9065,0 -3.512,-1.98198 -5.7898,-4.40441 -3.7959,-4.03679 -4.6214,-4.44011 -9.8904,-4.83218 -6.5161,-0.48485 -7.6338,-1.13591 -6.114,-3.56137 0.6674,-1.06511 2.6609,-1.81917 5.327,-2.01503 4.1321,-0.30355 4.2429,-0.4016 3.6732,-3.25 -0.4323,-2.16143 -0.2072,-2.93701 0.8524,-2.93701 3.2043,0 4.7662,-7.71274 2.0229,-9.98943 -1.975,-1.63911 -4.2657,-0.64678 -5.6819,2.46137 -1.5097,3.31357 -3.8308,3.27385 -3.8308,-0.0656 0,-1.75262 0.6485,-2.76321 2,-3.11663 2.5991,-0.67967 2.5805,-3.32517 -0.028,-4.00733 -1.389,-0.36324 -1.852,-1.0849 -1.4695,-2.29031 0.4066,-1.28101 -0.13,-1.9328 -1.9719,-2.39509 -1.3919,-0.34928 -2.5306,-1.07651 -2.5306,-1.61603 0,-0.53952 -0.45,-0.98095 -1,-0.98095 -0.55,0 -1,0.66386 -1,1.47525 0,1.17038 -0.5301,1.27371 -2.5651,0.5 -4.4678,-1.69864 -4.6064,-1.43689 -4.1788,7.88957 0.4705,10.26215 -0.1365,11.13518 -7.7425,11.13518 -3.2972,0 -4.5136,0.39475 -4.5136,1.46482 0,0.80565 -0.9041,1.94865 -2.009,2.54 -1.466,0.78458 -1.8498,1.70944 -1.4201,3.42176 0.7109,2.83253 -2.6615,6.42558 -6.8209,7.26707 -2.0683,0.41843 -2.75,1.14282 -2.75,2.92216 0,1.59494 -1.1253,3.10193 -3.4536,4.625 -6.7613,4.42302 -10.2692,16.23164 -5.569,18.74709 1.0875,0.58205 2.3542,2.51038 2.8149,4.28518 0.7693,2.96432 1.1658,3.22692 4.8721,3.22692 3.2463,0 4.8341,0.72173 8.1255,3.69349 3.8403,3.46739 6.3341,4.38752 13.6663,5.04245 2.9173,0.26058 2.9584,0.34776 3.1191,6.61039 0.1352,5.27105 0.5769,6.76043 2.6068,8.79035 4.7678,4.76781 8.8996,-0.3193 6.283,-7.73566 -2.0456,-5.79768 -1.8884,-6.4903 1.7065,-7.52132 5.7091,-1.63732 6.3001,-9.18449 1.097,-14.0066 -2.621,-2.42903 -2.6309,-2.48978 -0.8866,-5.44267 1.3032,-2.20608 1.6796,-4.61173 1.441,-9.20833 l -0.323,-6.2221 5.767,0.33747 c 4.7219,0.2763 6.8266,1.04498 11.613,4.24125 4.9687,3.31793 5.7756,4.27224 5.3767,6.35886 -0.636,3.32672 3.1484,8.56242 6.1889,8.56242 2.575,0 4.1547,-1.50594 4.7083,-4.48852 0.203,-1.09368 1.1311,-2.13527 2.0625,-2.31463 1.226,-0.23612 2.6717,1.61669 5.2385,6.71355 1.9498,3.87182 3.5451,7.97136 3.5451,9.11009 0,2.60929 4.0965,6.76859 8.0101,8.13287 1.6444,0.57326 2.9899,1.68441 2.9899,2.46922 0,0.78481 1.125,1.85465 2.5,2.37742 1.375,0.52277 2.5,1.58039 2.5,2.35025 0,0.76986 0.2812,2.806 0.625,4.52475 0.5638,2.81886 0.3853,3.125 -1.8219,3.125 -1.3457,0 -4.2145,1.33748 -6.375,2.97218 -3.6401,2.75426 -4.559,2.97422 -12.5321,3 -7.6972,0.0249 -8.8794,0.28311 -11.2178,2.4502 -1.4375,1.33231 -3.4906,2.7007 -4.5624,3.04086 -1.8487,0.58675 -4.6773,6.30858 -3.6343,7.35158 0.2698,0.26978 1.3845,-0.64611 2.4773,-2.03531 3.5296,-4.48714 13.0412,-7.69229 13.0412,-4.39452 0,1.60582 -4.2153,4.61501 -6.4648,4.61501 -1.7617,0 -2.0414,3.74823 -0.6434,8.62268 1.1358,3.96025 0.4304,5.02547 -4.44,6.70519 -3.7635,1.29799 -3.9663,1.58466 -4.2566,6.01752 -0.2551,3.89535 -0.6328,4.65461 -2.3157,4.65461 -3.4972,0 -5.8075,1.92438 -8.3618,6.96514 -2.801,5.5274 -4.3596,6.90864 -5.5757,4.941 -1.6704,-2.7027 -2.1391,1.81201 -0.5144,4.95394 0.8648,1.67233 1.5724,3.65011 1.5724,4.39507 0,0.74495 -3.375,4.65049 -7.5,8.67892 -8.0906,7.9013 -8.7315,9.6065 -6.417,17.07248 2.3536,7.5921 2.7721,10.3956 1.8182,12.1781 -0.5344,0.9984 -1.3161,1.8153 -1.7371,1.8153 -1.0414,0 -5.1641,-8.6255 -5.1641,-10.8042 0,-2.8822 -2.9403,-6.19578 -5.4977,-6.19578 -1.3113,0 -2.6624,-0.45 -3.0023,-1 -1.1442,-1.8513 -8.0622,-1.1412 -10.0264,1.0292 -1.5865,1.75298 -2.6006,1.94258 -7.4538,1.39358 -5.0107,-0.56688 -6.0442,-0.34668 -9.5686,2.0386 -3.6441,2.4664 -4.0173,3.1547 -4.802,8.8564 -1.993,14.4811 0.2074,24.0054 6.2702,27.1406 4.3016,2.2244 10.1852,0.049 11.6313,-4.2998 1.3655,-4.1065 2.194,-4.7839 6.681,-5.4625 4.2648,-0.645 5.1786,0.1743 3.8803,3.479 -1.7124,4.3585 -4.112,13.05 -4.112,14.8941 0,1.5751 0.9702,1.8819 6.75,2.1351 l 6.75,0.2957 -0.2815,7.7388 c -0.4269,11.7379 3.0135,16.5646 9.8026,13.7525 2.3538,-0.975 3.4536,-0.901 6.0799,0.4092 4.3443,2.1672 4.5805,2.0946 5.8676,-1.8052 0.8985,-2.7227 2.2217,-3.9247 6.6049,-6 6.5632,-3.1076 6.7854,-3.1345 5.4617,-0.661 -1.3178,2.4623 -1.3378,6.7607 -0.035,7.5657 0.5937,0.367 1,-0.8005 1,-2.8736 0,-4.6896 2.6054,-5.4799 8.5608,-2.5969 4.4081,2.1339 7.6116,2.2452 13.1892,0.4582 1.6753,-0.5368 2.25,-0.3253 2.25,0.8283 0,0.8521 0.9,1.8349 2,2.184 1.118,0.3549 2,1.5131 2,2.6264 0,1.0954 0.3971,1.7462 0.8824,1.4463 1.1759,-0.7268 6.1176,3.2192 6.1176,4.8849 0,2.2006 4.958,4.8008 7.9957,4.1933 4.4847,-0.897 10.8559,3.8258 12.2752,9.0991 0.6292,2.3375 1.5006,4.25 1.9365,4.25 0.4359,0 0.7926,1.0944 0.7926,2.4319 0,2.8529 3.2763,5.385 10.378,8.0208 2.9136,1.0814 5.0736,2.5584 5.3637,3.6677 0.2671,1.0214 0.8537,1.6296 1.3036,1.3516 0.4499,-0.278 3.3746,-0.205 6.4995,0.1622 4.6959,0.552 6.1962,1.2334 8.6487,3.9286 1.63204,1.7934 4.16414,3.5611 5.62694,3.9283 3.4492,0.8657 4.1457,2.088 4.1643,7.3086 0.017,4.723 -1.6477,8.6804 -4.8823,11.6077 -1.1564,1.0464 -2.1024,2.4472 -2.1024,3.1128 0,0.6655 -0.9,2.3543 -2,3.7527 -1.47084,1.8697 -2.00774,4.0886 -2.02914,8.3849 -0.033,6.7015 -2.7475,17.5627 -5.6162,22.4745 -1.1545,1.9769 -3.1719,3.7154 -4.9076,4.2291 -1.6209,0.4799 -3.6221,1.2709 -4.4471,1.7579 -0.825,0.487 -2.625,1.3631 -4,1.9467 -1.375,0.5837 -3.7375,2.2418 -5.25,3.6847 -2.3258,2.2188 -2.75,3.4432 -2.75,7.9364 0,3.8446 -0.5297,5.8887 -1.9167,7.3963 -1.0542,1.1458 -3.0319,3.2833 -4.3949,4.75 -1.363,1.4666 -3.2244,4.4666 -4.1364,6.6666 -0.9119,2.2 -2.8717,5.2702 -4.3551,6.8227 -2.418,2.5307 -3.1622,2.7591 -7.1969,2.2087 -2.475,-0.3376 -4.032,-0.2578 -3.4599,0.1774 0.572,0.4352 1.5684,2.5635 2.2142,4.7297 1.8902,6.3403 0.1672,8.7092 -7.7573,10.6652 -6.46,1.5946 -6.4988,1.6252 -6.8145,5.3699 -0.311,3.6882 -0.3886,3.7547 -3.75,3.2092 -3.0839,-0.5005 -3.4325,-0.3214 -3.4325,1.7635 0,1.5407 0.7561,2.5462 2.25,2.9923 2.24,0.6688 2.2408,0.6763 0.1766,1.6906 -1.2962,0.6369 -2.4207,2.5842 -3,5.1948 -0.6849,3.0869 -1.6438,4.5163 -3.6766,5.4806 -3.4529,1.638 -3.4851,3.6097 -0.1101,6.7375 l 2.6399,2.4466 -2.6399,3.8094 c -1.4519,2.0952 -2.6399,4.278 -2.6399,4.8507 0,0.5727 -0.9372,1.8894 -2.0826,2.926 -2.1813,1.974 -2.198,3.7652 -0.1094,11.7036 1.1972,4.5498 2.7932,6.6195 6.0637,7.863 3.2347,1.2298 1.6284,2.8496 -3.5006,3.53 -3.1865,0.4227 -4.269,0.088 -6.1211,-1.8934 z m 655.11081,-37.2802 c -1.09491,-2.8533 0.64282,-6.3073 5.52922,-10.9903 3.33843,-3.1994 5.28845,-6.0731 6.10849,-9.002 1.19967,-4.2848 1.21266,-4.2943 3.18037,-2.3266 1.08668,1.0867 2.61599,1.7301 3.39847,1.4298 2.48707,-0.9543 1.54537,1.8847 -2.57732,7.7699 -2.2,3.1407 -4,6.3307 -4,7.0891 0,0.7584 -1.165,2.7634 -2.58889,4.4556 -2.84955,3.3865 -8.01047,4.2843 -9.05034,1.5745 z m -57.13751,-12.1734 c -1.41719,-0.5649 -5.22326,-7.5125 -5.22326,-9.5345 0,-0.8812 1.5843,-1.2899 5,-1.2899 4.91104,0 4.99823,0.053 4.90032,3 -0.21466,6.4605 -1.73171,8.9985 -4.67706,7.8244 z m 78.77063,-9.0744 c 0,-0.9625 -0.6846,-3.0509 -1.5138,-4.6409 -1.24307,-2.3835 -1.29461,-3.48 -0.2937,-6.248 1.0614,-2.9351 0.9374,-3.9267 -0.98619,-7.8859 -2.69518,-5.5475 -2.70724,-5.8169 -0.2002,-4.4752 1.09999,0.5887 1.99999,1.5286 1.99999,2.0886 0,2.1824 5.5694,7.9114 7.691,7.9114 3.3378,0 3.7856,1.8721 1.1558,4.8313 -1.3045,1.4678 -3.2245,4.3562 -4.2667,6.4187 -2.0212,3.9997 -3.5762,4.8669 -3.5862,2 z m -92.31342,-11.2015 c -3.53725,-2.2648 -9.44071,-11.1133 -9.86251,-14.7826 -0.40989,-3.5656 -2.35205,-3.5249 -4.7293,0.099 l -1.8793,2.8649 -0.6782,-3.0878 c -0.83252,-3.7905 -5.2908,-7.69 -10.61581,-9.2854 -3.34803,-1.0031 -4.88414,-0.9164 -9.49144,0.5359 -3.02331,0.9531 -7.0401,3.0877 -8.92619,4.7437 -2.61354,2.2948 -4.6862,3.1262 -8.71348,3.4954 -2.90633,0.2664 -6.28091,1.1333 -7.49906,1.9264 -3.1512,2.0518 -7.93501,1.7923 -10.28518,-0.5579 -2.3872,-2.3872 -2.52449,-3.5848 -0.5,-4.3616 2.11047,-0.8099 1.90404,-2.6702 -1.46252,-13.1799 -2.30627,-7.1997 -2.94474,-10.9885 -2.88224,-17.1035 0.11631,-11.3804 0.96792,-12.5441 11.55271,-15.7856 9.06574,-2.7764 12.29205,-5.1275 12.29205,-8.9577 0,-3.2762 2.79367,-6.6117 5.53765,-6.6117 1.75516,0 2.59831,-0.6935 3.05491,-2.5127 0.90157,-3.5922 3.27031,-4.6096 6.65592,-2.8588 3.30045,1.7067 4.75152,1.1067 4.75152,-1.965 0,-5.2902 6.91164,-9.936 11.60236,-7.7988 1.38174,0.6296 3.56237,0.8811 4.84585,0.559 3.43911,-0.8632 3.91019,0.9777 1.59155,6.2193 -1.13521,2.5664 -1.94606,4.7091 -1.80189,4.7616 1.0658,0.3881 6.22503,3.5866 9.63567,5.9737 6.02214,4.2148 6.98773,2.9469 7.34252,-9.6413 0.17103,-6.0685 0.71247,-10.2165 1.36163,-10.4317 1.1982,-0.397 3.42231,3.8335 3.42231,6.5096 0,0.9465 1.0909,3.3263 2.42422,5.2884 1.33333,1.9622 3.1658,6.1185 4.07217,9.2363 1.22061,4.1988 2.52665,6.339 5.03657,8.2534 1.86374,1.4215 3.68386,3.5571 4.04471,4.7458 0.36086,1.1887 1.68811,3.0612 2.94946,4.1612 1.26136,1.1 3.90876,5.1053 5.88312,8.9007 2.88207,5.5403 3.58684,8.0046 3.57497,12.5 -0.02,7.5766 -2.43158,17.2851 -5.96818,24.0265 -1.60792,3.0651 -3.18993,7.2603 -3.51558,9.3228 -0.52282,3.3113 -0.92344,3.75 -3.42433,3.75 -1.55773,0 -3.39244,0.675 -4.07713,1.5 -1.63178,1.9662 -2.99033,1.8955 -4.54944,-0.2367 -1.20575,-1.649 -1.36689,-1.649 -3.18898,0 -2.37119,2.1459 -3.9647,2.1008 -7.58111,-0.2148 z m -341.039,-12.3214 c -1.05648,-0.7725 -2.08618,-3.4578 -2.59016,-6.7547 -0.46009,-3.0098 -2.49137,-9.1861 -4.51395,-13.725 -2.02258,-4.539 -4.51673,-12.414 -5.54255,-17.5 -1.02583,-5.0861 -3.07764,-11.8902 -4.55958,-15.1203 -2.30524,-5.0247 -2.60677,-6.7117 -2.08753,-11.6796 0.3338,-3.1936 1.52457,-8.2008 2.64615,-11.127 1.84584,-4.8159 1.9311,-6.0318 0.89896,-12.8205 -0.62715,-4.125 -1.7596,-8.4966 -2.51654,-9.7148 -0.75695,-1.2181 -1.37627,-2.7145 -1.37627,-3.3252 0,-0.6107 -1.88028,-4.2753 -4.1784,-8.1436 -4.06463,-6.8418 -4.14631,-7.1532 -3,-11.4392 0.64812,-2.4232 1.1784,-6.1469 1.1784,-8.2749 0,-4.0808 -1.31156,-5.0564 -6.84104,-5.0886 -1.28757,-0.01 -4.18106,-1.5887 -6.42999,-3.5137 -2.24893,-1.925 -4.41756,-3.5 -4.81918,-3.5 -0.40162,0 -3.58312,1.3497 -7.07,2.9992 -5.67713,2.6858 -7.34673,2.9993 -15.97343,3 l -9.63364,8e-4 -3.68549,-4.0794 c -2.02703,-2.2437 -6.8125,-8.8239 -10.63439,-14.6227 l -6.94889,-10.5434 0.24693,-10.1272 c 0.1621,-6.6482 -0.21655,-11.3389 -1.1022,-13.6542 -1.30959,-3.4236 -1.18457,-3.8551 4.26498,-14.7212 4.04997,-8.0754 6.38266,-11.5916 8.37259,-12.6207 4.34097,-2.2448 5.95861,-4.7471 6.52831,-10.09868 0.41464,-3.8951 1.18452,-5.5535 3.56584,-7.6812 1.67036,-1.4924 3.80876,-4.207 4.75199,-6.0324 0.94323,-1.82538 2.35408,-3.78716 3.13523,-4.35952 2.11152,-1.54715 -0.3412,-6.33367 -3.64906,-7.12121 -1.41821,-0.33766 -3.14106,-1.05697 -3.82856,-1.59847 -1.55877,-1.22776 -1.65031,-8.37423 -0.11939,-9.32039 0.76603,-0.47343 0.92681,-2.89166 0.49859,-7.49913 -0.44939,-4.83523 -0.28214,-7.01661 0.57876,-7.54868 0.66593,-0.41157 5.27907,-0.77602 10.25142,-0.80989 l 9.04062,-0.0616 0.31579,-4.41979 c 0.43625,-6.10558 -0.43103,-8.82824 -3.06811,-9.63184 -4.96141,-1.51188 -8.36613,-7.36637 -3.55181,-6.1074 2.73487,0.71519 14.80413,-4.85965 14.80413,-6.83808 0,-2.54471 13.04507,-16.50289 15.4233,-16.50289 1.20694,0 2.97283,-0.56917 3.92419,-1.26482 1.59945,-1.16955 1.61385,-1.59331 0.19113,-5.62573 -2.06642,-5.85685 -1.94775,-7.37646 0.77583,-9.93514 2.97043,-2.79057 3.32809,-2.74097 4.15127,0.57569 0.3754,1.5125 1.5517,3.68169 2.61402,4.82042 1.9141,2.05179 1.90893,2.0916 -0.57413,4.42431 -2.85205,2.67936 -3.13249,4.24011 -1.06953,5.95222 1.04559,0.86776 1.97948,0.90102 3.43452,0.1223 1.37697,-0.73693 2.82938,-0.75362 4.67042,-0.0537 2.14293,0.81474 3.31776,0.61676 5.93351,-0.99986 2.04933,-1.26655 4.99476,-2.01574 7.92489,-2.01574 4.9577,0 5.04411,-0.089 6.06724,-6.24606 0.34237,-2.06033 1.67134,-4.96541 2.95327,-6.45575 l 2.33078,-2.70969 0.7041,3.20575 c 0.38726,1.76316 1.10977,3.20575 1.60559,3.20575 1.61392,0 2.19661,-4.9653 0.939,-8.00145 -2.02304,-4.88404 -0.80161,-6.23543 5.27898,-5.84069 4.21282,0.27348 5.81737,-0.0881 7.99602,-1.80178 1.49908,-1.17916 2.7256,-3.09166 2.7256,-4.25 0,-2.67237 -1.66309,-2.74293 -2.5,-0.10608 -0.68569,2.16041 -2.01,2.60185 -3,1 -0.9003,-1.45672 -4.69662,-1.16586 -6.94113,0.5318 -2.78959,2.10994 -7.27635,1.86462 -8.52369,-0.46606 -0.56935,-1.06379 -1.03518,-4.58994 -1.03518,-7.83584 0,-5.26374 0.39276,-6.40576 3.63377,-10.56574 1.99858,-2.56526 4.02358,-4.66411 4.5,-4.66411 0.47643,0 0.86623,-1.18125 0.86623,-2.625 0,-2.41711 -0.25219,-2.57456 -3.18438,-1.98812 -3.96517,0.79303 -6.43643,2.96618 -7.30402,6.42292 -0.36755,1.46444 -2.82874,4.94699 -5.46932,7.73901 -6.26584,6.62521 -7.23912,10.59252 -3.54463,14.44873 2.97203,3.10213 2.79082,6.24253 -0.46063,7.98265 -1.03862,0.55585 -2.32166,3.03786 -2.97222,5.74967 -0.95841,3.99511 -1.79311,5.1448 -5.12917,7.0648 -2.19147,1.26125 -4.41758,2.02551 -4.94692,1.69836 -0.52934,-0.32715 -1.69967,-3.15941 -2.60075,-6.29392 -0.90107,-3.1345 -2.28151,-6.96168 -3.06764,-8.50484 l -1.42933,-2.80574 -3.48029,3.05574 c -7.1975,6.31949 -10.92705,3.44345 -11.27168,-8.69212 -0.26043,-9.17091 -0.76205,-8.27164 9.23577,-16.5572 2.52527,-2.09279 6.09138,-6.14279 7.92468,-9 9.07855,-14.14896 8.95968,-13.91581 7.5503,-14.80895 -0.74237,-0.47045 -1.75701,-0.86226 -2.25476,-0.87068 -2.3802,-0.0403 3.03496,-3.93651 6.78272,-4.88021 2.34001,-0.58922 5.05896,-1.96015 6.04211,-3.04652 0.98315,-1.08637 3.20338,-2.28437 4.93385,-2.66222 1.73047,-0.37785 4.2195,-1.52836 5.53117,-2.55668 1.31167,-1.02833 2.88667,-1.87245 3.5,-1.87584 0.61333,-0.003 2.41328,-0.68317 3.99989,-1.51061 2.29662,-1.19773 3.18591,-1.25452 4.36187,-0.27855 0.81241,0.67424 2.89438,1.10379 4.6266,0.95455 4.84656,-0.41756 8.0774,1.15597 8.10398,3.94689 0.0161,1.68827 0.66459,2.48526 2.20018,2.70391 1.19756,0.17052 2.71516,0.95802 3.37244,1.75 0.65729,0.79199 2.65898,1.43997 4.44819,1.43997 4.43779,0 13.38572,4.14435 16.84917,7.80391 3.58225,3.78509 2.95058,6.30713 -2.1565,8.61011 -3.58866,1.61826 -3.97492,1.60739 -8.26749,-0.23262 -6.76558,-2.90006 -11.05421,-3.6864 -10.36918,-1.90124 0.30364,0.79126 1.6532,2.02796 2.99903,2.74822 1.93242,1.03421 2.44696,2.10323 2.44696,5.0839 0,4.17473 2.64791,6.88772 6.72251,6.88772 2.66399,0 2.83592,-0.58443 0.77749,-2.64286 -0.825,-0.825 -1.5,-1.91785 -1.5,-2.42857 0,-1.24418 2.72123,-1.18865 3.5,0.0714 0.33992,0.55 1.93034,1 3.53427,1 2.71718,0 2.84966,-0.17508 1.94098,-2.5651 -1.25443,-3.29939 -1.23856,-3.4349 0.40231,-3.4349 0.75765,0 1.93775,-0.675 2.62244,-1.5 0.68469,-0.825 2.8101,-1.5 4.72314,-1.5 h 3.47825 l -0.47913,-4.25 c -0.26352,-2.3375 -0.79768,-5.21035 -1.18702,-6.38411 -0.68216,-2.05654 -0.55787,-2.09407 3.41948,-1.03245 3.31502,0.88483 4.06541,1.50168 3.81258,3.13411 -0.17313,1.11785 -0.92181,1.90155 -1.66372,1.74156 -0.87677,-0.18908 -1.13099,0.27709 -0.72626,1.33178 0.34247,0.89248 0.62268,1.81088 0.62268,2.0409 0,0.23001 1.35,0.41821 3,0.41821 2.28804,0 3,-0.45407 3,-1.91333 0,-1.37931 2.02598,-2.91439 7.25886,-5.5 8.37952,-4.1404 10.19909,-4.44586 9.45139,-1.58667 -0.63194,2.41654 -0.33931,2.45828 2.80236,0.39978 4.07403,-2.66941 9.65978,-3.51669 12.20221,-1.85091 3.00921,1.97161 3.28518,1.86566 3.28518,-1.26131 0,-1.75952 -0.96611,-3.48459 -2.75,-4.91036 -4.29401,-3.43197 -1.96939,-3.87787 5.21744,-1.00079 3.60448,1.44298 7.37502,2.62359 8.37897,2.62359 1.00395,0 3.93254,1.64168 6.50797,3.64818 4.92855,3.8398 6.78781,3.88123 4.75916,0.10605 -0.66624,-1.23983 -1.81819,-3.37923 -2.55988,-4.75423 -3.00957,-5.57933 -2.85901,-8.36523 0.65902,-12.1945 1.80802,-1.967975 3.97324,-4.577795 4.8116,-5.799595 1.43027,-2.08445 1.78487,-2.14337 5.75,-0.95539 4.68573,1.40388 4.9401,1.92957 2.63562,5.446645 -1.24694,1.90307 -1.37434,3.13639 -0.59033,5.71482 0.54987,1.80841 1.25647,6.73751 1.57021,10.95356 0.54871,7.3736 0.4653,7.77349 -2.19007,10.5 -1.51828,1.55895 -3.64683,3.38873 -4.73011,4.06617 -1.71569,1.07293 -1.39276,1.20184 2.50506,1 4.08362,-0.21146 4.67207,-0.58127 6.73355,-4.23171 1.24239,-2.2 2.26629,-5.2375 2.27534,-6.75 0.0203,-3.39599 3.01036,-3.75609 6.03913,-0.72732 1.72445,1.72445 2.10956,1.7963 2.61188,0.48727 1.00767,-2.62594 -1.58147,-4.50992 -6.19799,-4.50992 -5.13888,0 -5.77341,-0.73529 -4.2948,-4.97684 0.85287,-2.44655 0.81051,-4.13774 -0.17874,-7.13518 -1.19927,-3.63383 -1.13398,-4.08007 0.87021,-5.947245 1.19172,-1.11025 2.19722,-3.01361 2.23444,-4.22969 l 0.0677,-2.21104 1.08894,2.25854 c 0.80543,1.6705 0.76669,2.96582 -0.1488,4.9751 -1.10179,2.418155 -0.99252,2.915125 0.99476,4.524325 2.36379,1.91409 4.04747,1.88884 4.70057,-0.0705 0.21769,-0.65313 -0.29013,-1.1875 -1.1285,-1.1875 -2.61962,0 -2.69869,-1.64716 -0.20809,-4.334565 l 2.39679,-2.58617 2.57892,2.02858 c 3.27818,2.578615 7.91716,3.926265 9.70611,2.819675 1.03119,-0.63787 0.5811,-1.136065 -1.7659,-1.954685 -3.93767,-1.37343 -4.66529,-3.92555 -2.25103,-7.89548 1.78187,-2.93005 2.1833,-3.07735 8.38615,-3.07735 5.53605,0 6.5154,-0.26289 6.51933,-1.75 0.004,-1.69375 5.3793,-8.23219 6.79606,-8.26737 0.38462,-0.01 3.84931,-0.72 7.69931,-1.57879 3.85,-0.85878 9.7,-1.92984 13,-2.38013 8.76832,-1.19646 13.87325,-3.36639 14.53357,-6.17774 0.58508,-2.49103 3.76461,-4.45561 8.86057,-5.4748 2.6038,-0.52076 3.10586,-0.31364 3.10586,1.28132 0,1.04637 0.6953,2.89517 1.5451,4.10843 1.43192,2.04435 2.08436,2.16036 8.90661,1.58367 6.98856,-0.59075 7.49291,-0.49089 9.9549,1.97111 5.11141,5.11141 3.39303,7.91548 -8.84174,14.42809 -9.82498,5.22987 -12.71909,8.28036 -5.40892,5.70118 2.37122,-0.83661 5.30771,-2.17398 6.52553,-2.97193 1.21783,-0.79795 2.4475,-1.07337 2.73261,-0.61205 0.28511,0.46132 4.40099,1.1372 9.14639,1.50196 6.68259,0.51367 9.62734,1.24885 13.06006,3.26056 3.96346,2.32274 4.75049,2.46544 7.44397,1.34977 1.65656,-0.68617 3.49166,-2.14398 4.078,-3.23957 0.92902,-1.73588 1.76868,-1.91948 6.53085,-1.42798 7.14607,0.73754 8.32664,1.83915 8.32664,7.76966 0,6.356875 1.66273,9.924605 4.62533,9.924605 2.41249,0 4.42299,-2.61155 3.65638,-4.74948 -0.78964,-2.20216 2.62587,-2.576135 4.47063,-0.4895 1.52454,1.72442 2.67326,1.91529 8.99766,1.49504 6.72399,-0.4468 7.25,-0.64607 7.25,-2.74647 0,-3.908215 2.15797,-4.724305 10.69659,-4.045145 12.99033,1.03325 15.28889,1.58377 16.90387,4.048525 2.09886,3.20327 10.44539,6.62786 14.28302,5.86033 1.67808,-0.33561 5.11754,-0.30032 7.64326,0.0784 3.85577,0.57821 5.02369,1.31278 7.28274,4.5805 2.43742,3.52574 4.954,4.87095 6.40255,3.4224 0.29995,-0.29995 4.48534,-0.63857 9.30088,-0.75249 8.26073,-0.19542 8.81469,-0.0773 9.80268,2.09115 0.69062,1.51575 1.75148,2.19756 3.11579,2.00248 1.68571,-0.24103 2.0105,-0.89737 1.75465,-3.54578 -0.36443,-3.77237 -0.72518,-3.70735 9.45701,-1.7046 9.79835,1.92725 10.75065,2.32248 22.18805,9.20845 8.0958,4.87415 9.2724,5.92417 8.8886,7.93199 -0.2433,1.27279 -0.055,2.31416 0.419,2.31416 0.4737,0 0.8613,-0.675 0.8613,-1.5 0,-2.31341 2.4835,-1.7993 8.1495,1.68699 5.4234,3.33709 5.422,3.35437 -0.4447,5.21542 -0.9873,0.31321 -2.4601,2.1611 -3.2729,4.10642 -1.6143,3.86347 -3.0542,3.77596 -6.8481,-0.41621 -1.0416,-1.15094 -2.4362,-2.09262 -3.0992,-2.09262 -0.663,0 -2.8633,-1.125 -4.8894,-2.5 -4.8038,-3.25992 -5.6473,-3.16842 -4.5956,0.49857 0.7842,2.73437 0.6239,3.04904 -1.8198,3.57134 -6.222,1.32987 -6.5518,1.68737 -4.2529,4.61004 1.1402,1.44953 2.0731,4.02703 2.0731,5.72778 0,2.87399 -0.2499,3.09227 -3.5398,3.09227 -4.4942,0 -10.45447,3.03177 -15.98819,8.13258 -4.23265,3.90151 -4.41668,3.96428 -8.25312,2.81485 -2.90439,-0.87018 -4.46484,-0.88616 -6.00567,-0.0615 -1.14495,0.61272 -2.95895,1.11407 -4.03111,1.11407 -2.01694,0 -9.1821,7.13437 -9.1821,9.14264 0,0.62528 0.76127,1.69353 1.69171,2.37388 1.58894,1.16187 1.58894,1.5552 0,6.47508 -0.93044,2.88094 -1.69171,5.84556 -1.69171,6.58805 0,0.74249 -0.85616,1.80819 -1.90259,2.36822 -1.04642,0.56003 -2.85983,2.99564 -4.0298,5.41246 -2.90159,5.99389 -8.94207,12.16521 -10.44057,10.66671 -0.71312,-0.71312 -1.12631,-5.60767 -1.12505,-13.32704 0.002,-14.15572 1.1871,-17.48041 7.3497,-20.62434 2.09576,-1.06918 4.94962,-3.43609 6.34191,-5.25981 1.39229,-1.82372 3.891,-4.76994 5.55268,-6.54717 3.66804,-3.9231 4.86796,-9.26868 2.08053,-9.26868 -1.00475,0 -1.82681,0.53788 -1.82681,1.19528 0,2.29948 -5.06435,6.60065 -7.13444,6.05931 -1.13336,-0.29638 -1.75956,-1.08843 -1.46579,-1.85399 0.79603,-2.07441 -1.00026,-2.58646 -5.1267,-1.46141 -3.70913,1.01128 -6.88371,4.66956 -8.29666,9.56081 -0.49314,1.70709 -1.37584,1.98102 -6.02708,1.8704 -2.99713,-0.0713 -6.57433,-0.24104 -7.94933,-0.37723 -2.54102,-0.25169 -17.09621,1.5852 -20.09,2.5354 -0.90226,0.28636 -5.58301,4.80751 -10.40168,10.047 l -8.76121,9.52634 2.22645,2.36995 c 1.74777,1.86042 2.92794,2.25611 5.48929,1.84046 3.79522,-0.61588 7.14674,0.88226 8.00199,3.57691 1.03122,3.24906 -3.15897,19.55331 -6.97016,27.12134 -4.34327,8.62458 -11.75559,16.98943 -15.0548,16.98943 -2.9646,0 -8.04704,4.29867 -8.84596,7.48182 -0.38546,1.53579 -1.57518,2.72636 -3.10915,3.11136 -3.028,0.75998 -3.19529,3.09376 -0.5881,8.20428 3.9974,7.83554 2.44265,14.20254 -3.4681,14.20254 -2.29842,0 -2.42857,-0.31782 -2.42857,-5.93045 0,-5.38875 -0.20552,-5.95964 -2.25,-6.25 -1.59565,-0.22662 -2.29405,-1.04661 -2.40146,-2.81955 -0.2851,-4.70581 -0.34976,-5 -1.09854,-4.99821 -1.10827,0.003 -6.25,8.45277 -6.25,10.27151 0,0.85997 -1.61564,2.5621 -3.59032,3.78252 -2.77651,1.71598 -3.4676,2.6978 -3.04892,4.33156 0.29776,1.16194 1.76214,6.69305 3.25418,12.29135 l 2.71279,10.17881 -4.32863,6.8212 c -2.38075,3.7517 -4.96139,7.8666 -5.73477,9.1443 -0.77338,1.2777 -4.62404,3.8652 -8.55702,5.75 -5.67844,2.7213 -8.39216,3.4301 -13.1791,3.4423 -3.31551,0.01 -6.57321,0.3616 -7.23933,0.785 -1.97799,1.257 -5.45645,10.0963 -4.79422,12.1829 0.33673,1.0609 1.88109,2.9966 3.43192,4.3015 3.74987,3.1553 5.07342,5.8289 5.07342,10.2484 0,4.959 -2.21918,9.2841 -7.34449,14.3142 -4.79466,4.7056 -4.4958,4.8479 -7.70428,-3.6658 -1.48644,-3.9443 -9.91385,-10.86 -11.03105,-9.0524 -0.40045,0.648 -0.60025,5.2574 -0.44399,10.2431 l 0.2841,9.0651 4.86985,4.2471 c 2.67843,2.3359 4.74249,4.9163 4.58681,5.7343 -0.15568,0.818 0.41715,3.1631 1.27295,5.2113 1.9441,4.6529 0.58859,6.656 -2.56991,3.7976 -2.7359,-2.476 -6.57653,-9.0818 -7.51611,-12.9276 -0.40312,-1.65 -1.6334,-4.2238 -2.73396,-5.7196 -1.88988,-2.5685 -1.93035,-3.1945 -0.72868,-11.2716 1.25837,-8.4582 1.24292,-8.6121 -1.408,-14.0304 -1.47419,-3.0132 -3.18074,-5.4784 -3.79234,-5.4784 -0.6116,0 -2.11951,0.9465 -3.35091,2.1033 l -2.23891,2.1034 -1.06996,-3.8534 c -0.58848,-2.1193 -1.07248,-5.2245 -1.07554,-6.9004 -0.008,-4.4903 -8.71174,-12.4529 -13.61167,-12.4529 -1.94236,0 -12.00945,9.4537 -19.48924,18.3019 -4.68601,5.5432 -4.90467,6.07 -4.90467,11.8157 0,3.3076 -0.504,6.9968 -1.11999,8.1981 -1.57237,3.0665 -7.03852,8.6843 -8.44989,8.6843 -2.67311,0 -11.85389,-33.0061 -11.17759,-40.1848 l 0.44135,-4.6847 -4.7584,0.5635 -4.75839,0.5636 0.16145,-3.3788 c 0.14337,-3.0003 -0.15069,-3.4147 -2.62461,-3.6987 -2.19675,-0.2523 -3.12645,-1.1707 -4.39529,-4.3418 l -1.60923,-4.0218 -4.6047,0.7248 c -5.2687,0.8294 -4.51735,0.8352 -13.28086,-0.1025 -5.9512,-0.6367 -6.74208,-0.9769 -7.28319,-3.1328 -0.55975,-2.2303 -0.94463,-2.368 -4.94213,-1.7685 -5.52567,0.8286 -10.08348,-1.3369 -11.05549,-5.2526 -1.47668,-5.94881 -8.15624,-9.58541 -10.36307,-5.64201 -0.66781,1.19331 -0.14143,2.79561 1.9235,5.85531 1.56361,2.3168 3.52999,4.7826 4.36973,5.4795 0.83974,0.6969 1.5268,2.2586 1.5268,3.4704 0,1.2118 1.0125,3.1456 2.25,4.2974 3.05906,2.8473 7.12261,1.9339 10.55946,-2.3734 3.20303,-4.0144 4.19054,-4.2259 4.19054,-0.8978 0,1.6883 0.87428,2.9264 2.75236,3.8976 1.5138,0.7828 3.56287,2.3189 4.5535,3.4135 1.73794,1.9205 1.72922,2.1082 -0.24862,5.3524 -1.12737,1.8492 -2.06091,4.0372 -2.07453,4.8622 -0.0297,1.7999 -10.48808,13 -12.13915,13 -0.63735,0 -3.49935,1.8057 -6.36001,4.0127 -8.76899,6.7652 -22.07039,11.0828 -24.08765,7.8188 -0.39718,-0.6426 -0.76124,-3.6801 -0.80902,-6.75 -0.0734,-4.7141 -0.70855,-6.5604 -4.08688,-11.8799 -5.20395,-8.1941 -6.5252,-10.7192 -11.87826,-22.7016 -4.45914,-9.9815 -4.46662,-10.0177 -4.03129,-19.50001 0.23988,-5.225 0.71176,-12.6032 1.04863,-16.39591 l 0.61249,-6.89587 -9.07265,0.51729 c -7.73083,0.4408 -9.5331,0.23729 -12.18596,-1.37602 -3.18198,-1.93507 -5.77726,-6.74548 -6.69697,-12.41297 -0.49751,-3.06578 -0.63865,-3.14864 -4.05201,-2.37881 -5.16983,1.16599 -6.11554,3.14366 -4.17086,8.72216 1.04956,3.01077 -0.0434,7.24699 -1.8583,7.20263 -1.42924,-0.0349 -8.56993,-13.28452 -9.62824,-17.86524 -0.90844,-3.93209 -2.26865,-5.81642 -8.2968,-11.49382 -8.8671,-8.35114 -11.86701,-7.97911 -7.18739,0.89134 2.82295,5.35102 6.56944,9.22809 11.39761,11.79483 3.77193,2.00522 3.85746,2.14829 1.5,2.50923 -2.78137,0.42584 -3.96177,1.76582 -3.98469,4.5234 -0.008,1.01325 -0.91531,2.98644 -2.01531,4.38486 -1.1,1.39842 -2,3.40109 -2,4.45036 0,1.70849 -0.36561,1.61605 -3.49997,-0.88486 -4.80113,-3.83083 -4.52494,-5.29263 0.99997,-5.29263 3.39742,0 4.5,-0.37969 4.5,-1.54966 0,-3.16654 -3.06837,-7.30973 -7.47099,-10.08801 -3.00103,-1.89381 -5.21312,-4.30039 -6.53753,-7.11233 -2.31797,-4.92144 -5.06233,-5.55531 -9.37265,-2.16481 -2.12362,1.67044 -3.44169,1.95158 -6.62672,1.41348 -3.70822,-0.6265 -4.04768,-0.4808 -5.0435,2.16481 -0.58723,1.56009 -2.70783,4.52464 -4.71244,6.5879 -2.87494,2.95904 -3.59802,4.44542 -3.42346,7.03735 0.29837,4.43032 -5.40821,10.21127 -10.07991,10.21127 -2.42632,0 -3.51182,0.64893 -4.69446,2.80646 -1.42886,2.60672 -1.4002,2.90918 0.40279,4.25 2.67089,1.98623 6.82129,1.80816 9.67401,-0.41506 4.97858,-3.87999 8.48967,-4.87973 19.50058,-5.55259 l 11.11571,-0.67926 0.70669,6.24625 c 0.9714,8.58613 1.80407,9.84423 6.51528,9.84423 5.21117,0 7.0272,0.8187 8.10527,3.6543 0.49801,1.3098 2.05007,2.8167 3.44902,3.3486 1.39896,0.5319 2.80517,1.6488 3.12492,2.4821 1.37168,3.57451 5.17497,0.70401 6.28198,-4.7412 0.88523,-4.3543 3.39041,-4.5837 11.83367,-1.0835 5.7269,2.3741 8.16766,2.802 16.07995,2.8193 8.15005,0.018 9.51679,0.273 10.82134,2.0204 1.62678,2.17901 1.20978,8.35081 -0.64152,9.49501 -1.23208,0.7615 3.93223,17.5203 6.91307,22.4338 1.02474,1.6891 2.18562,4.6462 2.57976,6.5712 1.34607,6.5744 4.88742,13.4963 9.69489,18.9496 2.64234,2.9973 4.80425,6.2494 4.80425,7.2269 0,0.9776 1.11396,2.5073 2.47548,3.3994 2.25249,1.4758 3.13073,1.4861 9.75,0.1142 4.00098,-0.8292 8.01324,-1.8032 8.91612,-2.1643 1.50668,-0.6027 1.52617,-0.1059 0.23708,6.0438 -0.77249,3.6852 -2.29655,8.7169 -3.38682,11.1817 -2.53481,5.7303 -10.05088,16.2791 -13.91668,19.532 -1.64418,1.3834 -5.24749,6.072 -8.00735,10.4191 l -5.01792,7.9037 1.01708,10.4469 c 2.38066,24.4531 2.38233,23.5202 -0.0496,27.6432 -1.23402,2.0921 -3.97823,5.2889 -6.09823,7.1041 -2.12001,1.8151 -4.82509,4.6632 -6.0113,6.3291 -1.82589,2.5642 -1.97888,3.4192 -0.99731,5.5735 1.55205,3.4064 -1.05642,12.7696 -3.99567,14.3426 -1.57424,0.8425 -1.90541,1.721 -1.44283,3.8271 0.44642,2.0325 -0.35149,4.4461 -3.11155,9.4119 -7.03675,12.6602 -14.03986,17.8505 -25.86047,19.1664 -3.3,0.3673 -6.69861,0.8683 -7.55246,1.1132 -0.85385,0.2449 -2.34158,-0.1318 -3.30607,-0.837 z m 73.6739,-35.7341 c -1.20154,-0.4841 -2.66404,-1.776 -3.25,-2.8708 -1.57884,-2.9501 -1.2919,-9.7834 0.5613,-13.3671 1.3637,-2.6371 1.44453,-3.9347 0.5,-8.0267 -1.70906,-7.404 -1.51057,-8.7284 1.30823,-8.7284 3.98681,0 7.34588,-1.7335 8.12427,-4.1927 0.81686,-2.5807 3.60811,-6.7276 4.56087,-6.7759 0.34102,-0.017 1.18028,1.9696 1.86503,4.4153 1.10803,3.9575 1.0234,4.92 -0.76934,8.75 -2.13804,4.5676 -3.41247,9.7929 -5.26234,21.5761 -1.02023,6.4985 -2.82758,10.3457 -4.77482,10.1638 -0.37321,-0.035 -1.66165,-0.4594 -2.8632,-0.9436 z m 286.68463,-52.0988 c -1.375,-0.5385 -3.93956,-2.535 -5.69902,-4.4366 -4.04902,-4.3763 -7.1934,-4.5126 -9.52648,-0.4129 -1.85257,3.2553 -1.90789,3.249 -8.7745,-0.9978 -0.825,-0.5103 -2.72534,-1.1851 -4.22297,-1.4996 -2.48226,-0.5213 -2.62416,-0.7887 -1.60517,-3.0251 1.67885,-3.6847 -0.74442,-6.4758 -8.26077,-9.5145 -5.25941,-2.1263 -6.37111,-2.9727 -6.18852,-4.7115 0.16386,-1.5605 -0.58535,-2.4013 -2.84019,-3.1873 -3.84486,-1.3404 -3.29582,-3.3401 1.16768,-4.2529 4.36994,-0.8938 4.7301,-0.6147 6.0692,4.7034 0.61499,2.4423 1.28585,4.4406 1.4908,4.4406 0.20495,0 2.45842,-1.5921 5.00771,-3.538 4.31849,-3.2964 4.78012,-3.4341 6.75865,-2.0165 1.16797,0.8368 5.94858,3.6157 10.62358,6.1751 13.19746,7.2254 12.91527,6.9845 13.63838,11.6465 0.4946,3.1888 1.64792,5.158 4.67548,7.9829 4.18507,3.9051 3.34809,4.8615 -2.31386,2.6442 z m -79.53104,-0.9444 c -0.95021,-1.5375 0.35135,-2.5295 1.63484,-1.246 0.71818,0.7182 0.73543,1.2775 0.0524,1.6997 -0.55992,0.346 -1.31919,0.1419 -1.68727,-0.4537 z m 10.53104,-0.3772 c 0,-2.1699 5.08801,-5.7063 7.72643,-5.3701 2.86742,0.3653 3.34128,2.1625 0.70246,2.6643 -1.06089,0.2017 -3.12336,1.2142 -4.58326,2.25 -3.18244,2.2579 -3.84563,2.3365 -3.84563,0.4558 z m -19.43524,-3.4678 c -0.64333,-1.0409 1.70169,-2.1048 4.63947,-2.1048 1.70054,0 1.83317,0.25 0.79577,1.5 -1.37221,1.6534 -4.56742,2.009 -5.43524,0.6048 z m -11.56476,-1.4652 c -3.025,-0.656 -6.08512,-1.5589 -6.80028,-2.0063 -0.71515,-0.4474 -3.40991,-1.1152 -5.98836,-1.4841 -3.32107,-0.475 -4.78576,-1.1777 -5.02305,-2.4099 -0.42339,-2.1985 2.25036,-2.2804 6.25584,-0.1917 2.23246,1.1641 4.55285,1.3767 9.59913,0.8795 5.69017,-0.5607 6.74843,-0.4122 7.29956,1.024 0.52014,1.3554 0.21142,1.5606 -1.59913,1.0625 -2.18128,-0.6 -2.1897,-0.574 -0.30258,0.9346 1.06762,0.8535 2.50356,1.5518 3.19098,1.5518 0.68742,0 1.52797,0.45 1.86789,1 0.77577,1.2552 -1.49413,1.159 -8.5,-0.3604 z m 19.66667,-8.3062 c -0.36667,-0.3667 -0.66667,-1.5723 -0.66667,-2.679 0,-1.1068 -0.49073,-3.3943 -1.09051,-5.0834 -1.57765,-4.4428 0.27411,-8.987 3.35554,-8.2344 1.22923,0.3002 3.06621,-0.072 4.08217,-0.8267 1.88633,-1.4016 4.6528,-1.0318 4.6528,0.6219 0,0.5047 -1.10814,1.339 -2.46253,1.854 l -2.46253,0.9362 2.57562,5.6259 c 1.61883,3.536 2.22425,5.9773 1.62975,6.5718 -1.78589,1.7859 -4.12887,-0.2638 -4.79266,-4.1928 -1.01727,-6.0211 -2.48765,-5.7173 -2.48765,0.5141 0,5.1482 -0.67086,6.5548 -2.33333,4.8924 z m 81.33333,-0.3334 c -2.11907,-0.6786 -1.84865,-0.8158 1.77475,-0.9003 3.59436,-0.084 4.42604,-0.4976 5.22525,-2.5997 1.1916,-3.1341 3,-3.2547 3,-0.2 0,4.3401 -3.71237,5.7137 -10,3.7 z m -125.10581,-1.6723 c -2.88432,-1.7886 -11.64442,-15.1567 -14.81504,-22.608 -1.11875,-2.6292 -3.67926,-6.2875 -5.69003,-8.1296 -4.1592,-3.8104 -3.93906,-6.2407 0.38971,-4.3024 3.00447,1.3453 21.22117,19.1972 21.22117,20.7961 0,0.5565 1.17615,2.1017 2.61366,3.434 2.40936,2.2329 2.54615,2.7894 1.75,7.12 -0.98848,5.3766 -1.83183,5.9456 -5.46947,3.6899 z m 28.10581,-4.4777 c -1.925,-1.1784 -4.625,-2.4456 -6,-2.816 -1.375,-0.3704 -2.95546,-1.542 -3.51213,-2.6037 -0.55668,-1.0616 -1.83135,-3.1455 -2.83261,-4.6308 -1.59761,-2.37 -1.66335,-3.1351 -0.53698,-6.25 1.36666,-3.7795 2.58345,-4.4903 3.51789,-2.0552 0.79586,2.074 1.99757,1.0744 2.67301,-2.2235 0.40791,-1.9916 1.80784,-3.4201 4.97808,-5.0796 2.75079,-1.4399 5.2219,-3.7524 6.56657,-6.1449 2.98993,-5.3199 4.4597,-5.5576 7.56496,-1.2235 2.61502,3.6499 2.61954,3.6874 0.60791,5.0492 -2.36795,1.603 -2.60768,5.1039 -0.61355,8.9601 1.30069,2.5152 1.22972,2.9092 -0.8918,4.9511 -1.26772,1.2202 -2.6005,3.4556 -2.96173,4.9676 -1.03486,4.3318 -3.76955,11.2496 -4.44548,11.2455 -0.33778,0 -2.18914,-0.9679 -4.11414,-2.1463 z m -93.33333,-33.5166 c -0.36667,-0.3667 -0.66667,-2.8792 -0.66667,-5.5834 0,-5.4104 1.42554,-5.9948 3.90376,-1.6005 2.32474,4.1222 -0.35402,10.0669 -3.23709,7.1839 z m 122.33333,-0.1422 c 0,-0.4449 -0.59812,-1.6269 -1.32917,-2.6267 -1.09579,-1.4985 -1.7061,-1.616 -3.47604,-0.6687 -1.96421,1.0512 -2.07718,0.9605 -1.32769,-1.0656 0.46574,-1.259 2.28916,-2.707 4.22605,-3.3561 1.87377,-0.6279 3.89702,-2.1138 4.49611,-3.3019 1.48269,-2.9406 2.41747,-1.6649 2.37747,3.2445 -0.0203,2.4877 -0.76677,4.9626 -1.91029,6.3333 -1.93764,2.3227 -3.05644,2.8502 -3.05644,1.4412 z m -19,-9.0243 c 0,-0.5929 1.125,-2.7358 2.5,-4.762 1.375,-2.0262 2.5,-4.4687 2.5,-5.4278 0,-0.9591 0.80576,-1.9545 1.79058,-2.2121 1.44538,-0.3779 1.71419,-1.2692 1.39436,-4.6229 -0.21791,-2.285 -0.79867,-4.4033 -1.29057,-4.7074 -1.39292,-0.8608 -1.05418,-5.225 0.66336,-8.5463 1.13233,-2.1897 2.15643,-2.927 3.75,-2.6999 2.30341,0.3283 2.30702,0.3573 1.06773,8.535 -0.83796,5.5295 1.05173,10.2765 4.09087,10.2765 3.11499,0 5.9109,3.3609 5.18893,6.2374 -0.31998,1.2749 -1.97707,3.6548 -3.68242,5.2886 -1.70536,1.6339 -2.83102,2.268 -2.50147,1.4092 0.34739,-0.9053 -0.25607,-2.3353 -1.4361,-3.4033 -1.1194,-1.013 -2.03527,-2.4471 -2.03527,-3.1869 0,-0.765 -1.06918,-1.345 -2.47968,-1.345 -1.86635,0 -2.9613,0.9441 -4.42691,3.8169 -2.0611,4.0401 -5.09341,7.2252 -5.09341,5.35 z m 6.77979,-46.4169 c -0.38718,-2.4245 0.9528,-7.6555 2.35669,-9.2 0.54121,-0.5954 1.2779,-0.5356 1.97372,0.1602 0.81359,0.8136 0.65854,2.47 -0.58037,6.2 -1.80929,5.4473 -3.16919,6.4771 -3.75004,2.8398 z m 28.18428,-33.92948 c -0.66985,-1.4701 -0.92618,-3.8353 -0.56962,-5.2559 0.78467,-3.12644 7.97326,-8.56457 11.32133,-8.56457 3.79644,0 6.02733,-1.69158 7.29446,-5.53104 0.88532,-2.68252 1.59473,-3.41172 2.91231,-2.99354 3.15404,1.00105 5.13215,-2.6699 5.71591,-10.60753 0.29802,-4.05234 1.36499,-9.16789 2.37104,-11.36789 1.00605,-2.2 2.22688,-5.07654 2.71295,-6.39232 l 0.88378,-2.39231 3.5789,3.14231 c 1.96839,1.72828 4.08199,3.14232 4.69689,3.14232 0.61489,0 1.11798,0.9 1.11798,2 0,1.31306 -0.66667,2 -1.94098,2 -1.06754,0 -2.23717,0.47923 -2.59917,1.06496 -0.362,0.58573 -2.07606,0.92408 -3.80902,0.75188 -3.55863,-0.35362 -3.90987,1.14 -1.59563,6.78536 1.36412,3.32764 0.45429,7.3776 -3.98289,17.72911 -1.79865,4.19607 -2.37243,4.69305 -6.10798,5.29038 -2.3893,0.38207 -4.61114,1.44115 -5.28414,2.51879 -0.6387,1.02269 -1.8051,1.85949 -2.592,1.85949 -0.78689,0 -2.23688,0.7296 -3.2222,1.6213 -1.79407,1.6236 -4.86599,1.2921 -4.86599,-0.5252 0,-0.5316 1.575,-1.5361 3.5,-2.2322 5.21609,-1.88619 4.23546,-2.99307 -1.05471,-1.19053 -4.19796,1.43043 -4.50787,1.76523 -3.95664,4.27493 0.41464,1.8879 -7.3e-4,3.4625 -1.3543,5.1341 l -1.95238,2.4111 z m 31.55242,-59.19547 c 0.37641,-1.16875 0.88343,-7.975 1.12671,-15.125 0.24328,-7.15 0.66128,-14.0309 0.92888,-15.2909 0.856,-4.03041 2.11471,-1.4791 2.71771,5.50861 0.3219,3.73026 1.29319,8.76499 2.15842,11.18828 1.69781,4.75514 1.43552,6.07233 -0.83409,4.18872 -1.17815,-0.97778 -1.55044,-0.66111 -2.08521,1.77366 -0.35805,1.63017 -0.359,4.52043 -0.002,6.42279 0.60857,3.24398 0.48291,3.45884 -2.0229,3.45884 -2.27221,0 -2.56944,-0.3178 -1.98741,-2.125 z M 489.83112,202.10421 c 1.08586,-2.09982 1.4323,-4.38322 1.03859,-6.84536 -0.51907,-3.24605 -0.28888,-3.83208 1.89631,-4.82772 4.05024,-1.84541 2.71535,-6.5988 -2.75584,-9.81323 -0.81713,-0.48008 -1.73983,-3.08086 -2.08,-5.86284 -0.50001,-4.08913 -0.25345,-5.42955 1.35343,-7.35789 2.08642,-2.50383 4.9695,-2.3144 4.9695,0.32651 0,0.84919 0.86465,1.53138 1.94098,1.53138 2.86495,0 3.27778,1.45676 1.35985,4.79856 -1.69027,2.94512 -1.67238,3.02478 1.7457,7.77132 1.89941,2.63764 5.11841,6.47396 7.15333,8.52517 2.6453,2.66645 3.30717,3.88014 2.32212,4.25814 -0.75775,0.29078 -1.52269,1.76136 -1.69986,3.26796 -0.28137,2.39271 -0.9547,2.88274 -5.32212,3.87328 -2.75,0.62371 -5.98292,1.66761 -7.18426,2.31979 -1.20134,0.65218 -3.1254,1.18578 -4.27568,1.18578 -2.02413,0 -2.039,-0.10138 -0.46205,-3.15085 z m -12.95276,-4.6465 c -0.31084,-0.50294 -0.29261,-3.21568 0.0405,-6.02831 0.5582,-4.71315 0.91651,-5.2759 4.57245,-7.18149 5.23929,-2.73086 6.68076,-1.58776 6.02246,4.7759 -0.26919,2.60219 -1.22546,5.47478 -2.12505,6.38354 -1.94323,1.96303 -7.70624,3.35149 -8.51037,2.05036 z m -97.54309,-40.85765 c -1.2996,-0.91025 -3.7622,-1.93397 -5.4725,-2.27492 -2.6919,-0.53662 -3.8087,-1.89295 -8.3126,-10.095 -2.8615,-5.21129 -6.1565,-11.41341 -7.3222,-13.78248 -4.128,-8.38999 -3.5538,-14.26162 1.5859,-16.21572 2.0279,-0.77102 2.4392,-1.60595 2.4392,-4.95213 0,-4.42189 -0.482,-4.80352 -3.0881,-2.44505 -2.6165,2.36796 -5.9119,0.28797 -5.9119,-3.73152 0,-2.63833 0.3021,-3.00245 2.1006,-2.53211 1.1554,0.30213 3.1908,0.0526 4.5232,-0.55445 l 2.4226,-1.10378 -2.6517,-2.76777 c -2.447,-2.55408 -2.8239,-2.65493 -4.8823,-1.30624 -4.1626,2.72744 -5.4433,1.03823 -4.8644,-6.415855 l 0.5178,-6.66797 -4.8862,-7 c -5.6463,-8.08883 -8.1423,-9.35696 -18.5868,-9.44356 -12.4933,-0.10359 -19.4371,-3.0337 -16.8826,-7.12408 1.6042,-2.56886 1.5822,-2.61705 -1.5546,-3.40435 -2.9719,-0.74591 -5.2556,-2.29819 -5.2556,-3.57241 0,-1.2146 12.0084,-6.9556 14.5489,-6.9556 1.2263,0 3.1932,-0.7875 4.3711,-1.75 1.9858,-1.62268 2.0282,-1.91066 0.5834,-3.95812 -0.857,-1.21446 -2.1753,-1.97128 -2.9296,-1.68182 -1.841,0.70646 -2.8722,-1.13496 -1.3128,-2.34431 0.6814,-0.52847 3.9181,-2.04195 7.1926,-3.3633 3.2745,-1.32135 7.4081,-3.85102 9.1857,-5.62149 2.5866,-2.57614 5.0166,-3.64314 12.1671,-5.34257 8.3151,-1.97623 9.1485,-2.01306 12.0146,-0.53096 4.2323,2.18864 5.513,2.08524 4.2149,-0.34028 -1.6028,-2.99494 2.0326,-3.57281 7.437,-1.18217 4.4376,1.96298 5.7126,1.70049 3.3271,-0.68498 -0.9333,-0.93334 -0.9074,-1.2 0.1166,-1.2 0.8063,0 1.1219,-0.74465 0.8143,-1.92088 -0.472,-1.80495 0.2391,-1.94074 11.7816,-2.25 9.9824,-0.26746 12.64564,-0.657 14.21444,-2.07912 1.6138,-1.4628604 3.906,-1.7500004 13.9695,-1.7500004 h 12.0389 l 7.17711,4.1552404 c 4.98973,2.88884 6.8587,4.47365 6.13235,5.2 -1.57165,1.57164 -1.294,2.21016 1.51818,3.49148 l 2.56294,1.16775 -1.92116,2.74277 c -1.05663,1.50851 -2.46789,3.78721 -3.13612,5.06376 l -1.21497,2.32101 2.82319,-1.77814 c 1.55275,-0.97797 4.04882,-2.7709 5.54683,-3.98427 1.68256,-1.36286 3.51078,-2.00031 4.78288,-1.66764 1.18832,0.31075 2.84365,-0.17139 3.91394,-1.13999 1.39166,-1.25943 3.31592,-1.60278 7.7074,-1.37523 7.60038,0.39381 8.30235,2.48203 2.06344,6.13827 -2.42417,1.42066 -5.18142,3.76405 -6.12723,5.20753 -0.9458,1.44348 -3.25964,3.26796 -5.14186,4.0544 -2.01544,0.84211 -3.4297,2.14375 -3.44042,3.16648 -0.01,0.95512 -1.3896,3.76086 -3.06576,6.23498 -2.82229,4.16588 -2.90727,4.53549 -1.14956,5 2.52801,0.66809 8.56026,7.66391 7.74531,8.98253 -0.42147,0.68195 -1.38635,0.51991 -2.79994,-0.47021 -1.18627,-0.8309 -2.73173,-1.51072 -3.43436,-1.51072 -2.16377,0 -1.4131,4.52397 1.15028,6.93214 1.33527,1.25442 2.25748,2.79536 2.04937,3.42431 -0.20812,0.62895 -0.88144,3.1061 -1.49626,5.50477 -0.61483,2.39868 -2.29684,5.45387 -3.73781,6.78931 -2.56584,2.37795 -2.8669,3.23167 -3.64955,10.349465 -0.21166,1.925 -0.4318,3.84863 -0.48918,4.27475 -0.0574,0.42611 -1.22934,1.20247 -2.60434,1.72525 -1.53056,0.58192 -2.5,1.73565 -2.5,2.97525 0,1.66924 0.65843,2.02851 3.75,2.04615 l 3.75,0.0214 -6.90879,4.47544 c -6.68559,4.33085 -11.93971,6.44992 -16.09121,6.48984 -4.414,0.0424 -6.5713,1.42788 -9.619,6.17739 -3.6244,5.64803 -5.8599,7.32423 -10.9558,8.21473 -4.47824,0.78255 -7.92524,3.90913 -7.92524,7.18842 0,2.88696 -2.1632,7.47203 -4.4018,9.3299 -1.1346,0.9416 -1.3816,2.38294 -0.949,5.53856 0.5066,3.6962 0.2723,4.48448 -1.7548,5.90432 -2.8799,2.01714 -2.9091,2.01706 -5.8122,-0.0164 z m 65.66784,-16.07347 c -4.1489,-0.43399 -4.55199,-0.96461 -2.09665,-2.76 1.45482,-1.0638 1.25626,-1.34739 -1.6536,-2.36177 -3.25397,-1.13434 -3.27736,-1.18552 -1.45952,-3.19422 1.80421,-1.99362 1.79666,-2.05468 -0.3225,-2.60885 -1.77423,-0.46397 -1.98552,-0.91205 -1.15865,-2.45707 1.31772,-2.46219 3.39127,-2.39597 5.7959,0.18509 1.46811,1.57584 2.37919,1.84458 3.78895,1.11762 1.02084,-0.5264 3.65607,-1.39814 5.85607,-1.93719 2.2,-0.53905 4.71625,-1.28778 5.59166,-1.66385 1.1251,-0.48332 2.66735,0.629 5.2614,3.79469 l 3.66974,4.47844 -8.12719,4.06779 c -4.46996,2.23728 -8.86259,3.99214 -9.76141,3.89969 -0.89881,-0.0925 -3.3217,-0.34462 -5.3842,-0.56037 z M 652.66115,97.75506 c -0.90093,-1.375 -2.45975,-2.5 -3.46403,-2.5 -3.53904,0 -3.22367,-1.80252 1.47971,-8.457335 1.05805,-1.49703 1.98343,-3.46905 2.05642,-4.38227 0.073,-0.91321 1.76817,-3.92706 3.76709,-6.69744 4.27734,-5.92813 15.13124,-12.20099 22.61875,-13.0722 2.54871,-0.29655 6.29732,-1.23822 8.33024,-2.0926 4.30067,-1.80743 6.80378,-1.1978 6.80378,1.65704 0,2.15525 -2.65315,3.56348 -13.31757,7.06863 -3.19967,1.05166 -7.10907,2.93902 -8.68755,4.19414 -1.57849,1.25512 -4.05041,3.11116 -5.49316,4.12453 -8.08163,5.67645 -10.92948,15.503025 -5.8557,20.205255 l 2.64603,2.45225 h -4.62297 c -3.82769,0 -4.90477,-0.43008 -6.26104,-2.5 z m 346.26735,0.84201 c -1.4805,-1.48049 1.8321,-3.34201 5.9471,-3.34201 3.0604,0 4.3775,0.41622 4.3775,1.38337 0,2.09312 -8.5653,3.718 -10.3246,1.95864 z M 161.25307,95.37621 c -1.375,-1.54052 -3.14,-3.01133 -3.9222,-3.268455 -1.1478,-0.37729 -0.9755,-1.26241 0.8928,-4.58652 1.7439,-3.1029 2.1684,-5.02186 1.721,-7.77895 l -0.5939,-3.65994 5.7012,0.50896 c 13.5028,1.20544 19.2011,3.024 19.2011,6.12791 0,0.6706 -1.7736,1.75067 -3.9414,2.40015 -3.4671,1.03876 -11.0586,8.010095 -11.0586,10.155175 0,0.53656 -4.579,3.07938 -5.2971,2.94157 -0.1116,-0.0214 -1.3279,-1.29938 -2.7029,-2.8399 z m 67.0044,-2.11499 c -0.7904,-1.09661 -2.9147,-2.481505 -4.7207,-3.077555 -2.2572,-0.74493 -3.2837,-1.70953 -3.2837,-3.08561 0,-1.7041 0.4463,-1.90388 3,-1.34299 3.1255,0.68647 3.8547,-0.24531 1.8,-2.3 -1.6779,-1.67794 0.03,-3.13582 4.5278,-3.86578 4.6304,-0.7514 7.116,0.96799 5.5715,3.85397 -0.8092,1.5119 -0.6864,2.38963 0.521,3.72373 2.1576,2.38415 1.9859,5.800325 -0.3546,7.052885 -2.9585,1.58337 -5.4754,1.24168 -7.0613,-0.95865 z m 664.2039,-9.682355 c -1.85533,-0.74443 0.45717,-3.3238 2.97993,-3.3238 2.44209,0 5.81181,1.75981 5.81181,3.03518 0,0.99509 -6.49927,1.20845 -8.79174,0.28862 z m -626.2083,-7.03025 c -5.225,-0.16025 -10.481,-0.51753 -11.6801,-0.79396 -3.0776,-0.70952 -5.3199,-3.23829 -5.3199,-5.99959 0,-3.35966 -2.2337,-5.158 -7.3619,-5.92702 -4.4693,-0.67021 -6.0987,-2.20967 -4.7126,-4.45242 0.5602,-0.90639 1.4506,-0.92623 3.6575,-0.0815 3.9171,1.49938 12.0196,1.49566 18.2893,-0.008 5.2263,-1.25378 6.3625,-2.34285 3.5643,-3.41659 -2.5797,-0.98992 -0.4283,-2.86239 2.5942,-2.25789 1.913,0.3826 2.9638,0.10031 3.3474,-0.89926 0.4076,-1.06225 -0.2,-1.4569 -2.2429,-1.4569 -3.8124,0 -4.4282,-0.90408 -2.5589,-3.75694 2.5403,-3.87693 0.832,-3.77782 -2.6183,0.15192 -3.7352,4.25411 -7.0593,4.65787 -12.4009,1.50624 -3.7665,-2.22226 -4.3451,-3.67845 -2.3072,-5.80658 1.0215,-1.06674 0.6679,-1.18281 -1.9343,-0.63496 -2.7003,0.56847 -3.4392,0.28154 -4.8603,-1.88737 -1.9996,-3.05183 -1.3861,-6.43817 1.8017,-9.94404 3.6186,-3.97958 6.0909,-4.13966 10.0635,-0.6516 1.9165,1.6827 4.8487,3.53499 6.516,4.11621 1.6673,0.58122 3.7465,2.14809 4.6205,3.48194 1.8929,2.88904 3.9316,3.22509 3.0685,0.50583 -0.7201,-2.26871 1.5528,-3.27272 6.6339,-2.93052 1.8409,0.12397 4.1836,-0.24274 5.206,-0.81492 1.6436,-0.9198 1.4774,-1.11664 -1.4347,-1.69905 -1.8115,-0.3623 -4.787,-0.37857 -6.6122,-0.0362 -2.1408,0.40161 -3.3186,0.22815 -3.3186,-0.48872 0,-0.61121 -1.5131,-1.11129 -3.3625,-1.11129 -2.2305,0 -4.6333,-1.00992 -7.1375,-3 -2.0763,-1.65 -4.2596,-3 -4.8518,-3 -0.5922,0 -0.3778,-0.69893 0.4764,-1.55318 0.8543,-0.85425 4.2791,-1.93849 7.6108,-2.40942 3.3316,-0.47093 6.9746,-1.347 8.0953,-1.94682 1.1208,-0.59982 3.7549,-1.09355 5.8536,-1.09717 2.124,-0.004 5.1457,-0.88743 6.8157,-1.99341 1.884,-1.24773 4.6926,-1.98928 7.55,-1.99341 2.5025,-0.004 5.065,-0.52156 5.6944,-1.15096 0.8591,-0.85915 1.8908,-0.83515 4.1396,0.0963 1.6474,0.68238 3.5772,0.88102 4.2885,0.44143 1.8554,-1.14668 16.1771,-0.4458 16.9657,0.83028 0.3902,0.63135 2.1544,0.82826 4.3005,0.48 3.2005,-0.51937 7.7153,1.05106 11.5018,4.00082 1.3468,1.0492 -3.4351,3.29458 -10.4405,4.90241 l -8,1.8361 4.9961,0.5285 4.996,0.52851 -4.3109,1.93111 c -4.8972,2.19376 -15.0879,8.56889 -13.6975,8.56889 0.504,0 0.3772,0.53904 -0.2816,1.19787 -0.6588,0.65884 -4.1666,1.50515 -7.795,1.88071 -4.435,0.45904 -7.1395,1.2775 -8.2521,2.49735 -1.1373,1.24696 -1.1858,1.4684 -0.155,0.70796 0.825,-0.60862 2.7596,-0.86479 4.2991,-0.56928 3.3491,0.64288 3.3225,3.28687 -0.048,4.76953 -1.4461,0.63614 -2.0513,1.56996 -1.7115,2.64077 0.3731,1.17551 -0.3549,1.96366 -2.5069,2.71384 -1.668,0.58146 -3.0327,1.71812 -3.0327,2.52589 0,0.80778 -0.5625,1.73119 -1.25,2.05202 -1,0.46667 -1,0.7 0,1.16667 1.8144,0.84671 1.5316,3.08203 -0.5,3.9525 -0.9625,0.4124 -5.8,0.92428 -10.75,1.13751 -11.3867,0.49051 -11.295,0.49195 -15.6319,-0.24632 -4.3694,-0.74381 -5.8266,0.85635 -3.3111,3.63599 2.048,2.26297 10.2751,2.66679 16.4766,0.80876 2.9612,-0.88717 4.4282,-0.83501 6.8661,0.24411 3.3386,1.47782 3.6329,2.353 2.125,6.31902 -0.7578,1.99329 -1.5937,2.51883 -3.75,2.35755 -1.5261,-0.11414 -7.0497,-0.33865 -12.2747,-0.4989 z m -78.5,-2.29355 c -0.425,-1.33901 -1.5214,-2.00506 -3.3174,-2.01532 -3.4895,-0.0199 -5.6161,-1.41253 -4.9215,-3.22284 0.442,-1.15165 -0.4291,-1.38984 -4.35,-1.18952 -2.6964,0.13776 -5.1561,-0.15966 -5.4659,-0.66093 -0.3098,-0.50126 -1.4367,-0.91139 -2.5042,-0.91139 -1.0676,0 -1.941,-0.675 -1.941,-1.5 0,-0.825 0.4977,-1.5 1.1061,-1.5 0.6083,0 2.7458,-1.29426 4.75,-2.87613 2.0041,-1.58187 5.5564,-3.19642 7.8939,-3.58789 4.2438,-0.71074 4.25,-0.70722 4.25,2.4075 0,3.46054 -2.179,4.98277 -4.443,3.10383 -1.1296,-0.93748 -1.6513,-0.73969 -2.5683,0.97377 -1.4814,2.76813 -0.741,3.45188 2.0948,1.93425 1.2401,-0.66369 4.5586,-1.26265 7.3744,-1.33102 4.9024,-0.11904 6.0086,0.32146 12.0985,4.8177 0.8326,0.61466 1.8194,0.491 2.8398,-0.35588 1.3999,-1.16179 1.3396,-1.47951 -0.5753,-3.03006 -2.6799,-2.17009 -1.6393,-4.05607 2.2381,-4.05607 2.4353,0 2.941,0.41144 2.941,2.39301 0,2.54277 1.6469,3.60699 5.5818,3.60699 3.4243,0 3.1394,3.14274 -0.4787,5.28001 -1.8775,1.10907 -3.9401,1.50259 -5.8615,1.11831 -1.8286,-0.36573 -4.1482,0.0191 -6.0534,1.00438 -4.4844,2.31895 -9.889,2.11532 -10.6882,-0.4027 z m 50.1667,0.33333 c -0.3667,-0.36667 -0.6667,-1.49167 -0.6667,-2.5 0,-2.21462 -2.2809,-2.4047 -4,-0.33333 -1.9372,2.33412 -6.6551,1.92696 -7.3243,-0.63208 -0.5708,-2.18295 -0.54,-2.18227 -7.0396,-0.15614 -1.5283,0.47643 -1.7438,0.20282 -1.197,-1.5198 0.4078,-1.28507 0.011,-3.10138 -1.0216,-4.67761 -2.0369,-3.1086 -1.1476,-4.48506 1.4051,-2.17491 2.0561,1.86076 4.7425,2.1733 5.6774,0.66054 0.7138,-1.15498 6.474,-1.32195 8.096,-0.23469 0.6028,0.40408 1.3989,1.97219 1.7691,3.48469 0.6329,2.58601 1.0017,2.75 6.1853,2.75 4.1928,0 5.6634,0.39369 6.1435,1.6446 1.0883,2.83611 -5.7414,5.97455 -8.0272,3.68873 z m 647.00001,-1 c -1.03058,-1.03058 -0.78777,-4.81223 0.38423,-5.98423 0.9712,-0.9712 15.74231,-0.87384 18.62148,0.12275 0.6448,0.22319 0.95226,1.24753 0.68323,2.2763 -0.39289,1.50242 -2.10964,2.10479 -8.72428,3.06117 -9.58068,1.38522 -10.07961,1.40907 -10.96466,0.52401 z m 23.80986,-0.37131 c -1.19477,-1.93318 0.80346,-2.62333 6.32351,-2.18404 3.39895,0.2705 5.16422,0.83433 4.92139,1.5719 -0.50939,1.54728 -10.33634,2.08223 -11.2449,0.61214 z m -361.95153,-13.3307 c -1.63625,-1.72223 -2.86492,-3.64639 -2.73037,-4.27591 0.13455,-0.62953 -1.2267,-2.30059 -3.025,-3.71349 -6.42391,-5.04716 -6.76963,-5.53956 -6.76963,-9.64192 0,-3.75994 0.1765,-4 2.94098,-4 1.61754,0 3.22012,0.45165 3.56129,1.00367 0.34116,0.55202 1.71772,0.72823 3.05902,0.39159 2.05633,-0.51611 2.45109,-0.24229 2.51766,1.74633 0.0748,2.23421 0.1323,2.21219 1.09224,-0.41833 1.26019,-3.45328 7.38984,-6.73032 12.53897,-6.70359 4.00824,0.0208 19.10872,2.46587 19.85829,3.21545 0.85094,0.85093 -9.36576,5.76488 -11.9859,5.76488 -1.45573,0 -4.26229,-0.675 -6.23679,-1.5 -4.41957,-1.84662 -5.34576,-1.87404 -5.34576,-0.15829 0,0.73794 1.79738,1.88022 3.99418,2.5384 2.64872,0.79357 4.47615,2.12872 5.425,3.9636 0.78696,1.5218 2.69758,3.34409 4.24583,4.04952 2.71245,1.23587 2.74465,1.33405 0.88387,2.69468 -1.06213,0.77665 -3.42013,1.41209 -5.24001,1.41209 -3.19368,0 -3.30887,-0.13925 -3.30887,-4 0,-3.22133 -0.35916,-4 -1.84501,-4 -2.53412,0 -4.62577,2.55447 -7.60188,9.28398 -1.39034,3.14381 -2.64606,5.66261 -2.7905,5.59734 -0.14444,-0.0653 -1.60136,-1.52777 -3.23761,-3.25 z m -356.89044,-4.21421 c -1.5759,-1.38582 -2.7009,-2.65862 -2.5,-2.82843 0.201,-0.16982 3.2707,-0.59954 6.8216,-0.95494 4.7928,-0.4797 6.1656,-0.35555 5.3282,0.48189 -0.6205,0.62044 -0.9209,1.66809 -0.6676,2.3281 0.4048,1.05506 -3.5193,3.60984 -5.4139,3.52467 -0.3866,-0.0174 -1.9923,-1.16546 -3.5683,-2.55129 z m 63.1154,1.83363 c -0.9625,-0.21857 -1.75,-0.8144 -1.75,-1.32407 0,-1.20811 3.7102,-1.20459 4.4573,0.004 0.7487,1.2115 -0.5011,1.82082 -2.7073,1.31984 z m -15.2,-2.11851 c 1.4431,-1.31816 6.8771,-2.10433 8.3316,-1.20539 0.921,0.5692 0.623,0.97361 -1.0471,1.42076 -3.5015,0.93756 -8.3885,0.79308 -7.2845,-0.21537 z m -12.5344,-3.18963 c -1.9164,-1.06843 -5.1308,-1.9426 -7.143,-1.9426 -2.3296,0 -3.8677,-0.54488 -4.2342,-1.5 -0.3507,-0.91371 0,-1.5 0.893,-1.5 2.173,0 1.782,-1.68478 -0.5314,-2.28975 -1.1,-0.28766 -2,-1.01514 -2,-1.61663 0,-1.87397 3.7859,-1.21059 10.522,1.84366 5.9212,2.68483 6.478,3.20052 6.478,6 0,1.68449 -0.1125,3.03689 -0.25,3.00532 -0.1375,-0.0316 -1.818,-0.93156 -3.7344,-2 z m 8.5195,-1.52937 c -2.1205,-3.23627 -1.5521,-3.82661 2.8832,-2.99454 4.3134,0.80919 5.4891,2.4446 3.0433,4.23301 -2.6749,1.95596 -4.0172,1.67546 -5.9265,-1.23847 z m 547.77785,-1.21795 c 1.4779,-1.5426 2.68709,-3.5676 2.68709,-4.5 0,-1.03755 0.78842,-1.69528 2.03212,-1.69528 3.31523,0 8.96788,2.77986 8.96788,4.41023 0,1.69249 -8.43887,4.58977 -13.36859,4.58977 h -3.00559 z m -590.31295,-0.0975 c 0,-1.0185 5.3916,-3.09783 8.0326,-3.09783 0.9538,0 1.9695,0.9 2.2571,2 0.4754,1.81787 0.031,2 -4.8833,2 -2.9735,0 -5.4064,-0.40598 -5.4064,-0.90217 z m 581.00004,-2.39504 c -5.2809,-2.54964 -9.02732,-5.27149 -9.56996,-6.95279 -0.31065,-0.9625 -1.41866,-1.75 -2.46224,-1.75 -2.45359,0 -4.42216,-3.42544 -2.69679,-4.69256 3.8686,-2.84112 8.59854,-4.44253 12.22899,-4.14036 4.07893,0.33949 4.59854,1.23274 3.39307,5.83292 -0.28848,1.10087 0.60475,1.58259 3.35693,1.81037 4.06429,0.33637 4.22046,0.71019 3.10815,7.43963 -0.68164,4.12392 -2.58363,4.75794 -7.35815,2.45279 z m -544.29244,-6.84654 c -1.8911,-1.05831 -1.4225,-2.85625 0.7444,-2.85625 1.4916,0 2.8661,2.68535 1.733,3.38568 -0.4003,0.24736 -1.5151,0.009 -2.4774,-0.52943 z"
       id="path987"
       inkscape:connector-curvature="0" />
    <path
       inkscape:connector-curvature="0"
       id="path1008"
       d="m 553.85027,506.9078 c -0.55796,-1.82954 -1.30541,-4.62889 -1.661,-6.22079 -0.35559,-1.59188 -2.13462,-6.70255 -3.95341,-11.35705 -1.81878,-4.65449 -4.43048,-12.8558 -5.80377,-18.22511 -1.37329,-5.36932 -3.39125,-12.08782 -4.48436,-14.93001 -2.52939,-6.57665 -2.5071,-11.11839 0.0959,-19.53198 3.51064,-11.34748 1.34851,-23.16349 -6.77469,-37.02364 l -3.42761,-5.84832 1.04155,-7.42254 c 1.24235,-8.85346 0.59604,-10.48587 -4.47249,-11.29636 -2.06958,-0.33094 -5.90399,-2.12398 -8.52092,-3.98456 -5.12398,-3.643 -4.77823,-3.65034 -13.32738,0.28252 -3.54169,1.62929 -6.41721,2.03779 -14.46608,2.05507 l -10.04574,0.0216 -4.09427,-5.15707 c -2.25185,-2.83639 -6.96707,-9.46115 -10.47827,-14.72168 l -6.384,-9.5646 0.61476,-5.8817 c 0.33812,-3.23494 0.14566,-9.36744 -0.4277,-13.62779 l -1.04246,-7.74608 4.93545,-9.83503 c 3.57091,-7.11586 6.03135,-10.70299 8.89925,-12.97441 2.80013,-2.21774 4.28451,-4.34526 5.05623,-7.24689 1.62171,-6.09763 3.39527,-9.41074 8.24598,-15.40395 6.1284,-7.57184 5.78886,-10.75731 -1.46697,-13.76277 -3.10295,-1.28528 -3.13159,-1.35904 -2.44354,-6.2932 0.38291,-2.74598 0.62875,-7.913 0.5463,-11.48229 l -0.1499,-6.4896 4.61148,-0.63207 c 2.53631,-0.34764 7.20199,-0.63207 10.36818,-0.63207 h 5.7567 v -5.46723 c 0,-5.80584 -1.22788,-9.26727 -3.28739,-9.26727 -0.68952,0 -2.2749,-0.95143 -3.52309,-2.11429 l -2.26942,-2.11429 5.34179,-1.65278 c 7.36193,-2.27781 10.97537,-4.60014 12.99615,-8.35251 2.52821,-4.69459 11.81241,-13.48623 15.52088,-14.69742 3.49102,-1.14018 3.72555,-2.2803 2.23342,-10.8573 -0.57045,-3.27903 -0.33997,-4.24642 1.38325,-5.80591 1.13726,-1.02922 2.17555,-1.68982 2.30731,-1.46803 0.13175,0.2218 1.23931,2.35842 2.46124,4.74806 l 2.22169,4.34478 -1.97612,2.10348 c -1.08686,1.15691 -1.97611,2.833 -1.97611,3.72463 0,1.73501 3.26194,3.9947 4.2869,2.96974 0.33881,-0.33881 2.54977,-0.54288 4.91325,-0.45348 2.36347,0.0894 5.88748,-0.50191 7.83113,-1.31402 1.94366,-0.81211 5.04112,-1.47657 6.88325,-1.47657 3.98225,0 5.14164,-1.18749 6.08439,-6.23185 0.38815,-2.07687 1.68383,-4.91323 2.87928,-6.30304 l 2.17357,-2.52691 0.62211,3.11055 c 0.34216,1.71081 1.06677,3.11055 1.61025,3.11055 1.63915,0 2.37882,-5.04233 1.32101,-9.00542 -0.54632,-2.04681 -0.76262,-3.95216 -0.48066,-4.23412 0.28196,-0.28196 2.39936,-0.51266 4.70534,-0.51266 5.54355,0 8.76463,-1.3203 10.80018,-4.42694 1.31026,-1.99971 1.41307,-2.80413 0.47639,-3.72747 -0.92967,-0.91643 -1.45403,-0.8264 -2.36545,0.40615 -0.81984,1.10871 -2.14952,1.43996 -4.43414,1.10465 -1.79472,-0.26341 -4.26049,0.0548 -5.47948,0.70723 -1.219,0.65238 -3.50372,1.03936 -5.07716,0.85994 -2.55619,-0.29147 -2.95641,-0.82103 -3.75865,-4.97333 -1.16882,-6.04962 0.31741,-10.92805 4.81056,-15.79027 2.08486,-2.25611 3.45453,-4.73897 3.45453,-6.26216 0,-2.31578 -0.25933,-2.47201 -3.14526,-1.89482 -3.37969,0.67594 -7.66004,4.08839 -7.66004,6.10688 0,0.68002 -2.4256,4.24975 -5.39021,7.93275 -6.03417,7.49632 -6.88695,11.39141 -3.45049,15.76015 2.48318,3.15685 2.48332,4.83894 5.8e-4,6.38944 -1.08021,0.67461 -2.66076,3.32427 -3.51235,5.88814 -1.53795,4.63036 -5.51623,8.61876 -8.59686,8.61876 -0.85896,0 -1.99048,-1.56179 -2.66878,-3.68362 -1.83205,-5.73093 -5.04498,-13.01838 -5.72628,-12.98815 -0.33867,0.015 -2.35214,1.34114 -4.47437,2.9469 -2.12224,1.60577 -4.41786,2.91957 -5.10138,2.91957 -2.81676,0 -4.30106,-4.26348 -4.30106,-12.3543 v -7.98797 l 6.78003,-6.02573 c 6.1653,-5.4794 14.04922,-15.83687 17.02334,-22.36436 0.99877,-2.19206 0.90282,-2.75602 -0.66379,-3.90155 -1.68255,-1.23032 -1.32029,-1.57648 4.45922,-4.26114 3.4598,-1.60712 7.39564,-3.58084 8.7463,-4.38604 1.35066,-0.80521 5.92429,-3.07579 10.16362,-5.04574 5.72953,-2.66243 8.37682,-3.40451 10.31415,-2.89124 1.43345,0.37978 4.28948,0.84871 6.34672,1.04208 4.63235,0.43541 5.59141,1.00393 5.59141,3.31454 0,2.03527 6.21596,5.47149 11.81117,6.52928 8.01847,1.51592 17.65783,7.94668 17.65783,11.78017 0,1.51947 -4.93481,4.3131 -7.61888,4.3131 -1.00246,0 -4.59644,-0.93672 -7.98663,-2.08161 -7.37886,-2.49188 -9.94832,-1.40467 -5.11883,2.16592 2.27783,1.68408 3.04294,3.02471 3.04294,5.33184 0,3.78904 3.4829,7.35375 7.18499,7.35375 3.11183,0 3.17141,-0.23735 0.92165,-3.67092 -1.67219,-2.55209 -1.66587,-2.59889 0.24557,-1.81859 6.02331,2.45884 8.76401,1.87673 7.48191,-1.58913 -0.68946,-1.86379 -0.35075,-2.53356 2.00607,-3.96683 1.55958,-0.94844 4.21494,-1.72443 5.9008,-1.72443 h 3.0652 l -0.58261,-6.23906 -0.58261,-6.23907 2.48586,0.47521 c 2.81107,0.53737 4.2157,2.97568 2.37096,4.11579 -2.11988,1.31016 -0.73746,4.42398 2.11059,4.75397 1.95203,0.22617 3.06771,-0.36099 4.32133,-2.27426 0.92946,-1.41853 4.25979,-3.87642 7.40075,-5.46196 6.36582,-3.21346 9.23656,-3.69751 8.35852,-1.40937 -0.75205,1.95983 0.20981,1.86182 5.74121,-0.58498 4.40361,-1.94792 5.80314,-1.99371 11.06754,-0.36206 1.88234,0.58341 2.21018,0.32342 2.21018,-1.75282 0,-1.34082 -0.98332,-3.68792 -2.18513,-5.21579 -1.61472,-2.05278 -1.77306,-2.61981 -0.60655,-2.17218 0.86821,0.33316 4.59897,1.53866 8.29057,2.67888 3.69159,1.14022 8.75512,3.38419 11.25228,4.98661 2.49714,1.60242 4.8331,2.91349 5.191,2.91349 1.30709,0 0.59317,-2.95119 -1.80502,-7.46158 -1.35067,-2.54024 -2.45575,-5.6071 -2.45575,-6.81523 0,-1.20813 2.01241,-4.64105 4.47201,-7.62871 4.14297,-5.032424 4.68268,-5.371688 7.33525,-4.610941 4.69328,1.346013 5.01681,1.814855 3.40425,4.933191 -1.15207,2.22787 -1.26933,3.80445 -0.52873,7.10916 0.52341,2.33554 1.06288,7.25905 1.19883,10.94114 l 0.24717,6.6947 -4.07493,3.80105 c -4.46616,4.166 -4.13334,5.27075 1.28183,4.25486 3.92652,-0.73662 6.83822,-4.4231 7.89023,-9.98976 0.67668,-3.58059 2.63092,-4.13107 5.48763,-1.54578 1.4185,1.28373 2.08026,1.38603 3.00216,0.46411 2.07877,-2.07876 -0.51868,-4.50447 -5.60625,-5.23559 -2.56052,-0.36797 -4.82574,-0.83928 -5.03382,-1.04736 -0.20808,-0.20808 0.0167,-1.7558 0.49956,-3.43938 0.54073,-1.88539 0.49722,-4.5608 -0.11326,-6.96592 -0.86925,-3.4246 -0.71604,-4.27698 1.2457,-6.930382 2.67983,-3.624663 3.48335,-3.282512 2.03673,0.867268 -0.89839,2.577144 -0.76735,3.325554 0.86873,4.961644 1.05969,1.05969 2.56367,1.92671 3.34218,1.92671 2.27017,0 2.96338,-2.15332 1.12578,-3.497 -1.44254,-1.05481 -1.50144,-1.53324 -0.40494,-3.289034 1.53275,-2.454311 2.13639,-2.518514 5.14498,-0.547212 3.30632,2.166386 7.95577,3.325336 9.50339,2.368856 0.73204,-0.45242 1.12276,-0.98041 0.86827,-1.1733 -0.25448,-0.192895 -1.6783,-1.111191 -3.16403,-2.040659 -3.09474,-1.936068 -3.36437,-3.64873 -1.1149,-7.081862 1.38805,-2.118424 2.30777,-2.42119 7.35494,-2.42119 5.65553,0 5.81676,-0.07646 8.2332,-3.904351 1.3556,-2.147394 3.4608,-4.53637 4.67826,-5.308837 1.21744,-0.772466 7.73897,-2.342928 14.49228,-3.489915 15.29292,-2.597357 20.45951,-4.406463 21.66893,-7.587468 0.87365,-2.29786 6.06251,-5.249231 9.22879,-5.249231 0.8205,0 2.13825,1.547123 2.92832,3.43805 l 1.43652,3.438051 h 8.32837 c 7.82729,0 8.45088,0.155724 10.36428,2.588222 1.11974,1.423522 2.03589,3.152368 2.03589,3.841879 0,1.81029 -4.45861,5.296973 -13.08496,10.232598 -4.14883,2.373782 -7.54334,4.67917 -7.54334,5.123084 0,1.347609 2.82834,0.912737 7.70333,-1.18443 4.41066,-1.897414 5.09428,-1.926582 14.46332,-0.61708 5.77269,0.806845 11.58661,2.268665 14.07807,3.539716 3.66575,1.870128 4.63638,2.002815 7.12136,0.973506 1.5824,-0.655456 3.3178,-2.015184 3.85643,-3.021617 1.10452,-2.06382 4.43025,-2.341837 9.886,-0.826429 3.7894,1.052556 4.73836,2.751593 4.76299,8.527757 0.0197,4.618856 1.92395,8.150196 4.39498,8.150196 2.56541,0 4.45913,-1.75209 4.45913,-4.12566 0,-2.19814 1.31233,-2.24081 4.5085,-0.1466 2.06562,1.35344 3.56218,1.47525 9.05172,0.73672 5.80583,-0.78107 6.61454,-1.15014 6.89776,-3.14791 0.47231,-3.33162 3.47897,-3.972727 14.32231,-3.053929 8.3975,0.711555 10.08081,1.158983 12.27875,3.263719 3.45793,3.31133 11.29932,6.65205 15.12687,6.44462 9.15235,-0.496 10.61857,-0.0939 14.30139,3.92261 l 3.57015,3.89357 10.44931,-0.59727 c 10.0666,-0.5754 10.49175,-0.51794 11.60848,1.56869 1.67482,3.12942 5.34967,2.39812 5.75743,-1.14573 0.36776,-3.19611 1.18818,-3.28884 10.94292,-1.23686 7.7003,1.6198 12.0368,3.58846 21.8989,9.94143 4.4799,2.88589 6.6305,4.89611 6.6305,6.19771 0,1.05955 0.442,2.19964 0.9823,2.53354 0.5403,0.3339 0.9823,-0.082 0.9823,-0.92433 0,-2.28044 2.4154,-1.86582 7.4745,1.28302 l 4.5218,2.81443 -2.9883,1.0417 c -1.7062,0.59481 -3.6582,2.33729 -4.5499,4.06167 -1.816,3.5118 -3.0655,3.74786 -5.8737,1.1097 -1.9583,-1.83971 -12.6288,-7.91274 -13.903,-7.91274 -0.3417,0 -0.4261,1.32955 -0.1876,2.95455 0.3989,2.71745 0.1319,3.0358 -3.3265,3.96706 -4.0684,1.0955 -4.4483,2.06708 -2.2868,5.84829 2.2041,3.85567 1.8834,6.86811 -0.7367,6.91922 -3.9978,0.078 -9.5074,2.61086 -15.15217,6.96578 -5.26569,4.06246 -5.89698,4.28786 -12.02452,4.2933 -7.4567,0.007 -12.36026,2.39122 -15.67156,7.62108 -1.83148,2.8926 -1.8637,3.27598 -0.41039,4.88188 1.39021,1.53615 1.42408,2.38096 0.28572,7.12615 -0.73436,3.0612 -2.89468,7.61455 -5.0081,10.55567 -2.04414,2.84475 -4.9756,6.93758 -6.51435,9.09517 -4.49046,6.29637 -5.80783,5.76648 -6.57865,-2.6461 -0.36136,-3.94383 -0.21539,-10.26484 0.32438,-14.0467 0.85278,-5.97505 1.38784,-7.1979 4.08317,-9.33185 4.77875,-3.78345 11.95806,-10.92389 14.8147,-14.7345 3.06977,-4.0949 4.03155,-6.90799 2.95,-8.62839 -0.95659,-1.52163 -4.07382,-0.53076 -4.07382,1.29494 0,1.28507 -4.4967,5.36885 -5.91171,5.36885 -0.40439,0 -0.96644,-0.88407 -1.24901,-1.9646 -0.36772,-1.40618 -1.33987,-1.9646 -3.42014,-1.9646 -3.70994,0 -7.60257,3.06607 -10.09481,7.95126 l -1.95716,3.83634 h -10.60492 c -5.83271,0 -13.22782,0.47293 -16.43357,1.05095 -5.58279,1.00661 -6.23258,1.45122 -15.40606,10.54129 -5.26758,5.21969 -9.57742,10.02612 -9.57742,10.68096 0,1.9966 4.16566,4.2489 7.8584,4.2489 4.36158,0 7.8584,2.35893 7.8584,5.30122 0,4.46043 -4.0025,17.93533 -7.3633,24.78943 -3.95555,8.06706 -11.84359,17.05976 -14.96415,17.05976 -1.88754,0 -3.5969,1.46927 -11.58222,9.95544 -2.9666,3.15266 -2.97167,3.36552 -0.26524,11.1203 2.55287,7.31474 1.65923,11.34016 -2.5175,11.34016 -2.41458,0 -3.58189,-2.74981 -3.58189,-8.43778 0,-1.26412 -0.83263,-2.74401 -1.85029,-3.28864 -1.01766,-0.54464 -2.14277,-2.54935 -2.50026,-4.45491 -0.35749,-1.90558 -1.07211,-3.46467 -1.58805,-3.46467 -0.51594,0 -2.15354,2.31207 -3.63911,5.13793 -1.48558,2.82586 -4.13766,6.55347 -5.89352,8.28359 -3.83099,3.77481 -3.88875,5.09257 -0.72452,16.53172 1.34395,4.85859 2.44355,9.59856 2.44355,10.53327 0,2.70242 -8.94804,16.46878 -12.4317,19.1259 -4.31222,3.28908 -12.2511,6.18104 -17.29342,6.29961 -7.11696,0.16734 -8.90889,1.08471 -11.28591,5.77774 -3.05473,6.03106 -2.80145,7.9637 1.68716,12.87418 4.53292,4.95895 5.46561,8.07859 4.02016,13.44659 -0.995,3.69516 -8.10503,12.98937 -9.9368,12.98937 -0.47853,0 -1.99947,-2.38742 -3.37989,-5.30537 -2.48218,-5.24692 -7.7948,-10.41143 -10.70999,-10.41143 -1.24214,0 -1.55457,1.84873 -1.78456,10.55973 -0.24247,9.1836 -0.44357,10.27125 -1.54309,8.3461 -1.01266,-1.77305 -1.0334,-3.86405 -0.10418,-10.50634 1.13958,-8.1461 1.1129,-8.38919 -1.50929,-13.74876 -2.76503,-5.65151 -5.03736,-6.87324 -7.42742,-3.99339 -1.82216,2.19556 -2.82914,0.94729 -3.53631,-4.38367 -0.76614,-5.77541 -3.03465,-9.75728 -7.43991,-13.05912 -5.53152,-4.14601 -6.92292,-4.13824 -12.2397,0.0683 -5.55763,4.39712 -16.39458,16.36183 -18.53248,20.46108 -0.80833,1.5499 -1.4724,5.36958 -1.47573,8.48817 -0.006,5.27544 -0.2883,5.97639 -4.06036,10.06858 -2.22987,2.41912 -4.38614,4.39841 -4.79173,4.39841 -2.07656,0 -9.54028,-26.44046 -10.46762,-37.08183 l -0.62062,-7.12168 h -4.27621 c -4.02156,5e-5 -4.27621,-0.16262 -4.27621,-2.73149 0,-2.12369 -0.64587,-2.97534 -2.90241,-3.82708 -1.8169,-0.6858 -3.39284,-2.29743 -4.21369,-4.30908 l -1.31126,-3.21355 -11.51621,-0.081 c -11.46466,-0.0806 -11.52629,-0.0937 -13.76596,-2.90279 -1.91125,-2.39717 -2.70688,-2.72135 -5.2878,-2.15448 -4.21013,0.9247 -9.87151,-1.55937 -10.65333,-4.67441 -0.9011,-3.59023 -5.68291,-7.76709 -8.44461,-7.37625 -3.62195,0.51257 -3.4806,4.44192 0.34488,9.5879 1.77801,2.39175 4.1168,6.14904 5.19733,8.34955 1.68817,3.43796 2.46037,4.04248 5.48789,4.29624 2.97633,0.24947 4.08191,-0.27981 7.12167,-3.40941 2.97731,-3.06527 3.59702,-3.37056 3.5904,-1.76876 -0.005,1.07312 1.98267,3.68718 4.45846,5.86516 l 4.46645,3.9292 -3.06153,5.8938 c -3.93204,7.56965 -7.46132,11.19492 -17.15183,17.61844 -9.80343,6.49834 -12.76743,8.01258 -18.51871,9.46077 -6.03218,1.51893 -7.51225,0.33739 -7.51225,-5.99698 0,-3.53396 -0.85469,-6.26003 -3.427,-10.9306 -7.53161,-13.6752 -13.27298,-25.44188 -15.18867,-31.12853 -1.86936,-5.5491 -1.94541,-6.97489 -1.04098,-19.51801 0.53663,-7.44237 0.97958,-14.35116 0.98433,-15.35285 0.008,-1.67888 -0.60087,-1.76732 -7.78752,-1.13115 -12.67336,1.12184 -16.83745,-1.42616 -19.65626,-12.02767 -1.19384,-4.49001 -2.51727,-5.0562 -7.44196,-3.18384 -2.51119,0.95476 -2.59423,1.22912 -2.27412,7.51501 0.22167,4.35311 -0.0489,6.65643 -0.81313,6.92182 -1.1647,0.40445 -10.15109,-16.40459 -10.15109,-18.98762 0,-2.7338 -13.98347,-16.08615 -16.84648,-16.08615 -1.75281,0 -0.72068,4.707 1.95847,8.93159 2.80316,4.42012 10.3968,11.64247 12.3635,11.75898 0.57808,0.0343 0.0476,0.4653 -1.1788,0.95792 -1.38286,0.55546 -2.45964,2.04458 -2.8348,3.9204 l -0.60495,3.02474 -1.67402,-3.73709 c -0.92071,-2.0554 -3.76109,-5.44662 -6.31195,-7.53604 -2.55086,-2.08942 -5.72134,-5.51519 -7.04552,-7.61282 -2.68422,-4.25208 -5.33418,-4.88073 -9.18984,-2.18012 -1.28289,0.89858 -4.21542,1.67214 -6.51673,1.71902 -4.01549,0.0818 -4.38574,0.36168 -9.18249,6.94034 -3.23519,4.437 -4.99829,7.842 -4.99829,9.65298 0,3.4172 -4.44726,8.17649 -8.46926,9.06349 -4.86597,1.07312 -5.27015,1.3212 -6.48045,3.9775 -1.01754,2.23327 -0.92265,2.77947 0.6874,3.95677 2.92159,2.13632 6.95992,1.62322 12.6939,-1.61284 4.41169,-2.4898 6.94847,-3.12925 15.45634,-3.89612 5.59813,-0.50459 10.66799,-0.93233 11.26636,-0.95052 0.61362,-0.0187 1.35858,2.55624 1.7087,5.906 0.86588,8.28436 1.74439,9.5324 7.27449,10.33446 3.36442,0.48795 5.50948,1.53066 7.70098,3.74343 1.67069,1.68689 4.22423,4.11945 5.67454,5.40568 2.52478,2.23915 2.71778,2.26543 4.53823,0.61795 1.04573,-0.94636 2.39427,-3.21433 2.99677,-5.03993 1.34783,-4.08396 2.86708,-4.19319 12.23955,-0.87995 5.15443,1.82212 8.90521,2.43593 14.98008,2.45146 6.77703,0.0173 8.42566,0.3424 10.06857,1.98532 2.29008,2.29008 2.31889,2.56243 0.85591,8.08988 -0.99659,3.76534 -0.8081,5.03309 1.86421,12.53842 7.59145,21.32104 10.11644,27.633 12.44833,31.11833 2.30619,3.44691 7.37014,10.78879 10.69751,15.50958 1.62743,2.30896 6.42778,2.3675 14.8027,0.18051 6.42524,-1.67787 6.29292,-1.9907 3.46884,8.20028 -2.39554,8.64462 -6.71709,16.10995 -14.14429,24.43377 -2.96762,3.32587 -7.55448,9.24624 -10.19302,13.15639 l -4.79734,7.10936 1.49724,16.24606 c 0.82348,8.93533 1.18073,17.50711 0.79389,19.04838 -0.38683,1.54129 -3.25769,5.50139 -6.37966,8.80021 -8.09479,8.55334 -8.7799,9.78387 -8.21879,14.76199 0.56388,5.00274 -0.99925,10.42242 -3.71481,12.87997 -1.09794,0.99361 -1.92762,3.0108 -1.92762,4.68655 0,4.41172 -4.78213,13.15294 -10.31415,18.85317 -5.68703,5.85996 -11.09153,8.09915 -21.73578,9.00558 l -7.00129,0.5962 z"
       style="opacity:1;fill:#e3f2fd;fill-opacity:1;fill-rule:evenodd;stroke:none;stroke-width:1.70000005;stroke-miterlimit:4;stroke-dasharray:none;stroke-opacity:0.97790055" />
    <path
       inkscape:connector-curvature="0"
       id="path1010"
       d="m 490.45669,202.26082 c 0.43831,-1.2156 0.77305,-3.97831 0.74387,-6.13937 -0.0401,-2.97294 0.49923,-4.36492 2.21618,-5.71953 3.05383,-2.40934 2.86527,-3.92311 -1.03081,-8.27542 -4.0693,-4.54582 -5.36182,-10.17234 -3.12203,-13.59069 1.72174,-2.6277 4.45746,-3.1922 4.45746,-0.91978 0,0.8001 1.10508,1.73209 2.45575,2.07109 2.82305,0.70854 2.88863,0.99779 0.9823,4.33257 -0.77211,1.35067 -1.4195,2.77599 -1.43865,3.16739 -0.0191,0.3914 2.82127,4.24925 6.31203,8.573 6.2661,7.76138 6.33002,7.90134 5.02544,11.00405 -1.12406,2.67333 -2.32865,3.47663 -8.06586,5.3788 -8.73582,2.89635 -9.54152,2.90748 -8.53568,0.11789 z"
       style="opacity:1;fill:#e3f2fd;fill-opacity:1;fill-rule:evenodd;stroke:none;stroke-width:1.66991019;stroke-miterlimit:4;stroke-dasharray:none;stroke-opacity:0.97790055" />
    <path
       inkscape:connector-curvature="0"
       id="path1012"
       d="m 477.12017,194.52521 c 0.16639,-5.63355 1.28551,-7.94528 4.7444,-9.8003 1.83176,-0.98239 3.70177,-1.55668 4.15558,-1.27621 0.45381,0.28046 0.82511,2.42404 0.82511,4.76349 0,5.15046 -2.21273,8.15771 -6.63053,9.01138 -3.10578,0.60015 -3.18982,0.52687 -3.09456,-2.69836 z"
       style="opacity:1;fill:#e3f2fd;fill-opacity:1;fill-rule:evenodd;stroke:none;stroke-width:1.66991019;stroke-miterlimit:4;stroke-dasharray:none;stroke-opacity:0.97790055" />
    <path
       inkscape:connector-curvature="0"
       id="path1014"
       d="m 311.56039,591.27865 c -0.84102,-1.20074 -1.52914,-3.22502 -1.52914,-4.4984 0,-2.0409 -0.33577,-2.24148 -2.83376,-1.69284 -3.9912,0.87662 -6.12491,-2.21965 -8.38178,-12.16291 -1.54619,-6.81217 -1.62983,-8.42868 -0.54136,-10.4625 1.13473,-2.12026 1.04224,-2.66714 -0.77997,-4.61212 -2.36271,-2.52187 -1.44114,-5.64467 1.66581,-5.64467 2.2104,0 2.98156,-2.60371 2.99925,-10.12655 0.009,-3.59798 -0.35346,-5.47945 -0.97959,-5.09249 -1.55003,0.95798 -0.0927,-15.63113 2.08105,-23.68905 1.03613,-3.84085 2.52994,-12.23951 3.31958,-18.66371 0.78964,-6.42419 1.85582,-14.77459 2.36927,-18.55645 0.51346,-3.78185 1.18682,-10.69678 1.49636,-15.36649 l 0.5628,-8.49039 -8.45796,-8.00615 c -6.58922,-6.23725 -8.88504,-9.13607 -10.391,-13.12021 -1.06319,-2.81274 -4.38212,-10.33845 -7.37543,-16.72382 l -5.44235,-11.60976 2.57464,-2.68734 c 3.07438,-3.20897 3.29567,-5.03559 0.61003,-5.03559 -2.89532,0 -2.48591,-1.48443 3.05947,-11.0929 4.79581,-8.3097 5.0048,-8.97149 4.6001,-14.56645 -0.34375,-4.75226 -0.93044,-6.36414 -3.10073,-8.51909 l -2.67675,-2.65782 -1.75994,2.31351 -1.75992,2.3135 -3.84704,-1.97797 c -4.5054,-2.31646 -8.22119,-6.03424 -12.52991,-12.53661 -2.57002,-3.87847 -3.98573,-4.9692 -8.22022,-6.33331 -2.81351,-0.90636 -6.90362,-3.26339 -9.08911,-5.23784 -3.53864,-3.19696 -4.55364,-3.58993 -9.27252,-3.58993 -4.15961,0 -6.78242,-0.76312 -12.19871,-3.54927 -8.5362,-4.39106 -11.85079,-7.75996 -13.07301,-13.28718 -0.92531,-4.18457 -3.25569,-8.02882 -12.12383,-19.9998 -2.40138,-3.24159 -5.71755,-8.4355 -7.36925,-11.54202 -2.11157,-3.97142 -3.58215,-5.64823 -4.95358,-5.64823 -3.06527,0 -2.38669,2.70136 2.96105,11.7876 2.70132,4.58977 4.9115,8.83898 4.9115,9.44269 0,0.60372 0.93446,2.28565 2.07658,3.73762 1.14213,1.45197 1.81586,2.90068 1.49719,3.21935 -1.02193,1.02194 -3.84022,-2.03716 -5.66203,-6.14584 -0.97295,-2.19424 -2.89026,-4.58962 -4.26072,-5.32307 -1.58373,-0.84758 -2.49172,-2.17586 -2.49172,-3.6451 0,-2.90909 -6.84223,-16.62637 -10.40571,-20.86133 -1.47463,-1.75249 -3.60441,-3.54141 -4.73284,-3.97537 -1.25185,-0.48141 -2.53879,-2.38411 -3.30116,-4.88059 -0.6872,-2.25038 -2.31905,-5.72507 -3.62634,-7.72155 -3.74841,-5.7245 -4.8195,-11.85579 -4.14143,-23.70688 0.73868,-12.91036 -0.0952,-16.19251 -5.6965,-22.42254 -3.13507,-3.48695 -4.05233,-5.13797 -3.2823,-5.90799 1.16095,-1.16095 -2.57946,-8.53216 -5.60272,-11.04124 -0.88562,-0.735 -2.87619,-3.79401 -4.42349,-6.79779 -1.54731,-3.00379 -4.716,-8.31115 -7.04152,-11.79414 -3.31738,-4.96849 -4.95206,-6.51807 -7.58822,-7.19316 -1.84799,-0.47325 -5.20878,-2.37541 -7.46842,-4.22702 -3.50626,-2.87311 -4.85523,-3.36656 -9.20348,-3.36656 -3.15653,0 -6.56021,-0.74747 -8.94598,-1.9646 -5.364561,-2.73679 -7.858401,-2.59294 -7.858401,0.45329 0,1.99959 -0.69692,2.60555 -4.02835,3.50261 -2.2156,0.5966 -4.264253,0.84883 -4.552571,0.56051 -0.288318,-0.28832 0.03682,-1.87867 0.722525,-3.53411 3.086486,-7.45144 -3.010609,-3.18428 -6.446043,4.51138 -1.331238,2.98209 -4.13276,6.6746 -6.936452,9.14251 -5.269956,4.6388 -18.844066,13.38499 -19.600127,12.62893 -0.269653,-0.26966 1.636621,-1.85511 4.236165,-3.52323 5.849002,-3.7533 9.627782,-7.64299 11.030047,-11.35379 0.589751,-1.56066 0.949399,-2.91756 0.799217,-3.01534 -0.150182,-0.0978 -2.183916,-0.72691 -4.519409,-1.39809 -3.38824,-0.97371 -4.544772,-0.97265 -5.723091,0.005 -1.772549,1.47104 -3.252354,-0.24749 -3.276567,-3.8052 -0.01333,-1.95799 -0.512796,-2.21018 -4.37742,-2.21018 -4.430822,0 -6.65393,-1.29649 -3.98153,-2.32199 1.483526,-0.56928 2.092908,-3.55904 0.731083,-3.58685 -0.405199,-0.008 -1.369934,-0.41574 -2.143856,-0.90548 -2.310818,-1.4623 2.532549,-7.71876 6.899363,-8.91231 4.146673,-1.13338 7.26569,-4.20071 6.445332,-6.33853 -0.444071,-1.15723 -2.167759,-1.51004 -7.377561,-1.51004 -10.797876,0 -14.737931,-4.98111 -6.622284,-8.37204 2.621007,-1.09513 4.057161,-1.16699 6.475331,-0.32401 2.280843,0.7951 3.754893,0.78818 5.541911,-0.026 3.075367,-1.40123 2.560024,-2.18566 -3.815616,-5.80797 -2.836375,-1.61147 -6.215972,-4.07133 -7.510215,-5.46635 l -2.35317,-2.53638 2.662692,-1.01236 c 1.464481,-0.55679 2.994617,-1.01235 3.400303,-1.01235 0.405685,0 2.085552,-1.43661 3.733035,-3.19247 3.83122,-4.08326 9.73258,-7.6805 13.541678,-8.2545 3.064484,-0.46179 8.928909,0.33203 22.62523,3.06257 4.32212,0.86167 10.2896,1.81789 13.261051,2.12493 5.68088,0.587 13.24181,2.99229 19.59567,6.23379 3.6611,1.86775 3.86531,1.87315 6.09396,0.16114 3.15393,-2.42279 11.67237,-5.04696 16.38318,-5.04696 2.54726,0 4.07981,-0.50738 4.45053,-1.47345 0.84661,-2.20624 1.91478,-1.78743 3.77386,1.47966 1.83262,3.22063 4.15715,3.83783 5.10928,1.35661 0.49869,-1.29955 0.87646,-1.36118 2.10319,-0.34308 1.20533,1.00033 1.95061,0.99733 3.84311,-0.0155 2.03026,-1.08656 2.81004,-0.97083 5.76544,0.85571 1.87971,1.16172 6.44407,2.65847 10.14304,3.3261 6.17329,1.11424 6.75012,1.42682 7.02657,3.80769 0.34904,3.00617 2.23823,3.74302 9.64713,3.76275 3.26521,0.009 5.4669,0.53167 6.25965,1.48687 2.0831,2.50997 3.20631,1.69074 2.54139,-1.8536 -0.57407,-3.06004 -0.32664,-3.50982 3.08315,-5.60451 3.48795,-2.14271 3.56902,-2.29961 1.37015,-2.65171 -1.28542,-0.20584 -4.15865,0.28507 -6.38495,1.09091 -8.1329,2.94382 -9.29621,2.92125 -14.12006,-0.27393 -2.47934,-1.64225 -5.31619,-2.98591 -6.30409,-2.98591 -0.98791,0 -1.79619,-0.64783 -1.79619,-1.43962 0,-0.9858 1.54826,-1.645 4.9115,-2.09115 2.70132,-0.35834 4.9115,-0.98136 4.9115,-1.38449 0,-0.86848 -4.98303,-1.96084 -8.94478,-1.96084 -2.16071,0 -2.94471,-0.55507 -3.41163,-2.41546 -0.33343,-1.3285 -1.21664,-2.92204 -1.96268,-3.54119 -2.11283,-1.7535 -0.0502,-4.50288 5.481,-7.305726 5.72357,-2.90035 5.89119,-2.924767 5.89119,-0.858187 0,1.258957 0.63935,1.468367 3.02584,0.99107 2.06889,-0.413778 3.50378,-0.127218 4.53709,0.906099 1.36016,1.360154 1.67922,1.359278 3.1909,-0.0087 2.35907,-2.134967 2.95843,-1.927789 4.12786,1.426836 1.44327,4.140158 2.79971,3.664238 2.79971,-0.9823 0,-2.873545 0.40416,-3.9292 1.50428,-3.9292 0.82736,0 1.75872,-0.663053 2.06969,-1.47345 0.31099,-0.810398 1.37914,-1.47345 2.37369,-1.47345 1.55074,0 1.80441,0.808659 1.78112,5.678 -0.0347,7.238698 2.482,13.781358 5.60222,14.564478 3.29197,0.82623 5.04678,3.12715 2.98758,3.91734 -0.96702,0.37108 -1.58408,1.74849 -1.58408,3.53602 0,2.88608 -0.0581,2.91832 -4.04644,2.2445 -3.10127,-0.52395 -3.94723,-0.386 -3.62169,0.59062 1.43875,4.31625 12.49325,7.25406 17.41356,4.62777 3.38333,-1.80589 3.54787,-3.38815 0.51748,-4.97594 l -2.62858,-1.37724 2.70025,-2.12403 c 3.29232,-2.58973 3.59269,-2.60144 6.49274,-0.25312 2.1445,1.73651 2.19717,2.00111 0.73328,3.68363 -1.07597,1.23665 -1.42961,2.98085 -1.1128,5.48847 0.53612,4.24344 1.36528,4.01764 4.71146,-1.28305 3.43476,-5.44103 3.17984,-8.3932 -0.93439,-10.82065 -5.03788,-2.97243 -5.40556,-6.14642 -1.12365,-9.70009 1.92885,-1.6008 1.94169,-4.706073 0.0383,-9.261516 l -1.48878,-3.563133 3.2078,-1.955808 c 3.74478,-2.283205 8.43477,-2.535323 11.08695,-0.595998 1.62895,1.191114 1.6923,1.580901 0.492,3.027173 -0.75773,0.913011 -2.95122,2.399183 -4.87442,3.302604 -4.45213,2.091385 -4.80589,4.506316 -1.58981,10.852938 1.38239,2.72801 2.51343,5.79917 2.51343,6.8248 0,1.02563 0.88407,2.9887 1.9646,4.36237 1.08053,1.37367 1.9646,2.98041 1.9646,3.57052 0,1.36349 0.56428,1.35065 2.83011,-0.0644 3.11078,-1.94271 5.02829,-0.36575 5.02829,4.13526 0,7.5998 5.50396,1.20057 6.51012,-7.56905 l 0.54621,-4.76073 -4.50874,-1.81561 c -2.47981,-0.99859 -4.24058,-2.24952 -3.91283,-2.77983 0.32776,-0.53032 -0.33607,-1.61701 -1.47517,-2.41486 -2.42257,-1.69684 -2.62978,-4.673685 -0.65439,-9.401458 1.71789,-4.111501 3.21275,-5.435018 6.4417,-5.703365 4.09771,-0.340546 4.38765,-0.06861 2.14983,2.01624 -2.52634,2.353641 -2.75636,5.534757 -0.62068,8.583863 2.32301,3.31656 3.25086,2.6643 3.97498,-2.794339 0.95816,-7.222961 2.87901,-8.226812 13.32533,-6.963902 4.47306,0.540772 8.29708,1.475989 8.49785,2.078261 0.88344,2.650338 5.33167,6.733498 10.16441,9.33022 2.88109,1.54806 6.89724,4.29043 8.92479,6.09414 2.02756,1.80372 4.23773,3.28626 4.9115,3.29453 0.67378,0.008 1.88034,0.42939 2.68125,0.93581 1.21688,0.76945 0.99049,1.40685 -1.37764,3.87864 -3.72351,3.88651 -2.90264,4.8338 9.06924,10.46593 l 9.30491,4.37746 -1.83322,2.19674 c -1.00827,1.2082 -2.6908,3.18633 -3.73896,4.39583 l -1.90573,2.1991 -3.35378,-3.91812 c -2.19788,-2.56774 -4.17376,-3.91813 -5.73296,-3.91813 -3.38025,0 -3.0695,2.73909 0.90337,7.96272 4.39388,5.77718 5.81757,8.60799 5.17344,10.28659 -0.74445,1.93999 -2.16501,1.74918 -5.53681,-0.74371 -3.99746,-2.95544 -4.6927,-1.60755 -1.58951,3.08167 1.42972,2.16046 2.5995,4.10926 2.5995,4.33066 0,1.19152 -11.41726,-4.48663 -14.07312,-6.99899 -4.07561,-3.85538 -6.68856,-5.13378 -10.66538,-5.21808 -7.60101,-0.16112 -8.30611,-3.56751 -0.94287,-4.55513 3.47323,-0.46586 4.07077,-0.88749 4.07077,-2.87242 0,-1.27952 0.90925,-3.23566 2.02056,-4.34697 2.52895,-2.52896 2.306,-8.54122 -0.37673,-10.15871 -1.49993,-0.90434 -2.25972,-0.53057 -4.63225,2.27882 -2.5247,2.98959 -2.91495,3.16009 -3.53493,1.54446 -0.49107,-1.27972 -0.0658,-2.23516 1.43977,-3.23483 2.47273,-1.64184 2.79283,-3.93585 0.66323,-4.75305 -0.8104,-0.31098 -1.47345,-1.36982 -1.47345,-2.35298 0,-2.05199 -5.55527,-5.22022 -7.24099,-4.12962 -0.60971,0.39446 -2.43467,0.71889 -4.05547,0.72096 l -2.9469,0.004 v 7.95126 c 0,9.50976 -1.00361,11.20362 -6.63815,11.20362 -4.51704,0 -8.71155,3.58052 -9.17858,7.83502 -0.29067,2.64793 -4.49186,6.89948 -6.81776,6.89948 -0.77302,0 -2.01416,1.45677 -2.75811,3.23727 -0.74393,1.78049 -2.51232,3.99713 -3.92975,4.92586 -2.79996,1.83461 -5.90486,7.23286 -6.95164,12.08628 -0.51401,2.3832 -0.15221,3.68549 1.63739,5.8938 1.26345,1.55905 2.82304,4.05024 3.46576,5.53597 0.94074,2.17466 1.80839,2.70132 4.45028,2.70132 2.28424,0 4.84851,1.169 8.43664,3.84611 3.75525,2.80179 6.5373,4.03431 10.24599,4.53924 2.80007,0.38122 5.41579,1.19218 5.81272,1.80212 0.39693,0.60994 0.74251,3.31916 0.76796,6.02048 0.0488,5.17773 1.10715,7.31913 4.51403,9.13334 1.58361,0.8433 2.49136,0.79986 3.83624,-0.18354 1.4544,-1.06348 1.66505,-2.21363 1.20743,-6.59246 -0.30488,-2.91733 -0.70508,-5.90992 -0.88934,-6.65021 -0.18425,-0.74029 0.9911,-2.10165 2.6119,-3.02524 5.28767,-3.01313 5.73006,-8.9621 1.07762,-14.49121 -2.13078,-2.53228 -2.22999,-3.04256 -1.0174,-5.23279 0.73898,-1.33479 1.35928,-5.24434 1.37841,-8.6879 l 0.0348,-6.26101 5.35844,0.44436 c 7.38822,0.61269 16.25216,6.32945 16.25216,10.48178 0,7.22765 8.28254,10.86217 11.32884,4.97128 0.85597,-1.65525 2.08292,-2.83648 2.72655,-2.62496 1.72774,0.56781 5.38614,7.35557 7.14212,13.25142 1.07876,3.62204 2.4957,5.89226 4.75147,7.61282 1.76787,1.34842 3.5036,2.45167 3.85719,2.45167 0.35358,0 2.41153,1.71642 4.57321,3.81426 2.845,2.76099 3.91458,4.59192 3.87334,6.63052 -0.0503,2.48842 -0.82224,3.18233 -6.63053,5.96068 -5.16108,2.46876 -8.18085,3.22673 -14.05392,3.52759 -6.43073,0.32943 -8.17846,0.83553 -12.45511,3.6067 -4.63347,3.00239 -8.19577,8.08558 -6.70859,9.57276 0.34849,0.34849 1.84461,-0.5263 3.3247,-1.94398 3.11936,-2.98783 9.68572,-5.97496 11.14785,-5.0713 1.42932,0.88336 -1.66465,4.03891 -4.70936,4.80308 -2.43518,0.61119 -2.47749,0.76999 -1.82592,6.85422 l 0.66702,6.22854 -4.24115,2.33453 c -3.66046,2.01489 -4.30841,2.86268 -4.73231,6.19179 -0.43078,3.38309 -0.8896,3.95994 -3.73241,4.69252 -2.38432,0.61442 -3.94255,2.01667 -5.8938,5.30381 -3.90903,6.58529 -5.13159,7.96919 -5.74301,6.50086 -0.28122,-0.67533 -0.96486,-1.22787 -1.51921,-1.22787 -0.98066,0 -0.71662,3.33946 0.71381,9.02826 0.58155,2.31276 -0.20278,3.55978 -6.27188,9.97192 -3.81511,4.03074 -7.20276,8.38921 -7.52811,9.68551 -0.32534,1.29631 0.35376,6.00373 1.50913,10.46097 1.70679,6.5845 1.86885,8.3834 0.86428,9.59382 -1.08212,1.30387 -1.39678,1.20569 -2.52184,-0.78688 -0.707,-1.25216 -1.99348,-4.62473 -2.85886,-7.49461 -1.20384,-3.99234 -2.18738,-5.45921 -4.18734,-6.24507 -1.43765,-0.56491 -3.38148,-1.42158 -4.31961,-1.90372 -2.61483,-1.34382 -8.01338,-1.04269 -10.13973,0.56561 -1.15854,0.87627 -4.16708,1.45447 -7.66684,1.47345 -7.43422,0.0403 -12.89759,2.91556 -14.44412,7.6016 -1.32395,4.01163 -1.69693,17.09201 -0.63061,22.1153 0.99605,4.69216 4.87426,9.28883 8.5109,10.08758 3.88642,0.8536 8.76512,-1.80637 10.04452,-5.47648 1.17353,-3.36637 3.43475,-4.82776 7.47004,-4.82776 h 2.86409 l -2.30836,7.9697 c -1.26959,4.38332 -2.30835,8.75212 -2.30835,9.70843 0,2.03434 2.66016,2.918 8.8407,2.93676 l 4.42035,0.0134 v 7.12168 c 0,8.94627 0.87129,12.08449 3.90746,14.07385 1.9844,1.30024 2.9975,1.37811 5.81805,0.44726 2.783,-0.91848 3.96291,-0.84394 6.37352,0.40264 4.07148,2.10544 4.43362,1.99728 6.28058,-1.87584 1.11492,-2.338 3.13403,-4.17079 6.44089,-5.84649 l 4.81687,-2.4409 -0.50748,4.50235 c -0.40175,3.56428 -0.222,4.40822 0.86272,4.05054 0.75361,-0.2485 1.51813,-1.52228 1.69895,-2.83063 0.53815,-3.89396 1.64548,-4.17175 7.94266,-1.99248 4.7695,1.65059 6.80466,1.89222 9.96213,1.18278 3.4677,-0.77914 4.27149,-0.6104 6.37391,1.33805 1.32319,1.22629 2.4058,2.74535 2.4058,3.37569 0,0.63034 0.77356,1.41875 1.71902,1.75203 0.94547,0.33327 3.52737,2.52958 5.73758,4.88066 3.34101,3.55397 4.63279,4.27472 7.6616,4.27472 6.18948,0 9.19445,2.31048 12.51862,9.62539 1.64525,3.62041 3.30267,7.24561 3.68317,8.05601 0.3805,0.81039 3.52846,2.87872 6.99548,4.59626 3.467,1.71754 6.81141,3.81721 7.43201,4.66592 0.63961,0.87472 2.57063,1.54549 4.45811,1.5486 4.98357,0.008 10.17044,1.71354 12.26878,4.03375 1.02645,1.13499 3.52391,2.90964 5.54991,3.94365 3.56097,1.81745 3.68362,2.05444 3.68362,7.11747 0,3.97462 -0.57524,6.04218 -2.38582,8.57516 -6.11182,8.5504 -7.58557,12.10382 -8.44548,20.36329 -0.88374,8.4884 -3.14397,16.70435 -5.66151,20.57963 -0.8012,1.2333 -4.60116,3.70786 -8.44434,5.49903 -10.42079,4.85674 -11.60662,6.11115 -12.43735,13.15663 -0.58947,4.99936 -1.35166,6.7581 -4.64317,10.71412 -2.16586,2.60312 -4.85478,6.50108 -5.97537,8.66214 -3.957,7.63106 -5.38941,8.80485 -10.47474,8.58353 -4.0222,-0.17506 -4.50602,0.0127 -3.87177,1.50201 0.39866,0.93613 1.1922,3.34023 1.76343,5.34244 1.37843,4.83148 -0.48531,6.89052 -8.19501,9.05375 -5.41181,1.51848 -5.8535,1.86291 -6.44723,5.02774 -0.57807,3.08149 -0.94712,3.39763 -3.96611,3.39763 -2.60151,0 -3.32873,0.40293 -3.32873,1.84433 0,1.01437 0.6742,2.40386 1.49823,3.08774 1.30952,1.08681 1.31916,1.4422 0.0765,2.8216 -0.78194,0.868 -1.73191,2.82103 -2.11107,4.34007 -0.37916,1.51904 -1.96072,3.70184 -3.51458,4.85065 -3.44916,2.55009 -3.51385,3.69707 -0.41617,7.37846 l 2.40904,2.86299 -2.40904,3.54521 c -1.32497,1.94988 -2.40903,3.9422 -2.40903,4.4274 0,0.4852 -0.88407,1.68224 -1.9646,2.66011 -2.388,2.16111 -2.4435,4.05813 -0.33824,11.56123 1.14978,4.09778 2.44572,6.40209 4.42246,7.86355 3.2165,2.37806 2.26208,3.61995 -2.80065,3.64423 -2.13927,0.0102 -3.62305,-0.67921 -4.66593,-2.16813 z"
       style="opacity:1;fill:#e3f2fd;fill-opacity:1;fill-rule:evenodd;stroke:none;stroke-width:1.66991019;stroke-miterlimit:4;stroke-dasharray:none;stroke-opacity:0.97790055" />
    <path
       inkscape:connector-curvature="0"
       id="path1016"
       d="m 627.27554,472.80516 c -2.6868,-2.17564 -3.12833,-8.32894 -1.0479,-14.6039 1.06253,-3.20475 1.13689,-5.28396 0.33379,-9.33185 -1.13164,-5.70377 -0.38931,-7.6641 2.90219,-7.6641 3.21134,0 5.6097,-1.84833 7.6903,-5.92665 2.25584,-4.4218 3.41951,-4.88072 4.27561,-1.68618 0.98626,3.68021 0.69848,7.18301 -0.90555,11.02198 -0.83857,2.00699 -2.58098,8.94673 -3.87201,15.42163 -2.96505,14.87065 -4.388,16.80845 -9.37643,12.76907 z"
       style="opacity:1;fill:#e3f2fd;fill-opacity:1;fill-rule:evenodd;stroke:none;stroke-width:1.66991019;stroke-miterlimit:4;stroke-dasharray:none;stroke-opacity:0.97790055" />
    <path
       inkscape:connector-curvature="0"
       id="path1018"
       d="m 908.21466,523.78037 c -0.33767,-0.18629 -1.03385,-0.84491 -1.54707,-1.46361 -0.51322,-0.6187 -1.13309,-1.12491 -1.37748,-1.12491 -0.2444,0 -0.92958,0.42582 -1.52262,0.94628 -2.35446,2.06625 -3.65153,2.23572 -6.38405,0.83414 -4.19727,-2.1529 -9.98427,-10.14471 -11.15438,-15.40412 -0.43963,-1.97606 -0.99073,-2.82983 -1.82663,-2.82983 -0.74276,0 -2.14798,1.38058 -3.57556,3.51289 l -1.295,1.93426 -0.40181,-1.76661 c -0.9236,-4.06077 -3.3669,-6.89894 -7.89577,-9.17182 -4.03587,-2.02546 -7.18284,-2.30906 -11.5207,-1.03821 -2.91453,0.85386 -7.71636,3.24669 -9.65596,4.81171 -3.24778,2.62057 -4.63121,3.18201 -9.3761,3.80517 -3.47027,0.45576 -4.89746,0.85315 -7.73562,2.15395 -2.03244,0.93152 -2.37803,1.01338 -4.29756,1.01802 -3.02708,0.007 -4.70581,-0.81591 -6.41823,-3.14742 -0.94166,-1.2821 -0.91878,-2.01968 0.0792,-2.55312 0.43045,-0.23008 1.03825,-0.66195 1.35066,-0.95971 1.06137,-1.01161 0.74495,-2.90174 -1.96491,-11.73737 -2.69841,-8.79832 -3.1153,-11.21874 -3.1153,-18.08695 0,-5.49194 0.28981,-7.73047 1.26091,-9.73935 1.23836,-2.56175 2.3724,-3.21725 10.08968,-5.83206 6.7629,-2.29144 8.72704,-3.22673 10.52336,-5.01106 1.39224,-1.38296 1.94682,-2.62815 1.94682,-4.37121 0,-2.73763 3.01494,-6.19716 5.40076,-6.19716 0.41492,0 1.15112,-0.16577 1.63601,-0.36836 0.75405,-0.31507 3.2751,-0.36837 17.42309,-0.36837 h 16.54147 l 3.64286,2.4143 c 3.66057,2.42604 5.14417,3.08154 6.14041,2.713 0.79793,-0.29517 1.45503,-1.55917 1.79264,-3.44835 l 0.30005,-1.67895 h 4.97731 4.97732 l 0.47518,1.28927 c 0.26136,0.7091 0.78031,2.22859 1.15323,3.37666 1.22707,3.77762 2.07262,5.08268 5.16164,7.96672 2.37408,2.21653 2.91696,2.87 3.69875,4.45222 0.55768,1.12866 1.57657,2.58135 2.60346,3.71191 4.03918,4.44695 8.44072,12.62146 9.42979,17.51292 0.98674,4.87994 -0.25574,14.33218 -2.86141,21.7684 -0.4192,1.19634 -1.57852,3.91423 -2.57627,6.03975 -2.03896,4.34363 -3.32247,7.8498 -3.78563,10.34125 -0.44884,2.41436 -0.91895,2.86985 -3.20603,3.10629 -2.18733,0.22613 -3.05796,0.53904 -4.04084,1.45232 -0.92232,0.857 -1.87375,1.49851 -2.20342,1.48566 -0.13878,-0.005 -0.5286,-0.16225 -0.86626,-0.34854 z"
       style="opacity:1;fill:#e3f2fd;fill-opacity:1;fill-rule:evenodd;stroke:#cccccc;stroke-width:0.41747755;stroke-miterlimit:4;stroke-dasharray:none;stroke-opacity:0.97790055" />
    <path
       inkscape:connector-curvature="0"
       id="path1020"
       d="m 909.78741,542.57254 c -0.95158,-0.40192 -2.32011,-2.31815 -3.77819,-5.29026 -0.79656,-1.6237 -1.51945,-3.31313 -1.60642,-3.7543 -0.14521,-0.73657 -0.0912,-0.82968 0.66038,-1.13931 0.80604,-0.33204 3.8855,-0.53592 6.65092,-0.44033 1.07173,0.037 1.53859,0.17534 1.93707,0.57382 0.48845,0.48845 0.51368,0.68632 0.36226,2.84052 -0.25857,3.67842 -0.92827,6.0655 -1.93642,6.90219 -0.48894,0.40579 -1.67876,0.56567 -2.2896,0.30767 z"
       style="opacity:1;fill:#e3f2fd;fill-opacity:1;fill-rule:evenodd;stroke:#cccccc;stroke-width:0.417;stroke-miterlimit:4;stroke-dasharray:none;stroke-opacity:0.97790055" />
    <path
       inkscape:connector-curvature="0"
       id="path1022"
       d="m 968.13496,555.99778 c -1.61019,-0.56697 -2.15031,-2.72316 -1.26548,-5.05184 0.73304,-1.92921 2.05874,-3.70155 5.38274,-7.19624 4.28121,-4.50105 5.22162,-5.97478 6.44147,-10.09442 0.76084,-2.56952 0.96598,-2.69973 2.30656,-1.46403 1.52462,1.40534 2.44651,1.82546 3.79404,1.729 0.93201,-0.0667 1.15089,-0.003 1.2211,0.35625 0.13287,0.67951 -1.1902,3.27843 -3.16542,6.21787 -2.67903,3.98682 -4.34357,6.89681 -4.75544,8.3136 -0.4659,1.60265 -2.54621,4.58146 -3.89241,5.57358 -2.11785,1.56081 -4.45579,2.18361 -6.06716,1.61623 z"
       style="opacity:1;fill:#e3f2fd;fill-opacity:1;fill-rule:evenodd;stroke:#cccccc;stroke-width:0.10240478;stroke-miterlimit:4;stroke-dasharray:none;stroke-opacity:0.97790055" />
  </g>
</svg>
